%TF.GenerationSoftware,KiCad,Pcbnew,8.0.1*%
%TF.CreationDate,2024-05-23T10:17:03+02:00*%
%TF.ProjectId,MISRC_v2.1,4d495352-435f-4763-922e-312e6b696361,0.3*%
%TF.SameCoordinates,Original*%
%TF.FileFunction,Drillmap*%
%TF.FilePolarity,Positive*%
%FSLAX45Y45*%
G04 Gerber Fmt 4.5, Leading zero omitted, Abs format (unit mm)*
G04 Created by KiCad (PCBNEW 8.0.1) date 2024-05-23 10:17:03*
%MOMM*%
%LPD*%
G01*
G04 APERTURE LIST*
%ADD10C,0.100000*%
%ADD11C,0.200000*%
%ADD12C,0.320000*%
G04 APERTURE END LIST*
D10*
X20675600Y-13589000D02*
X20675600Y-6324600D01*
X6057900Y-13589000D02*
X20675600Y-13589000D01*
X20675600Y-6324600D02*
X6057900Y-6324600D01*
X6057900Y-6324600D02*
X6057900Y-13589000D01*
D11*
D12*
X6266200Y-6532900D02*
X6586200Y-6852900D01*
X6586200Y-6532900D02*
X6266200Y-6852900D01*
X6266200Y-13060700D02*
X6586200Y-13380700D01*
X6586200Y-13060700D02*
X6266200Y-13380700D01*
X20147300Y-6532900D02*
X20467300Y-6852900D01*
X20467300Y-6532900D02*
X20147300Y-6852900D01*
X20147300Y-13060700D02*
X20467300Y-13380700D01*
X20467300Y-13060700D02*
X20147300Y-13380700D01*
D11*
X6313677Y-13905484D02*
X6313677Y-13705484D01*
X6313677Y-13705484D02*
X6361296Y-13705484D01*
X6361296Y-13705484D02*
X6389867Y-13715008D01*
X6389867Y-13715008D02*
X6408915Y-13734055D01*
X6408915Y-13734055D02*
X6418439Y-13753103D01*
X6418439Y-13753103D02*
X6427962Y-13791198D01*
X6427962Y-13791198D02*
X6427962Y-13819769D01*
X6427962Y-13819769D02*
X6418439Y-13857865D01*
X6418439Y-13857865D02*
X6408915Y-13876912D01*
X6408915Y-13876912D02*
X6389867Y-13895960D01*
X6389867Y-13895960D02*
X6361296Y-13905484D01*
X6361296Y-13905484D02*
X6313677Y-13905484D01*
X6513677Y-13905484D02*
X6513677Y-13772150D01*
X6513677Y-13810246D02*
X6523201Y-13791198D01*
X6523201Y-13791198D02*
X6532724Y-13781674D01*
X6532724Y-13781674D02*
X6551772Y-13772150D01*
X6551772Y-13772150D02*
X6570820Y-13772150D01*
X6637486Y-13905484D02*
X6637486Y-13772150D01*
X6637486Y-13705484D02*
X6627962Y-13715008D01*
X6627962Y-13715008D02*
X6637486Y-13724531D01*
X6637486Y-13724531D02*
X6647010Y-13715008D01*
X6647010Y-13715008D02*
X6637486Y-13705484D01*
X6637486Y-13705484D02*
X6637486Y-13724531D01*
X6761296Y-13905484D02*
X6742248Y-13895960D01*
X6742248Y-13895960D02*
X6732724Y-13876912D01*
X6732724Y-13876912D02*
X6732724Y-13705484D01*
X6866058Y-13905484D02*
X6847010Y-13895960D01*
X6847010Y-13895960D02*
X6837486Y-13876912D01*
X6837486Y-13876912D02*
X6837486Y-13705484D01*
X7094629Y-13905484D02*
X7094629Y-13705484D01*
X7094629Y-13705484D02*
X7161296Y-13848341D01*
X7161296Y-13848341D02*
X7227962Y-13705484D01*
X7227962Y-13705484D02*
X7227962Y-13905484D01*
X7408915Y-13905484D02*
X7408915Y-13800722D01*
X7408915Y-13800722D02*
X7399391Y-13781674D01*
X7399391Y-13781674D02*
X7380343Y-13772150D01*
X7380343Y-13772150D02*
X7342248Y-13772150D01*
X7342248Y-13772150D02*
X7323201Y-13781674D01*
X7408915Y-13895960D02*
X7389867Y-13905484D01*
X7389867Y-13905484D02*
X7342248Y-13905484D01*
X7342248Y-13905484D02*
X7323201Y-13895960D01*
X7323201Y-13895960D02*
X7313677Y-13876912D01*
X7313677Y-13876912D02*
X7313677Y-13857865D01*
X7313677Y-13857865D02*
X7323201Y-13838817D01*
X7323201Y-13838817D02*
X7342248Y-13829293D01*
X7342248Y-13829293D02*
X7389867Y-13829293D01*
X7389867Y-13829293D02*
X7408915Y-13819769D01*
X7504153Y-13772150D02*
X7504153Y-13972150D01*
X7504153Y-13781674D02*
X7523201Y-13772150D01*
X7523201Y-13772150D02*
X7561296Y-13772150D01*
X7561296Y-13772150D02*
X7580343Y-13781674D01*
X7580343Y-13781674D02*
X7589867Y-13791198D01*
X7589867Y-13791198D02*
X7599391Y-13810246D01*
X7599391Y-13810246D02*
X7599391Y-13867388D01*
X7599391Y-13867388D02*
X7589867Y-13886436D01*
X7589867Y-13886436D02*
X7580343Y-13895960D01*
X7580343Y-13895960D02*
X7561296Y-13905484D01*
X7561296Y-13905484D02*
X7523201Y-13905484D01*
X7523201Y-13905484D02*
X7504153Y-13895960D01*
X7685105Y-13886436D02*
X7694629Y-13895960D01*
X7694629Y-13895960D02*
X7685105Y-13905484D01*
X7685105Y-13905484D02*
X7675582Y-13895960D01*
X7675582Y-13895960D02*
X7685105Y-13886436D01*
X7685105Y-13886436D02*
X7685105Y-13905484D01*
X7685105Y-13781674D02*
X7694629Y-13791198D01*
X7694629Y-13791198D02*
X7685105Y-13800722D01*
X7685105Y-13800722D02*
X7675582Y-13791198D01*
X7675582Y-13791198D02*
X7685105Y-13781674D01*
X7685105Y-13781674D02*
X7685105Y-13800722D01*
X5852900Y-14134000D02*
X6052900Y-14334000D01*
X6052900Y-14134000D02*
X5852900Y-14334000D01*
X6294629Y-14125484D02*
X6418439Y-14125484D01*
X6418439Y-14125484D02*
X6351772Y-14201674D01*
X6351772Y-14201674D02*
X6380343Y-14201674D01*
X6380343Y-14201674D02*
X6399391Y-14211198D01*
X6399391Y-14211198D02*
X6408915Y-14220722D01*
X6408915Y-14220722D02*
X6418439Y-14239769D01*
X6418439Y-14239769D02*
X6418439Y-14287388D01*
X6418439Y-14287388D02*
X6408915Y-14306436D01*
X6408915Y-14306436D02*
X6399391Y-14315960D01*
X6399391Y-14315960D02*
X6380343Y-14325484D01*
X6380343Y-14325484D02*
X6323201Y-14325484D01*
X6323201Y-14325484D02*
X6304153Y-14315960D01*
X6304153Y-14315960D02*
X6294629Y-14306436D01*
X6504153Y-14306436D02*
X6513677Y-14315960D01*
X6513677Y-14315960D02*
X6504153Y-14325484D01*
X6504153Y-14325484D02*
X6494629Y-14315960D01*
X6494629Y-14315960D02*
X6504153Y-14306436D01*
X6504153Y-14306436D02*
X6504153Y-14325484D01*
X6589867Y-14144531D02*
X6599391Y-14135008D01*
X6599391Y-14135008D02*
X6618439Y-14125484D01*
X6618439Y-14125484D02*
X6666058Y-14125484D01*
X6666058Y-14125484D02*
X6685105Y-14135008D01*
X6685105Y-14135008D02*
X6694629Y-14144531D01*
X6694629Y-14144531D02*
X6704153Y-14163579D01*
X6704153Y-14163579D02*
X6704153Y-14182627D01*
X6704153Y-14182627D02*
X6694629Y-14211198D01*
X6694629Y-14211198D02*
X6580343Y-14325484D01*
X6580343Y-14325484D02*
X6704153Y-14325484D01*
X6827962Y-14125484D02*
X6847010Y-14125484D01*
X6847010Y-14125484D02*
X6866058Y-14135008D01*
X6866058Y-14135008D02*
X6875582Y-14144531D01*
X6875582Y-14144531D02*
X6885105Y-14163579D01*
X6885105Y-14163579D02*
X6894629Y-14201674D01*
X6894629Y-14201674D02*
X6894629Y-14249293D01*
X6894629Y-14249293D02*
X6885105Y-14287388D01*
X6885105Y-14287388D02*
X6875582Y-14306436D01*
X6875582Y-14306436D02*
X6866058Y-14315960D01*
X6866058Y-14315960D02*
X6847010Y-14325484D01*
X6847010Y-14325484D02*
X6827962Y-14325484D01*
X6827962Y-14325484D02*
X6808915Y-14315960D01*
X6808915Y-14315960D02*
X6799391Y-14306436D01*
X6799391Y-14306436D02*
X6789867Y-14287388D01*
X6789867Y-14287388D02*
X6780343Y-14249293D01*
X6780343Y-14249293D02*
X6780343Y-14201674D01*
X6780343Y-14201674D02*
X6789867Y-14163579D01*
X6789867Y-14163579D02*
X6799391Y-14144531D01*
X6799391Y-14144531D02*
X6808915Y-14135008D01*
X6808915Y-14135008D02*
X6827962Y-14125484D01*
X7018439Y-14125484D02*
X7037486Y-14125484D01*
X7037486Y-14125484D02*
X7056534Y-14135008D01*
X7056534Y-14135008D02*
X7066058Y-14144531D01*
X7066058Y-14144531D02*
X7075582Y-14163579D01*
X7075582Y-14163579D02*
X7085105Y-14201674D01*
X7085105Y-14201674D02*
X7085105Y-14249293D01*
X7085105Y-14249293D02*
X7075582Y-14287388D01*
X7075582Y-14287388D02*
X7066058Y-14306436D01*
X7066058Y-14306436D02*
X7056534Y-14315960D01*
X7056534Y-14315960D02*
X7037486Y-14325484D01*
X7037486Y-14325484D02*
X7018439Y-14325484D01*
X7018439Y-14325484D02*
X6999391Y-14315960D01*
X6999391Y-14315960D02*
X6989867Y-14306436D01*
X6989867Y-14306436D02*
X6980343Y-14287388D01*
X6980343Y-14287388D02*
X6970820Y-14249293D01*
X6970820Y-14249293D02*
X6970820Y-14201674D01*
X6970820Y-14201674D02*
X6980343Y-14163579D01*
X6980343Y-14163579D02*
X6989867Y-14144531D01*
X6989867Y-14144531D02*
X6999391Y-14135008D01*
X6999391Y-14135008D02*
X7018439Y-14125484D01*
X7170820Y-14325484D02*
X7170820Y-14192150D01*
X7170820Y-14211198D02*
X7180343Y-14201674D01*
X7180343Y-14201674D02*
X7199391Y-14192150D01*
X7199391Y-14192150D02*
X7227963Y-14192150D01*
X7227963Y-14192150D02*
X7247010Y-14201674D01*
X7247010Y-14201674D02*
X7256534Y-14220722D01*
X7256534Y-14220722D02*
X7256534Y-14325484D01*
X7256534Y-14220722D02*
X7266058Y-14201674D01*
X7266058Y-14201674D02*
X7285105Y-14192150D01*
X7285105Y-14192150D02*
X7313677Y-14192150D01*
X7313677Y-14192150D02*
X7332724Y-14201674D01*
X7332724Y-14201674D02*
X7342248Y-14220722D01*
X7342248Y-14220722D02*
X7342248Y-14325484D01*
X7437486Y-14325484D02*
X7437486Y-14192150D01*
X7437486Y-14211198D02*
X7447010Y-14201674D01*
X7447010Y-14201674D02*
X7466058Y-14192150D01*
X7466058Y-14192150D02*
X7494629Y-14192150D01*
X7494629Y-14192150D02*
X7513677Y-14201674D01*
X7513677Y-14201674D02*
X7523201Y-14220722D01*
X7523201Y-14220722D02*
X7523201Y-14325484D01*
X7523201Y-14220722D02*
X7532724Y-14201674D01*
X7532724Y-14201674D02*
X7551772Y-14192150D01*
X7551772Y-14192150D02*
X7580343Y-14192150D01*
X7580343Y-14192150D02*
X7599391Y-14201674D01*
X7599391Y-14201674D02*
X7608915Y-14220722D01*
X7608915Y-14220722D02*
X7608915Y-14325484D01*
X7999391Y-14115960D02*
X7827963Y-14373103D01*
X8256534Y-14125484D02*
X8275582Y-14125484D01*
X8275582Y-14125484D02*
X8294629Y-14135008D01*
X8294629Y-14135008D02*
X8304153Y-14144531D01*
X8304153Y-14144531D02*
X8313677Y-14163579D01*
X8313677Y-14163579D02*
X8323201Y-14201674D01*
X8323201Y-14201674D02*
X8323201Y-14249293D01*
X8323201Y-14249293D02*
X8313677Y-14287388D01*
X8313677Y-14287388D02*
X8304153Y-14306436D01*
X8304153Y-14306436D02*
X8294629Y-14315960D01*
X8294629Y-14315960D02*
X8275582Y-14325484D01*
X8275582Y-14325484D02*
X8256534Y-14325484D01*
X8256534Y-14325484D02*
X8237486Y-14315960D01*
X8237486Y-14315960D02*
X8227963Y-14306436D01*
X8227963Y-14306436D02*
X8218439Y-14287388D01*
X8218439Y-14287388D02*
X8208915Y-14249293D01*
X8208915Y-14249293D02*
X8208915Y-14201674D01*
X8208915Y-14201674D02*
X8218439Y-14163579D01*
X8218439Y-14163579D02*
X8227963Y-14144531D01*
X8227963Y-14144531D02*
X8237486Y-14135008D01*
X8237486Y-14135008D02*
X8256534Y-14125484D01*
X8408915Y-14306436D02*
X8418439Y-14315960D01*
X8418439Y-14315960D02*
X8408915Y-14325484D01*
X8408915Y-14325484D02*
X8399391Y-14315960D01*
X8399391Y-14315960D02*
X8408915Y-14306436D01*
X8408915Y-14306436D02*
X8408915Y-14325484D01*
X8608915Y-14325484D02*
X8494629Y-14325484D01*
X8551772Y-14325484D02*
X8551772Y-14125484D01*
X8551772Y-14125484D02*
X8532725Y-14154055D01*
X8532725Y-14154055D02*
X8513677Y-14173103D01*
X8513677Y-14173103D02*
X8494629Y-14182627D01*
X8685106Y-14144531D02*
X8694629Y-14135008D01*
X8694629Y-14135008D02*
X8713677Y-14125484D01*
X8713677Y-14125484D02*
X8761296Y-14125484D01*
X8761296Y-14125484D02*
X8780344Y-14135008D01*
X8780344Y-14135008D02*
X8789868Y-14144531D01*
X8789868Y-14144531D02*
X8799391Y-14163579D01*
X8799391Y-14163579D02*
X8799391Y-14182627D01*
X8799391Y-14182627D02*
X8789868Y-14211198D01*
X8789868Y-14211198D02*
X8675582Y-14325484D01*
X8675582Y-14325484D02*
X8799391Y-14325484D01*
X8970820Y-14125484D02*
X8932725Y-14125484D01*
X8932725Y-14125484D02*
X8913677Y-14135008D01*
X8913677Y-14135008D02*
X8904153Y-14144531D01*
X8904153Y-14144531D02*
X8885106Y-14173103D01*
X8885106Y-14173103D02*
X8875582Y-14211198D01*
X8875582Y-14211198D02*
X8875582Y-14287388D01*
X8875582Y-14287388D02*
X8885106Y-14306436D01*
X8885106Y-14306436D02*
X8894629Y-14315960D01*
X8894629Y-14315960D02*
X8913677Y-14325484D01*
X8913677Y-14325484D02*
X8951772Y-14325484D01*
X8951772Y-14325484D02*
X8970820Y-14315960D01*
X8970820Y-14315960D02*
X8980344Y-14306436D01*
X8980344Y-14306436D02*
X8989868Y-14287388D01*
X8989868Y-14287388D02*
X8989868Y-14239769D01*
X8989868Y-14239769D02*
X8980344Y-14220722D01*
X8980344Y-14220722D02*
X8970820Y-14211198D01*
X8970820Y-14211198D02*
X8951772Y-14201674D01*
X8951772Y-14201674D02*
X8913677Y-14201674D01*
X8913677Y-14201674D02*
X8894629Y-14211198D01*
X8894629Y-14211198D02*
X8885106Y-14220722D01*
X8885106Y-14220722D02*
X8875582Y-14239769D01*
X9113677Y-14125484D02*
X9132725Y-14125484D01*
X9132725Y-14125484D02*
X9151772Y-14135008D01*
X9151772Y-14135008D02*
X9161296Y-14144531D01*
X9161296Y-14144531D02*
X9170820Y-14163579D01*
X9170820Y-14163579D02*
X9180344Y-14201674D01*
X9180344Y-14201674D02*
X9180344Y-14249293D01*
X9180344Y-14249293D02*
X9170820Y-14287388D01*
X9170820Y-14287388D02*
X9161296Y-14306436D01*
X9161296Y-14306436D02*
X9151772Y-14315960D01*
X9151772Y-14315960D02*
X9132725Y-14325484D01*
X9132725Y-14325484D02*
X9113677Y-14325484D01*
X9113677Y-14325484D02*
X9094629Y-14315960D01*
X9094629Y-14315960D02*
X9085106Y-14306436D01*
X9085106Y-14306436D02*
X9075582Y-14287388D01*
X9075582Y-14287388D02*
X9066058Y-14249293D01*
X9066058Y-14249293D02*
X9066058Y-14201674D01*
X9066058Y-14201674D02*
X9075582Y-14163579D01*
X9075582Y-14163579D02*
X9085106Y-14144531D01*
X9085106Y-14144531D02*
X9094629Y-14135008D01*
X9094629Y-14135008D02*
X9113677Y-14125484D01*
X9256534Y-14125484D02*
X9256534Y-14163579D01*
X9332725Y-14125484D02*
X9332725Y-14163579D01*
X9627963Y-14401674D02*
X9618439Y-14392150D01*
X9618439Y-14392150D02*
X9599391Y-14363579D01*
X9599391Y-14363579D02*
X9589868Y-14344531D01*
X9589868Y-14344531D02*
X9580344Y-14315960D01*
X9580344Y-14315960D02*
X9570820Y-14268341D01*
X9570820Y-14268341D02*
X9570820Y-14230246D01*
X9570820Y-14230246D02*
X9580344Y-14182627D01*
X9580344Y-14182627D02*
X9589868Y-14154055D01*
X9589868Y-14154055D02*
X9599391Y-14135008D01*
X9599391Y-14135008D02*
X9618439Y-14106436D01*
X9618439Y-14106436D02*
X9627963Y-14096912D01*
X9789868Y-14192150D02*
X9789868Y-14325484D01*
X9742249Y-14115960D02*
X9694630Y-14258817D01*
X9694630Y-14258817D02*
X9818439Y-14258817D01*
X10047011Y-14325484D02*
X10047011Y-14125484D01*
X10132725Y-14325484D02*
X10132725Y-14220722D01*
X10132725Y-14220722D02*
X10123201Y-14201674D01*
X10123201Y-14201674D02*
X10104153Y-14192150D01*
X10104153Y-14192150D02*
X10075582Y-14192150D01*
X10075582Y-14192150D02*
X10056534Y-14201674D01*
X10056534Y-14201674D02*
X10047011Y-14211198D01*
X10256534Y-14325484D02*
X10237487Y-14315960D01*
X10237487Y-14315960D02*
X10227963Y-14306436D01*
X10227963Y-14306436D02*
X10218439Y-14287388D01*
X10218439Y-14287388D02*
X10218439Y-14230246D01*
X10218439Y-14230246D02*
X10227963Y-14211198D01*
X10227963Y-14211198D02*
X10237487Y-14201674D01*
X10237487Y-14201674D02*
X10256534Y-14192150D01*
X10256534Y-14192150D02*
X10285106Y-14192150D01*
X10285106Y-14192150D02*
X10304153Y-14201674D01*
X10304153Y-14201674D02*
X10313677Y-14211198D01*
X10313677Y-14211198D02*
X10323201Y-14230246D01*
X10323201Y-14230246D02*
X10323201Y-14287388D01*
X10323201Y-14287388D02*
X10313677Y-14306436D01*
X10313677Y-14306436D02*
X10304153Y-14315960D01*
X10304153Y-14315960D02*
X10285106Y-14325484D01*
X10285106Y-14325484D02*
X10256534Y-14325484D01*
X10437487Y-14325484D02*
X10418439Y-14315960D01*
X10418439Y-14315960D02*
X10408915Y-14296912D01*
X10408915Y-14296912D02*
X10408915Y-14125484D01*
X10589868Y-14315960D02*
X10570820Y-14325484D01*
X10570820Y-14325484D02*
X10532725Y-14325484D01*
X10532725Y-14325484D02*
X10513677Y-14315960D01*
X10513677Y-14315960D02*
X10504153Y-14296912D01*
X10504153Y-14296912D02*
X10504153Y-14220722D01*
X10504153Y-14220722D02*
X10513677Y-14201674D01*
X10513677Y-14201674D02*
X10532725Y-14192150D01*
X10532725Y-14192150D02*
X10570820Y-14192150D01*
X10570820Y-14192150D02*
X10589868Y-14201674D01*
X10589868Y-14201674D02*
X10599392Y-14220722D01*
X10599392Y-14220722D02*
X10599392Y-14239769D01*
X10599392Y-14239769D02*
X10504153Y-14258817D01*
X10675582Y-14315960D02*
X10694630Y-14325484D01*
X10694630Y-14325484D02*
X10732725Y-14325484D01*
X10732725Y-14325484D02*
X10751773Y-14315960D01*
X10751773Y-14315960D02*
X10761296Y-14296912D01*
X10761296Y-14296912D02*
X10761296Y-14287388D01*
X10761296Y-14287388D02*
X10751773Y-14268341D01*
X10751773Y-14268341D02*
X10732725Y-14258817D01*
X10732725Y-14258817D02*
X10704153Y-14258817D01*
X10704153Y-14258817D02*
X10685106Y-14249293D01*
X10685106Y-14249293D02*
X10675582Y-14230246D01*
X10675582Y-14230246D02*
X10675582Y-14220722D01*
X10675582Y-14220722D02*
X10685106Y-14201674D01*
X10685106Y-14201674D02*
X10704153Y-14192150D01*
X10704153Y-14192150D02*
X10732725Y-14192150D01*
X10732725Y-14192150D02*
X10751773Y-14201674D01*
X10827963Y-14401674D02*
X10837487Y-14392150D01*
X10837487Y-14392150D02*
X10856534Y-14363579D01*
X10856534Y-14363579D02*
X10866058Y-14344531D01*
X10866058Y-14344531D02*
X10875582Y-14315960D01*
X10875582Y-14315960D02*
X10885106Y-14268341D01*
X10885106Y-14268341D02*
X10885106Y-14230246D01*
X10885106Y-14230246D02*
X10875582Y-14182627D01*
X10875582Y-14182627D02*
X10866058Y-14154055D01*
X10866058Y-14154055D02*
X10856534Y-14135008D01*
X10856534Y-14135008D02*
X10837487Y-14106436D01*
X10837487Y-14106436D02*
X10827963Y-14096912D01*
X11189868Y-14401674D02*
X11180344Y-14392150D01*
X11180344Y-14392150D02*
X11161296Y-14363579D01*
X11161296Y-14363579D02*
X11151773Y-14344531D01*
X11151773Y-14344531D02*
X11142249Y-14315960D01*
X11142249Y-14315960D02*
X11132725Y-14268341D01*
X11132725Y-14268341D02*
X11132725Y-14230246D01*
X11132725Y-14230246D02*
X11142249Y-14182627D01*
X11142249Y-14182627D02*
X11151773Y-14154055D01*
X11151773Y-14154055D02*
X11161296Y-14135008D01*
X11161296Y-14135008D02*
X11180344Y-14106436D01*
X11180344Y-14106436D02*
X11189868Y-14096912D01*
X11266058Y-14192150D02*
X11266058Y-14325484D01*
X11266058Y-14211198D02*
X11275582Y-14201674D01*
X11275582Y-14201674D02*
X11294630Y-14192150D01*
X11294630Y-14192150D02*
X11323201Y-14192150D01*
X11323201Y-14192150D02*
X11342249Y-14201674D01*
X11342249Y-14201674D02*
X11351772Y-14220722D01*
X11351772Y-14220722D02*
X11351772Y-14325484D01*
X11475582Y-14325484D02*
X11456534Y-14315960D01*
X11456534Y-14315960D02*
X11447011Y-14306436D01*
X11447011Y-14306436D02*
X11437487Y-14287388D01*
X11437487Y-14287388D02*
X11437487Y-14230246D01*
X11437487Y-14230246D02*
X11447011Y-14211198D01*
X11447011Y-14211198D02*
X11456534Y-14201674D01*
X11456534Y-14201674D02*
X11475582Y-14192150D01*
X11475582Y-14192150D02*
X11504153Y-14192150D01*
X11504153Y-14192150D02*
X11523201Y-14201674D01*
X11523201Y-14201674D02*
X11532725Y-14211198D01*
X11532725Y-14211198D02*
X11542249Y-14230246D01*
X11542249Y-14230246D02*
X11542249Y-14287388D01*
X11542249Y-14287388D02*
X11532725Y-14306436D01*
X11532725Y-14306436D02*
X11523201Y-14315960D01*
X11523201Y-14315960D02*
X11504153Y-14325484D01*
X11504153Y-14325484D02*
X11475582Y-14325484D01*
X11599392Y-14192150D02*
X11675582Y-14192150D01*
X11627963Y-14125484D02*
X11627963Y-14296912D01*
X11627963Y-14296912D02*
X11637487Y-14315960D01*
X11637487Y-14315960D02*
X11656534Y-14325484D01*
X11656534Y-14325484D02*
X11675582Y-14325484D01*
X11894630Y-14192150D02*
X11894630Y-14392150D01*
X11894630Y-14201674D02*
X11913677Y-14192150D01*
X11913677Y-14192150D02*
X11951773Y-14192150D01*
X11951773Y-14192150D02*
X11970820Y-14201674D01*
X11970820Y-14201674D02*
X11980344Y-14211198D01*
X11980344Y-14211198D02*
X11989868Y-14230246D01*
X11989868Y-14230246D02*
X11989868Y-14287388D01*
X11989868Y-14287388D02*
X11980344Y-14306436D01*
X11980344Y-14306436D02*
X11970820Y-14315960D01*
X11970820Y-14315960D02*
X11951773Y-14325484D01*
X11951773Y-14325484D02*
X11913677Y-14325484D01*
X11913677Y-14325484D02*
X11894630Y-14315960D01*
X12104153Y-14325484D02*
X12085106Y-14315960D01*
X12085106Y-14315960D02*
X12075582Y-14296912D01*
X12075582Y-14296912D02*
X12075582Y-14125484D01*
X12266058Y-14325484D02*
X12266058Y-14220722D01*
X12266058Y-14220722D02*
X12256534Y-14201674D01*
X12256534Y-14201674D02*
X12237487Y-14192150D01*
X12237487Y-14192150D02*
X12199392Y-14192150D01*
X12199392Y-14192150D02*
X12180344Y-14201674D01*
X12266058Y-14315960D02*
X12247011Y-14325484D01*
X12247011Y-14325484D02*
X12199392Y-14325484D01*
X12199392Y-14325484D02*
X12180344Y-14315960D01*
X12180344Y-14315960D02*
X12170820Y-14296912D01*
X12170820Y-14296912D02*
X12170820Y-14277865D01*
X12170820Y-14277865D02*
X12180344Y-14258817D01*
X12180344Y-14258817D02*
X12199392Y-14249293D01*
X12199392Y-14249293D02*
X12247011Y-14249293D01*
X12247011Y-14249293D02*
X12266058Y-14239769D01*
X12332725Y-14192150D02*
X12408915Y-14192150D01*
X12361296Y-14125484D02*
X12361296Y-14296912D01*
X12361296Y-14296912D02*
X12370820Y-14315960D01*
X12370820Y-14315960D02*
X12389868Y-14325484D01*
X12389868Y-14325484D02*
X12408915Y-14325484D01*
X12551773Y-14315960D02*
X12532725Y-14325484D01*
X12532725Y-14325484D02*
X12494630Y-14325484D01*
X12494630Y-14325484D02*
X12475582Y-14315960D01*
X12475582Y-14315960D02*
X12466058Y-14296912D01*
X12466058Y-14296912D02*
X12466058Y-14220722D01*
X12466058Y-14220722D02*
X12475582Y-14201674D01*
X12475582Y-14201674D02*
X12494630Y-14192150D01*
X12494630Y-14192150D02*
X12532725Y-14192150D01*
X12532725Y-14192150D02*
X12551773Y-14201674D01*
X12551773Y-14201674D02*
X12561296Y-14220722D01*
X12561296Y-14220722D02*
X12561296Y-14239769D01*
X12561296Y-14239769D02*
X12466058Y-14258817D01*
X12732725Y-14325484D02*
X12732725Y-14125484D01*
X12732725Y-14315960D02*
X12713677Y-14325484D01*
X12713677Y-14325484D02*
X12675582Y-14325484D01*
X12675582Y-14325484D02*
X12656534Y-14315960D01*
X12656534Y-14315960D02*
X12647011Y-14306436D01*
X12647011Y-14306436D02*
X12637487Y-14287388D01*
X12637487Y-14287388D02*
X12637487Y-14230246D01*
X12637487Y-14230246D02*
X12647011Y-14211198D01*
X12647011Y-14211198D02*
X12656534Y-14201674D01*
X12656534Y-14201674D02*
X12675582Y-14192150D01*
X12675582Y-14192150D02*
X12713677Y-14192150D01*
X12713677Y-14192150D02*
X12732725Y-14201674D01*
X12808915Y-14401674D02*
X12818439Y-14392150D01*
X12818439Y-14392150D02*
X12837487Y-14363579D01*
X12837487Y-14363579D02*
X12847011Y-14344531D01*
X12847011Y-14344531D02*
X12856534Y-14315960D01*
X12856534Y-14315960D02*
X12866058Y-14268341D01*
X12866058Y-14268341D02*
X12866058Y-14230246D01*
X12866058Y-14230246D02*
X12856534Y-14182627D01*
X12856534Y-14182627D02*
X12847011Y-14154055D01*
X12847011Y-14154055D02*
X12837487Y-14135008D01*
X12837487Y-14135008D02*
X12818439Y-14106436D01*
X12818439Y-14106436D02*
X12808915Y-14096912D01*
M02*
