%TF.GenerationSoftware,KiCad,Pcbnew,8.0.1*%
%TF.CreationDate,2024-05-10T09:13:11+02:00*%
%TF.ProjectId,MISRC_v2,4d495352-435f-4763-922e-6b696361645f,0.3*%
%TF.SameCoordinates,Original*%
%TF.FileFunction,Drillmap*%
%TF.FilePolarity,Positive*%
%FSLAX45Y45*%
G04 Gerber Fmt 4.5, Leading zero omitted, Abs format (unit mm)*
G04 Created by KiCad (PCBNEW 8.0.1) date 2024-05-10 09:13:11*
%MOMM*%
%LPD*%
G01*
G04 APERTURE LIST*
%ADD10C,0.100000*%
%ADD11C,0.200000*%
%ADD12C,0.130000*%
%ADD13C,0.150000*%
%ADD14C,0.170000*%
%ADD15C,0.345000*%
G04 APERTURE END LIST*
D10*
X20675000Y-14100000D02*
X20675000Y-5800000D01*
X6050000Y-14100000D02*
X20675000Y-14100000D01*
X20675000Y-5800000D02*
X6050000Y-5800000D01*
X6050000Y-5800000D02*
X6050000Y-14100000D01*
D11*
D10*
X12188400Y-8100300D02*
X12218400Y-8130300D01*
X12218400Y-8100300D02*
X12188400Y-8130300D01*
X12189700Y-11542000D02*
X12219700Y-11572000D01*
X12219700Y-11542000D02*
X12189700Y-11572000D01*
X12285501Y-8174694D02*
X12315501Y-8204694D01*
X12315501Y-8174694D02*
X12285501Y-8204694D01*
X12286801Y-11616394D02*
X12316801Y-11646394D01*
X12316801Y-11616394D02*
X12286801Y-11646394D01*
X6306500Y-8940800D02*
G75*
G02*
X6266500Y-8940800I-20000J0D01*
G01*
X6266500Y-8940800D02*
G75*
G02*
X6306500Y-8940800I20000J0D01*
G01*
X6370000Y-7225000D02*
G75*
G02*
X6330000Y-7225000I-20000J0D01*
G01*
X6330000Y-7225000D02*
G75*
G02*
X6370000Y-7225000I20000J0D01*
G01*
X6370000Y-12700000D02*
G75*
G02*
X6330000Y-12700000I-20000J0D01*
G01*
X6330000Y-12700000D02*
G75*
G02*
X6370000Y-12700000I20000J0D01*
G01*
X6475000Y-10155000D02*
G75*
G02*
X6435000Y-10155000I-20000J0D01*
G01*
X6435000Y-10155000D02*
G75*
G02*
X6475000Y-10155000I20000J0D01*
G01*
X6485000Y-9230000D02*
G75*
G02*
X6445000Y-9230000I-20000J0D01*
G01*
X6445000Y-9230000D02*
G75*
G02*
X6485000Y-9230000I20000J0D01*
G01*
X6615000Y-10530000D02*
G75*
G02*
X6575000Y-10530000I-20000J0D01*
G01*
X6575000Y-10530000D02*
G75*
G02*
X6615000Y-10530000I20000J0D01*
G01*
X6730000Y-9055000D02*
G75*
G02*
X6690000Y-9055000I-20000J0D01*
G01*
X6690000Y-9055000D02*
G75*
G02*
X6730000Y-9055000I20000J0D01*
G01*
X6827200Y-10261600D02*
G75*
G02*
X6787200Y-10261600I-20000J0D01*
G01*
X6787200Y-10261600D02*
G75*
G02*
X6827200Y-10261600I20000J0D01*
G01*
X6895000Y-9360000D02*
G75*
G02*
X6855000Y-9360000I-20000J0D01*
G01*
X6855000Y-9360000D02*
G75*
G02*
X6895000Y-9360000I20000J0D01*
G01*
X6920000Y-6725000D02*
G75*
G02*
X6880000Y-6725000I-20000J0D01*
G01*
X6880000Y-6725000D02*
G75*
G02*
X6920000Y-6725000I20000J0D01*
G01*
X6985000Y-10630000D02*
G75*
G02*
X6945000Y-10630000I-20000J0D01*
G01*
X6945000Y-10630000D02*
G75*
G02*
X6985000Y-10630000I20000J0D01*
G01*
X7070000Y-13350000D02*
G75*
G02*
X7030000Y-13350000I-20000J0D01*
G01*
X7030000Y-13350000D02*
G75*
G02*
X7070000Y-13350000I20000J0D01*
G01*
X7093900Y-12979400D02*
G75*
G02*
X7053900Y-12979400I-20000J0D01*
G01*
X7053900Y-12979400D02*
G75*
G02*
X7093900Y-12979400I20000J0D01*
G01*
X7095000Y-6300000D02*
G75*
G02*
X7055000Y-6300000I-20000J0D01*
G01*
X7055000Y-6300000D02*
G75*
G02*
X7095000Y-6300000I20000J0D01*
G01*
X7220900Y-9994900D02*
G75*
G02*
X7180900Y-9994900I-20000J0D01*
G01*
X7180900Y-9994900D02*
G75*
G02*
X7220900Y-9994900I20000J0D01*
G01*
X7295000Y-10850000D02*
G75*
G02*
X7255000Y-10850000I-20000J0D01*
G01*
X7255000Y-10850000D02*
G75*
G02*
X7295000Y-10850000I20000J0D01*
G01*
X7495000Y-11050000D02*
G75*
G02*
X7455000Y-11050000I-20000J0D01*
G01*
X7455000Y-11050000D02*
G75*
G02*
X7495000Y-11050000I20000J0D01*
G01*
X7495000Y-12850000D02*
G75*
G02*
X7455000Y-12850000I-20000J0D01*
G01*
X7455000Y-12850000D02*
G75*
G02*
X7495000Y-12850000I20000J0D01*
G01*
X7545000Y-6250000D02*
G75*
G02*
X7505000Y-6250000I-20000J0D01*
G01*
X7505000Y-6250000D02*
G75*
G02*
X7545000Y-6250000I20000J0D01*
G01*
X7595000Y-8025000D02*
G75*
G02*
X7555000Y-8025000I-20000J0D01*
G01*
X7555000Y-8025000D02*
G75*
G02*
X7595000Y-8025000I20000J0D01*
G01*
X7695000Y-10120000D02*
G75*
G02*
X7655000Y-10120000I-20000J0D01*
G01*
X7655000Y-10120000D02*
G75*
G02*
X7695000Y-10120000I20000J0D01*
G01*
X7695000Y-10390000D02*
G75*
G02*
X7655000Y-10390000I-20000J0D01*
G01*
X7655000Y-10390000D02*
G75*
G02*
X7695000Y-10390000I20000J0D01*
G01*
X7720000Y-7200000D02*
G75*
G02*
X7680000Y-7200000I-20000J0D01*
G01*
X7680000Y-7200000D02*
G75*
G02*
X7720000Y-7200000I20000J0D01*
G01*
X7795000Y-6600000D02*
G75*
G02*
X7755000Y-6600000I-20000J0D01*
G01*
X7755000Y-6600000D02*
G75*
G02*
X7795000Y-6600000I20000J0D01*
G01*
X7800000Y-13135000D02*
G75*
G02*
X7760000Y-13135000I-20000J0D01*
G01*
X7760000Y-13135000D02*
G75*
G02*
X7800000Y-13135000I20000J0D01*
G01*
X7957500Y-6794500D02*
G75*
G02*
X7917500Y-6794500I-20000J0D01*
G01*
X7917500Y-6794500D02*
G75*
G02*
X7957500Y-6794500I20000J0D01*
G01*
X7970000Y-8175000D02*
G75*
G02*
X7930000Y-8175000I-20000J0D01*
G01*
X7930000Y-8175000D02*
G75*
G02*
X7970000Y-8175000I20000J0D01*
G01*
X8173400Y-13005000D02*
G75*
G02*
X8133400Y-13005000I-20000J0D01*
G01*
X8133400Y-13005000D02*
G75*
G02*
X8173400Y-13005000I20000J0D01*
G01*
X8211500Y-6946900D02*
G75*
G02*
X8171500Y-6946900I-20000J0D01*
G01*
X8171500Y-6946900D02*
G75*
G02*
X8211500Y-6946900I20000J0D01*
G01*
X8275000Y-6553200D02*
G75*
G02*
X8235000Y-6553200I-20000J0D01*
G01*
X8235000Y-6553200D02*
G75*
G02*
X8275000Y-6553200I20000J0D01*
G01*
X8300400Y-10312400D02*
G75*
G02*
X8260400Y-10312400I-20000J0D01*
G01*
X8260400Y-10312400D02*
G75*
G02*
X8300400Y-10312400I20000J0D01*
G01*
X8313100Y-9639300D02*
G75*
G02*
X8273100Y-9639300I-20000J0D01*
G01*
X8273100Y-9639300D02*
G75*
G02*
X8313100Y-9639300I20000J0D01*
G01*
X8320000Y-12200000D02*
G75*
G02*
X8280000Y-12200000I-20000J0D01*
G01*
X8280000Y-12200000D02*
G75*
G02*
X8320000Y-12200000I20000J0D01*
G01*
X8351200Y-7315200D02*
G75*
G02*
X8311200Y-7315200I-20000J0D01*
G01*
X8311200Y-7315200D02*
G75*
G02*
X8351200Y-7315200I20000J0D01*
G01*
X8363900Y-11328400D02*
G75*
G02*
X8323900Y-11328400I-20000J0D01*
G01*
X8323900Y-11328400D02*
G75*
G02*
X8363900Y-11328400I20000J0D01*
G01*
X8376600Y-10769600D02*
G75*
G02*
X8336600Y-10769600I-20000J0D01*
G01*
X8336600Y-10769600D02*
G75*
G02*
X8376600Y-10769600I20000J0D01*
G01*
X8420000Y-7725000D02*
G75*
G02*
X8380000Y-7725000I-20000J0D01*
G01*
X8380000Y-7725000D02*
G75*
G02*
X8420000Y-7725000I20000J0D01*
G01*
X8478200Y-11684000D02*
G75*
G02*
X8438200Y-11684000I-20000J0D01*
G01*
X8438200Y-11684000D02*
G75*
G02*
X8478200Y-11684000I20000J0D01*
G01*
X8490900Y-8826500D02*
G75*
G02*
X8450900Y-8826500I-20000J0D01*
G01*
X8450900Y-8826500D02*
G75*
G02*
X8490900Y-8826500I20000J0D01*
G01*
X8541700Y-8132300D02*
G75*
G02*
X8501700Y-8132300I-20000J0D01*
G01*
X8501700Y-8132300D02*
G75*
G02*
X8541700Y-8132300I20000J0D01*
G01*
X8545000Y-13625000D02*
G75*
G02*
X8505000Y-13625000I-20000J0D01*
G01*
X8505000Y-13625000D02*
G75*
G02*
X8545000Y-13625000I20000J0D01*
G01*
X8732200Y-9982200D02*
G75*
G02*
X8692200Y-9982200I-20000J0D01*
G01*
X8692200Y-9982200D02*
G75*
G02*
X8732200Y-9982200I20000J0D01*
G01*
X8783000Y-12979400D02*
G75*
G02*
X8743000Y-12979400I-20000J0D01*
G01*
X8743000Y-12979400D02*
G75*
G02*
X8783000Y-12979400I20000J0D01*
G01*
X8795700Y-10833100D02*
G75*
G02*
X8755700Y-10833100I-20000J0D01*
G01*
X8755700Y-10833100D02*
G75*
G02*
X8795700Y-10833100I20000J0D01*
G01*
X8795700Y-11290300D02*
G75*
G02*
X8755700Y-11290300I-20000J0D01*
G01*
X8755700Y-11290300D02*
G75*
G02*
X8795700Y-11290300I20000J0D01*
G01*
X8833800Y-12090400D02*
G75*
G02*
X8793800Y-12090400I-20000J0D01*
G01*
X8793800Y-12090400D02*
G75*
G02*
X8833800Y-12090400I20000J0D01*
G01*
X8855000Y-13235000D02*
G75*
G02*
X8815000Y-13235000I-20000J0D01*
G01*
X8815000Y-13235000D02*
G75*
G02*
X8855000Y-13235000I20000J0D01*
G01*
X8871900Y-8242300D02*
G75*
G02*
X8831900Y-8242300I-20000J0D01*
G01*
X8831900Y-8242300D02*
G75*
G02*
X8871900Y-8242300I20000J0D01*
G01*
X8884600Y-12395200D02*
G75*
G02*
X8844600Y-12395200I-20000J0D01*
G01*
X8844600Y-12395200D02*
G75*
G02*
X8884600Y-12395200I20000J0D01*
G01*
X8910000Y-11696700D02*
G75*
G02*
X8870000Y-11696700I-20000J0D01*
G01*
X8870000Y-11696700D02*
G75*
G02*
X8910000Y-11696700I20000J0D01*
G01*
X9024300Y-6489700D02*
G75*
G02*
X8984300Y-6489700I-20000J0D01*
G01*
X8984300Y-6489700D02*
G75*
G02*
X9024300Y-6489700I20000J0D01*
G01*
X9024300Y-7848600D02*
G75*
G02*
X8984300Y-7848600I-20000J0D01*
G01*
X8984300Y-7848600D02*
G75*
G02*
X9024300Y-7848600I20000J0D01*
G01*
X9037000Y-7440000D02*
G75*
G02*
X8997000Y-7440000I-20000J0D01*
G01*
X8997000Y-7440000D02*
G75*
G02*
X9037000Y-7440000I20000J0D01*
G01*
X9037000Y-12077700D02*
G75*
G02*
X8997000Y-12077700I-20000J0D01*
G01*
X8997000Y-12077700D02*
G75*
G02*
X9037000Y-12077700I20000J0D01*
G01*
X9278300Y-11684000D02*
G75*
G02*
X9238300Y-11684000I-20000J0D01*
G01*
X9238300Y-11684000D02*
G75*
G02*
X9278300Y-11684000I20000J0D01*
G01*
X9341800Y-8318500D02*
G75*
G02*
X9301800Y-8318500I-20000J0D01*
G01*
X9301800Y-8318500D02*
G75*
G02*
X9341800Y-8318500I20000J0D01*
G01*
X9341800Y-12039600D02*
G75*
G02*
X9301800Y-12039600I-20000J0D01*
G01*
X9301800Y-12039600D02*
G75*
G02*
X9341800Y-12039600I20000J0D01*
G01*
X9367200Y-10020300D02*
G75*
G02*
X9327200Y-10020300I-20000J0D01*
G01*
X9327200Y-10020300D02*
G75*
G02*
X9367200Y-10020300I20000J0D01*
G01*
X9418000Y-7987800D02*
G75*
G02*
X9378000Y-7987800I-20000J0D01*
G01*
X9378000Y-7987800D02*
G75*
G02*
X9418000Y-7987800I20000J0D01*
G01*
X9418000Y-11417300D02*
G75*
G02*
X9378000Y-11417300I-20000J0D01*
G01*
X9378000Y-11417300D02*
G75*
G02*
X9418000Y-11417300I20000J0D01*
G01*
X9445000Y-13900000D02*
G75*
G02*
X9405000Y-13900000I-20000J0D01*
G01*
X9405000Y-13900000D02*
G75*
G02*
X9445000Y-13900000I20000J0D01*
G01*
X9468800Y-9258300D02*
G75*
G02*
X9428800Y-9258300I-20000J0D01*
G01*
X9428800Y-9258300D02*
G75*
G02*
X9468800Y-9258300I20000J0D01*
G01*
X9481500Y-9677400D02*
G75*
G02*
X9441500Y-9677400I-20000J0D01*
G01*
X9441500Y-9677400D02*
G75*
G02*
X9481500Y-9677400I20000J0D01*
G01*
X9494200Y-12814300D02*
G75*
G02*
X9454200Y-12814300I-20000J0D01*
G01*
X9454200Y-12814300D02*
G75*
G02*
X9494200Y-12814300I20000J0D01*
G01*
X9500000Y-13235000D02*
G75*
G02*
X9460000Y-13235000I-20000J0D01*
G01*
X9460000Y-13235000D02*
G75*
G02*
X9500000Y-13235000I20000J0D01*
G01*
X9557700Y-7594600D02*
G75*
G02*
X9517700Y-7594600I-20000J0D01*
G01*
X9517700Y-7594600D02*
G75*
G02*
X9557700Y-7594600I20000J0D01*
G01*
X9583100Y-11061700D02*
G75*
G02*
X9543100Y-11061700I-20000J0D01*
G01*
X9543100Y-11061700D02*
G75*
G02*
X9583100Y-11061700I20000J0D01*
G01*
X9583100Y-11252200D02*
G75*
G02*
X9543100Y-11252200I-20000J0D01*
G01*
X9543100Y-11252200D02*
G75*
G02*
X9583100Y-11252200I20000J0D01*
G01*
X9595800Y-9474200D02*
G75*
G02*
X9555800Y-9474200I-20000J0D01*
G01*
X9555800Y-9474200D02*
G75*
G02*
X9595800Y-9474200I20000J0D01*
G01*
X9595800Y-10629900D02*
G75*
G02*
X9555800Y-10629900I-20000J0D01*
G01*
X9555800Y-10629900D02*
G75*
G02*
X9595800Y-10629900I20000J0D01*
G01*
X9608500Y-11569700D02*
G75*
G02*
X9568500Y-11569700I-20000J0D01*
G01*
X9568500Y-11569700D02*
G75*
G02*
X9608500Y-11569700I20000J0D01*
G01*
X9621200Y-8140700D02*
G75*
G02*
X9581200Y-8140700I-20000J0D01*
G01*
X9581200Y-8140700D02*
G75*
G02*
X9621200Y-8140700I20000J0D01*
G01*
X9770000Y-10250000D02*
G75*
G02*
X9730000Y-10250000I-20000J0D01*
G01*
X9730000Y-10250000D02*
G75*
G02*
X9770000Y-10250000I20000J0D01*
G01*
X9785000Y-6840000D02*
G75*
G02*
X9745000Y-6840000I-20000J0D01*
G01*
X9745000Y-6840000D02*
G75*
G02*
X9785000Y-6840000I20000J0D01*
G01*
X9785000Y-7175000D02*
G75*
G02*
X9745000Y-7175000I-20000J0D01*
G01*
X9745000Y-7175000D02*
G75*
G02*
X9785000Y-7175000I20000J0D01*
G01*
X9795000Y-6175000D02*
G75*
G02*
X9755000Y-6175000I-20000J0D01*
G01*
X9755000Y-6175000D02*
G75*
G02*
X9795000Y-6175000I20000J0D01*
G01*
X9819320Y-10530840D02*
G75*
G02*
X9779320Y-10530840I-20000J0D01*
G01*
X9779320Y-10530840D02*
G75*
G02*
X9819320Y-10530840I20000J0D01*
G01*
X9887900Y-8293100D02*
G75*
G02*
X9847900Y-8293100I-20000J0D01*
G01*
X9847900Y-8293100D02*
G75*
G02*
X9887900Y-8293100I20000J0D01*
G01*
X9887900Y-11722100D02*
G75*
G02*
X9847900Y-11722100I-20000J0D01*
G01*
X9847900Y-11722100D02*
G75*
G02*
X9887900Y-11722100I20000J0D01*
G01*
X9913300Y-12496800D02*
G75*
G02*
X9873300Y-12496800I-20000J0D01*
G01*
X9873300Y-12496800D02*
G75*
G02*
X9913300Y-12496800I20000J0D01*
G01*
X9926000Y-9982200D02*
G75*
G02*
X9886000Y-9982200I-20000J0D01*
G01*
X9886000Y-9982200D02*
G75*
G02*
X9926000Y-9982200I20000J0D01*
G01*
X9938700Y-9067800D02*
G75*
G02*
X9898700Y-9067800I-20000J0D01*
G01*
X9898700Y-9067800D02*
G75*
G02*
X9938700Y-9067800I20000J0D01*
G01*
X9938700Y-12928600D02*
G75*
G02*
X9898700Y-12928600I-20000J0D01*
G01*
X9898700Y-12928600D02*
G75*
G02*
X9938700Y-12928600I20000J0D01*
G01*
X10205400Y-11798300D02*
G75*
G02*
X10165400Y-11798300I-20000J0D01*
G01*
X10165400Y-11798300D02*
G75*
G02*
X10205400Y-11798300I20000J0D01*
G01*
X10294300Y-8343900D02*
G75*
G02*
X10254300Y-8343900I-20000J0D01*
G01*
X10254300Y-8343900D02*
G75*
G02*
X10294300Y-8343900I20000J0D01*
G01*
X10390000Y-8490000D02*
G75*
G02*
X10350000Y-8490000I-20000J0D01*
G01*
X10350000Y-8490000D02*
G75*
G02*
X10390000Y-8490000I20000J0D01*
G01*
X10420000Y-13600000D02*
G75*
G02*
X10380000Y-13600000I-20000J0D01*
G01*
X10380000Y-13600000D02*
G75*
G02*
X10420000Y-13600000I20000J0D01*
G01*
X10449240Y-9062720D02*
G75*
G02*
X10409240Y-9062720I-20000J0D01*
G01*
X10409240Y-9062720D02*
G75*
G02*
X10449240Y-9062720I20000J0D01*
G01*
X10548300Y-11963400D02*
G75*
G02*
X10508300Y-11963400I-20000J0D01*
G01*
X10508300Y-11963400D02*
G75*
G02*
X10548300Y-11963400I20000J0D01*
G01*
X10561000Y-11811000D02*
G75*
G02*
X10521000Y-11811000I-20000J0D01*
G01*
X10521000Y-11811000D02*
G75*
G02*
X10561000Y-11811000I20000J0D01*
G01*
X10573700Y-10248900D02*
G75*
G02*
X10533700Y-10248900I-20000J0D01*
G01*
X10533700Y-10248900D02*
G75*
G02*
X10573700Y-10248900I20000J0D01*
G01*
X10611800Y-8331200D02*
G75*
G02*
X10571800Y-8331200I-20000J0D01*
G01*
X10571800Y-8331200D02*
G75*
G02*
X10611800Y-8331200I20000J0D01*
G01*
X10649900Y-8801100D02*
G75*
G02*
X10609900Y-8801100I-20000J0D01*
G01*
X10609900Y-8801100D02*
G75*
G02*
X10649900Y-8801100I20000J0D01*
G01*
X10675300Y-6489700D02*
G75*
G02*
X10635300Y-6489700I-20000J0D01*
G01*
X10635300Y-6489700D02*
G75*
G02*
X10675300Y-6489700I20000J0D01*
G01*
X10789600Y-7874000D02*
G75*
G02*
X10749600Y-7874000I-20000J0D01*
G01*
X10749600Y-7874000D02*
G75*
G02*
X10789600Y-7874000I20000J0D01*
G01*
X10903900Y-10274300D02*
G75*
G02*
X10863900Y-10274300I-20000J0D01*
G01*
X10863900Y-10274300D02*
G75*
G02*
X10903900Y-10274300I20000J0D01*
G01*
X10903900Y-10388600D02*
G75*
G02*
X10863900Y-10388600I-20000J0D01*
G01*
X10863900Y-10388600D02*
G75*
G02*
X10903900Y-10388600I20000J0D01*
G01*
X10942000Y-8724900D02*
G75*
G02*
X10902000Y-8724900I-20000J0D01*
G01*
X10902000Y-8724900D02*
G75*
G02*
X10942000Y-8724900I20000J0D01*
G01*
X10942000Y-9486900D02*
G75*
G02*
X10902000Y-9486900I-20000J0D01*
G01*
X10902000Y-9486900D02*
G75*
G02*
X10942000Y-9486900I20000J0D01*
G01*
X10982640Y-8895080D02*
G75*
G02*
X10942640Y-8895080I-20000J0D01*
G01*
X10942640Y-8895080D02*
G75*
G02*
X10982640Y-8895080I20000J0D01*
G01*
X11005500Y-10274300D02*
G75*
G02*
X10965500Y-10274300I-20000J0D01*
G01*
X10965500Y-10274300D02*
G75*
G02*
X11005500Y-10274300I20000J0D01*
G01*
X11005500Y-10388600D02*
G75*
G02*
X10965500Y-10388600I-20000J0D01*
G01*
X10965500Y-10388600D02*
G75*
G02*
X11005500Y-10388600I20000J0D01*
G01*
X11013120Y-12857480D02*
G75*
G02*
X10973120Y-12857480I-20000J0D01*
G01*
X10973120Y-12857480D02*
G75*
G02*
X11013120Y-12857480I20000J0D01*
G01*
X11069000Y-11010900D02*
G75*
G02*
X11029000Y-11010900I-20000J0D01*
G01*
X11029000Y-11010900D02*
G75*
G02*
X11069000Y-11010900I20000J0D01*
G01*
X11107100Y-10274300D02*
G75*
G02*
X11067100Y-10274300I-20000J0D01*
G01*
X11067100Y-10274300D02*
G75*
G02*
X11107100Y-10274300I20000J0D01*
G01*
X11107100Y-10388600D02*
G75*
G02*
X11067100Y-10388600I-20000J0D01*
G01*
X11067100Y-10388600D02*
G75*
G02*
X11107100Y-10388600I20000J0D01*
G01*
X11110000Y-13235000D02*
G75*
G02*
X11070000Y-13235000I-20000J0D01*
G01*
X11070000Y-13235000D02*
G75*
G02*
X11110000Y-13235000I20000J0D01*
G01*
X11129960Y-12506960D02*
G75*
G02*
X11089960Y-12506960I-20000J0D01*
G01*
X11089960Y-12506960D02*
G75*
G02*
X11129960Y-12506960I20000J0D01*
G01*
X11132500Y-8851900D02*
G75*
G02*
X11092500Y-8851900I-20000J0D01*
G01*
X11092500Y-8851900D02*
G75*
G02*
X11132500Y-8851900I20000J0D01*
G01*
X11150000Y-7245000D02*
G75*
G02*
X11110000Y-7245000I-20000J0D01*
G01*
X11110000Y-7245000D02*
G75*
G02*
X11150000Y-7245000I20000J0D01*
G01*
X11195000Y-6830000D02*
G75*
G02*
X11155000Y-6830000I-20000J0D01*
G01*
X11155000Y-6830000D02*
G75*
G02*
X11195000Y-6830000I20000J0D01*
G01*
X11211240Y-9291320D02*
G75*
G02*
X11171240Y-9291320I-20000J0D01*
G01*
X11171240Y-9291320D02*
G75*
G02*
X11211240Y-9291320I20000J0D01*
G01*
X11221400Y-8976360D02*
G75*
G02*
X11181400Y-8976360I-20000J0D01*
G01*
X11181400Y-8976360D02*
G75*
G02*
X11221400Y-8976360I20000J0D01*
G01*
X11470000Y-13875000D02*
G75*
G02*
X11430000Y-13875000I-20000J0D01*
G01*
X11430000Y-13875000D02*
G75*
G02*
X11470000Y-13875000I20000J0D01*
G01*
X11475000Y-10010000D02*
G75*
G02*
X11435000Y-10010000I-20000J0D01*
G01*
X11435000Y-10010000D02*
G75*
G02*
X11475000Y-10010000I20000J0D01*
G01*
X11475400Y-12242800D02*
G75*
G02*
X11435400Y-12242800I-20000J0D01*
G01*
X11435400Y-12242800D02*
G75*
G02*
X11475400Y-12242800I20000J0D01*
G01*
X11488100Y-8724900D02*
G75*
G02*
X11448100Y-8724900I-20000J0D01*
G01*
X11448100Y-8724900D02*
G75*
G02*
X11488100Y-8724900I20000J0D01*
G01*
X11520000Y-8950000D02*
G75*
G02*
X11480000Y-8950000I-20000J0D01*
G01*
X11480000Y-8950000D02*
G75*
G02*
X11520000Y-8950000I20000J0D01*
G01*
X11780200Y-10274300D02*
G75*
G02*
X11740200Y-10274300I-20000J0D01*
G01*
X11740200Y-10274300D02*
G75*
G02*
X11780200Y-10274300I20000J0D01*
G01*
X11790360Y-9525000D02*
G75*
G02*
X11750360Y-9525000I-20000J0D01*
G01*
X11750360Y-9525000D02*
G75*
G02*
X11790360Y-9525000I20000J0D01*
G01*
X11795000Y-6200000D02*
G75*
G02*
X11755000Y-6200000I-20000J0D01*
G01*
X11755000Y-6200000D02*
G75*
G02*
X11795000Y-6200000I20000J0D01*
G01*
X11795440Y-9773920D02*
G75*
G02*
X11755440Y-9773920I-20000J0D01*
G01*
X11755440Y-9773920D02*
G75*
G02*
X11795440Y-9773920I20000J0D01*
G01*
X11805600Y-9067800D02*
G75*
G02*
X11765600Y-9067800I-20000J0D01*
G01*
X11765600Y-9067800D02*
G75*
G02*
X11805600Y-9067800I20000J0D01*
G01*
X11932600Y-10572500D02*
G75*
G02*
X11892600Y-10572500I-20000J0D01*
G01*
X11892600Y-10572500D02*
G75*
G02*
X11932600Y-10572500I20000J0D01*
G01*
X11945300Y-7581900D02*
G75*
G02*
X11905300Y-7581900I-20000J0D01*
G01*
X11905300Y-7581900D02*
G75*
G02*
X11945300Y-7581900I20000J0D01*
G01*
X11945300Y-12230100D02*
G75*
G02*
X11905300Y-12230100I-20000J0D01*
G01*
X11905300Y-12230100D02*
G75*
G02*
X11945300Y-12230100I20000J0D01*
G01*
X11996100Y-8915400D02*
G75*
G02*
X11956100Y-8915400I-20000J0D01*
G01*
X11956100Y-8915400D02*
G75*
G02*
X11996100Y-8915400I20000J0D01*
G01*
X12065000Y-13235000D02*
G75*
G02*
X12025000Y-13235000I-20000J0D01*
G01*
X12025000Y-13235000D02*
G75*
G02*
X12065000Y-13235000I20000J0D01*
G01*
X12105000Y-7165000D02*
G75*
G02*
X12065000Y-7165000I-20000J0D01*
G01*
X12065000Y-7165000D02*
G75*
G02*
X12105000Y-7165000I20000J0D01*
G01*
X12110400Y-10033000D02*
G75*
G02*
X12070400Y-10033000I-20000J0D01*
G01*
X12070400Y-10033000D02*
G75*
G02*
X12110400Y-10033000I20000J0D01*
G01*
X12123100Y-10731500D02*
G75*
G02*
X12083100Y-10731500I-20000J0D01*
G01*
X12083100Y-10731500D02*
G75*
G02*
X12123100Y-10731500I20000J0D01*
G01*
X12222160Y-12857480D02*
G75*
G02*
X12182160Y-12857480I-20000J0D01*
G01*
X12182160Y-12857480D02*
G75*
G02*
X12222160Y-12857480I20000J0D01*
G01*
X12237400Y-12522200D02*
G75*
G02*
X12197400Y-12522200I-20000J0D01*
G01*
X12197400Y-12522200D02*
G75*
G02*
X12237400Y-12522200I20000J0D01*
G01*
X12325000Y-7723950D02*
G75*
G02*
X12285000Y-7723950I-20000J0D01*
G01*
X12285000Y-7723950D02*
G75*
G02*
X12325000Y-7723950I20000J0D01*
G01*
X12326300Y-11165650D02*
G75*
G02*
X12286300Y-11165650I-20000J0D01*
G01*
X12286300Y-11165650D02*
G75*
G02*
X12326300Y-11165650I20000J0D01*
G01*
X12339000Y-8826500D02*
G75*
G02*
X12299000Y-8826500I-20000J0D01*
G01*
X12299000Y-8826500D02*
G75*
G02*
X12339000Y-8826500I20000J0D01*
G01*
X12351700Y-10274300D02*
G75*
G02*
X12311700Y-10274300I-20000J0D01*
G01*
X12311700Y-10274300D02*
G75*
G02*
X12351700Y-10274300I20000J0D01*
G01*
X12402500Y-12242800D02*
G75*
G02*
X12362500Y-12242800I-20000J0D01*
G01*
X12362500Y-12242800D02*
G75*
G02*
X12402500Y-12242800I20000J0D01*
G01*
X12455000Y-13240000D02*
G75*
G02*
X12415000Y-13240000I-20000J0D01*
G01*
X12415000Y-13240000D02*
G75*
G02*
X12455000Y-13240000I20000J0D01*
G01*
X12515500Y-7277100D02*
G75*
G02*
X12475500Y-7277100I-20000J0D01*
G01*
X12475500Y-7277100D02*
G75*
G02*
X12515500Y-7277100I20000J0D01*
G01*
X12516800Y-10718800D02*
G75*
G02*
X12476800Y-10718800I-20000J0D01*
G01*
X12476800Y-10718800D02*
G75*
G02*
X12516800Y-10718800I20000J0D01*
G01*
X12545000Y-13550000D02*
G75*
G02*
X12505000Y-13550000I-20000J0D01*
G01*
X12505000Y-13550000D02*
G75*
G02*
X12545000Y-13550000I20000J0D01*
G01*
X12567600Y-12480000D02*
G75*
G02*
X12527600Y-12480000I-20000J0D01*
G01*
X12527600Y-12480000D02*
G75*
G02*
X12567600Y-12480000I20000J0D01*
G01*
X12572680Y-12923520D02*
G75*
G02*
X12532680Y-12923520I-20000J0D01*
G01*
X12532680Y-12923520D02*
G75*
G02*
X12572680Y-12923520I20000J0D01*
G01*
X12642500Y-8064500D02*
G75*
G02*
X12602500Y-8064500I-20000J0D01*
G01*
X12602500Y-8064500D02*
G75*
G02*
X12642500Y-8064500I20000J0D01*
G01*
X12643800Y-11506200D02*
G75*
G02*
X12603800Y-11506200I-20000J0D01*
G01*
X12603800Y-11506200D02*
G75*
G02*
X12643800Y-11506200I20000J0D01*
G01*
X12669200Y-10706100D02*
G75*
G02*
X12629200Y-10706100I-20000J0D01*
G01*
X12629200Y-10706100D02*
G75*
G02*
X12669200Y-10706100I20000J0D01*
G01*
X12707300Y-12179300D02*
G75*
G02*
X12667300Y-12179300I-20000J0D01*
G01*
X12667300Y-12179300D02*
G75*
G02*
X12707300Y-12179300I20000J0D01*
G01*
X12720000Y-10325000D02*
G75*
G02*
X12680000Y-10325000I-20000J0D01*
G01*
X12680000Y-10325000D02*
G75*
G02*
X12720000Y-10325000I20000J0D01*
G01*
X12796200Y-9931400D02*
G75*
G02*
X12756200Y-9931400I-20000J0D01*
G01*
X12756200Y-9931400D02*
G75*
G02*
X12796200Y-9931400I20000J0D01*
G01*
X12838400Y-8195600D02*
G75*
G02*
X12798400Y-8195600I-20000J0D01*
G01*
X12798400Y-8195600D02*
G75*
G02*
X12838400Y-8195600I20000J0D01*
G01*
X12838400Y-11637300D02*
G75*
G02*
X12798400Y-11637300I-20000J0D01*
G01*
X12798400Y-11637300D02*
G75*
G02*
X12838400Y-11637300I20000J0D01*
G01*
X12857160Y-12928600D02*
G75*
G02*
X12817160Y-12928600I-20000J0D01*
G01*
X12817160Y-12928600D02*
G75*
G02*
X12857160Y-12928600I20000J0D01*
G01*
X12859700Y-8699500D02*
G75*
G02*
X12819700Y-8699500I-20000J0D01*
G01*
X12819700Y-8699500D02*
G75*
G02*
X12859700Y-8699500I20000J0D01*
G01*
X12859700Y-12001500D02*
G75*
G02*
X12819700Y-12001500I-20000J0D01*
G01*
X12819700Y-12001500D02*
G75*
G02*
X12859700Y-12001500I20000J0D01*
G01*
X12872400Y-12179300D02*
G75*
G02*
X12832400Y-12179300I-20000J0D01*
G01*
X12832400Y-12179300D02*
G75*
G02*
X12872400Y-12179300I20000J0D01*
G01*
X12880000Y-6845000D02*
G75*
G02*
X12840000Y-6845000I-20000J0D01*
G01*
X12840000Y-6845000D02*
G75*
G02*
X12880000Y-6845000I20000J0D01*
G01*
X12890000Y-9000000D02*
G75*
G02*
X12850000Y-9000000I-20000J0D01*
G01*
X12850000Y-9000000D02*
G75*
G02*
X12890000Y-9000000I20000J0D01*
G01*
X12895000Y-6375000D02*
G75*
G02*
X12855000Y-6375000I-20000J0D01*
G01*
X12855000Y-6375000D02*
G75*
G02*
X12895000Y-6375000I20000J0D01*
G01*
X12999400Y-8890000D02*
G75*
G02*
X12959400Y-8890000I-20000J0D01*
G01*
X12959400Y-8890000D02*
G75*
G02*
X12999400Y-8890000I20000J0D01*
G01*
X12999400Y-13240000D02*
G75*
G02*
X12959400Y-13240000I-20000J0D01*
G01*
X12959400Y-13240000D02*
G75*
G02*
X12999400Y-13240000I20000J0D01*
G01*
X13004480Y-12532360D02*
G75*
G02*
X12964480Y-12532360I-20000J0D01*
G01*
X12964480Y-12532360D02*
G75*
G02*
X13004480Y-12532360I20000J0D01*
G01*
X13012100Y-7289800D02*
G75*
G02*
X12972100Y-7289800I-20000J0D01*
G01*
X12972100Y-7289800D02*
G75*
G02*
X13012100Y-7289800I20000J0D01*
G01*
X13097751Y-10145493D02*
G75*
G02*
X13057751Y-10145493I-20000J0D01*
G01*
X13057751Y-10145493D02*
G75*
G02*
X13097751Y-10145493I20000J0D01*
G01*
X13101000Y-9639300D02*
G75*
G02*
X13061000Y-9639300I-20000J0D01*
G01*
X13061000Y-9639300D02*
G75*
G02*
X13101000Y-9639300I20000J0D01*
G01*
X13113700Y-9359900D02*
G75*
G02*
X13073700Y-9359900I-20000J0D01*
G01*
X13073700Y-9359900D02*
G75*
G02*
X13113700Y-9359900I20000J0D01*
G01*
X13113700Y-10350500D02*
G75*
G02*
X13073700Y-10350500I-20000J0D01*
G01*
X13073700Y-10350500D02*
G75*
G02*
X13113700Y-10350500I20000J0D01*
G01*
X13126400Y-10553700D02*
G75*
G02*
X13086400Y-10553700I-20000J0D01*
G01*
X13086400Y-10553700D02*
G75*
G02*
X13126400Y-10553700I20000J0D01*
G01*
X13164500Y-11116262D02*
G75*
G02*
X13124500Y-11116262I-20000J0D01*
G01*
X13124500Y-11116262D02*
G75*
G02*
X13164500Y-11116262I20000J0D01*
G01*
X13240700Y-11607800D02*
G75*
G02*
X13200700Y-11607800I-20000J0D01*
G01*
X13200700Y-11607800D02*
G75*
G02*
X13240700Y-11607800I20000J0D01*
G01*
X13266100Y-8153400D02*
G75*
G02*
X13226100Y-8153400I-20000J0D01*
G01*
X13226100Y-8153400D02*
G75*
G02*
X13266100Y-8153400I20000J0D01*
G01*
X13680000Y-10375000D02*
G75*
G02*
X13640000Y-10375000I-20000J0D01*
G01*
X13640000Y-10375000D02*
G75*
G02*
X13680000Y-10375000I20000J0D01*
G01*
X13680000Y-10510000D02*
G75*
G02*
X13640000Y-10510000I-20000J0D01*
G01*
X13640000Y-10510000D02*
G75*
G02*
X13680000Y-10510000I20000J0D01*
G01*
X13720000Y-13900000D02*
G75*
G02*
X13680000Y-13900000I-20000J0D01*
G01*
X13680000Y-13900000D02*
G75*
G02*
X13720000Y-13900000I20000J0D01*
G01*
X13812200Y-12153900D02*
G75*
G02*
X13772200Y-12153900I-20000J0D01*
G01*
X13772200Y-12153900D02*
G75*
G02*
X13812200Y-12153900I20000J0D01*
G01*
X13837600Y-6451600D02*
G75*
G02*
X13797600Y-6451600I-20000J0D01*
G01*
X13797600Y-6451600D02*
G75*
G02*
X13837600Y-6451600I20000J0D01*
G01*
X13840000Y-10470000D02*
G75*
G02*
X13800000Y-10470000I-20000J0D01*
G01*
X13800000Y-10470000D02*
G75*
G02*
X13840000Y-10470000I20000J0D01*
G01*
X14005000Y-10480000D02*
G75*
G02*
X13965000Y-10480000I-20000J0D01*
G01*
X13965000Y-10480000D02*
G75*
G02*
X14005000Y-10480000I20000J0D01*
G01*
X14142400Y-7945120D02*
G75*
G02*
X14102400Y-7945120I-20000J0D01*
G01*
X14102400Y-7945120D02*
G75*
G02*
X14142400Y-7945120I20000J0D01*
G01*
X14180500Y-11976100D02*
G75*
G02*
X14140500Y-11976100I-20000J0D01*
G01*
X14140500Y-11976100D02*
G75*
G02*
X14180500Y-11976100I20000J0D01*
G01*
X14193200Y-9258300D02*
G75*
G02*
X14153200Y-9258300I-20000J0D01*
G01*
X14153200Y-9258300D02*
G75*
G02*
X14193200Y-9258300I20000J0D01*
G01*
X14193200Y-11760200D02*
G75*
G02*
X14153200Y-11760200I-20000J0D01*
G01*
X14153200Y-11760200D02*
G75*
G02*
X14193200Y-11760200I20000J0D01*
G01*
X14193200Y-12522200D02*
G75*
G02*
X14153200Y-12522200I-20000J0D01*
G01*
X14153200Y-12522200D02*
G75*
G02*
X14193200Y-12522200I20000J0D01*
G01*
X14220000Y-12940000D02*
G75*
G02*
X14180000Y-12940000I-20000J0D01*
G01*
X14180000Y-12940000D02*
G75*
G02*
X14220000Y-12940000I20000J0D01*
G01*
X14223680Y-6517640D02*
G75*
G02*
X14183680Y-6517640I-20000J0D01*
G01*
X14183680Y-6517640D02*
G75*
G02*
X14223680Y-6517640I20000J0D01*
G01*
X14231300Y-8966200D02*
G75*
G02*
X14191300Y-8966200I-20000J0D01*
G01*
X14191300Y-8966200D02*
G75*
G02*
X14231300Y-8966200I20000J0D01*
G01*
X14250000Y-11115000D02*
G75*
G02*
X14210000Y-11115000I-20000J0D01*
G01*
X14210000Y-11115000D02*
G75*
G02*
X14250000Y-11115000I20000J0D01*
G01*
X14250000Y-11255000D02*
G75*
G02*
X14210000Y-11255000I-20000J0D01*
G01*
X14210000Y-11255000D02*
G75*
G02*
X14250000Y-11255000I20000J0D01*
G01*
X14260000Y-10810000D02*
G75*
G02*
X14220000Y-10810000I-20000J0D01*
G01*
X14220000Y-10810000D02*
G75*
G02*
X14260000Y-10810000I20000J0D01*
G01*
X14269400Y-8534400D02*
G75*
G02*
X14229400Y-8534400I-20000J0D01*
G01*
X14229400Y-8534400D02*
G75*
G02*
X14269400Y-8534400I20000J0D01*
G01*
X14315120Y-8233400D02*
G75*
G02*
X14275120Y-8233400I-20000J0D01*
G01*
X14275120Y-8233400D02*
G75*
G02*
X14315120Y-8233400I20000J0D01*
G01*
X14332900Y-7010400D02*
G75*
G02*
X14292900Y-7010400I-20000J0D01*
G01*
X14292900Y-7010400D02*
G75*
G02*
X14332900Y-7010400I20000J0D01*
G01*
X14345600Y-8402320D02*
G75*
G02*
X14305600Y-8402320I-20000J0D01*
G01*
X14305600Y-8402320D02*
G75*
G02*
X14345600Y-8402320I20000J0D01*
G01*
X14360000Y-12140000D02*
G75*
G02*
X14320000Y-12140000I-20000J0D01*
G01*
X14320000Y-12140000D02*
G75*
G02*
X14360000Y-12140000I20000J0D01*
G01*
X14415000Y-12530000D02*
G75*
G02*
X14375000Y-12530000I-20000J0D01*
G01*
X14375000Y-12530000D02*
G75*
G02*
X14415000Y-12530000I20000J0D01*
G01*
X14450000Y-13245000D02*
G75*
G02*
X14410000Y-13245000I-20000J0D01*
G01*
X14410000Y-13245000D02*
G75*
G02*
X14450000Y-13245000I20000J0D01*
G01*
X14462440Y-8935720D02*
G75*
G02*
X14422440Y-8935720I-20000J0D01*
G01*
X14422440Y-8935720D02*
G75*
G02*
X14462440Y-8935720I20000J0D01*
G01*
X14465000Y-9180000D02*
G75*
G02*
X14425000Y-9180000I-20000J0D01*
G01*
X14425000Y-9180000D02*
G75*
G02*
X14465000Y-9180000I20000J0D01*
G01*
X14465000Y-11495000D02*
G75*
G02*
X14425000Y-11495000I-20000J0D01*
G01*
X14425000Y-11495000D02*
G75*
G02*
X14465000Y-11495000I20000J0D01*
G01*
X14472600Y-11734800D02*
G75*
G02*
X14432600Y-11734800I-20000J0D01*
G01*
X14432600Y-11734800D02*
G75*
G02*
X14472600Y-11734800I20000J0D01*
G01*
X14472600Y-11976100D02*
G75*
G02*
X14432600Y-11976100I-20000J0D01*
G01*
X14432600Y-11976100D02*
G75*
G02*
X14472600Y-11976100I20000J0D01*
G01*
X14500000Y-9330000D02*
G75*
G02*
X14460000Y-9330000I-20000J0D01*
G01*
X14460000Y-9330000D02*
G75*
G02*
X14500000Y-9330000I20000J0D01*
G01*
X14510700Y-6642100D02*
G75*
G02*
X14470700Y-6642100I-20000J0D01*
G01*
X14470700Y-6642100D02*
G75*
G02*
X14510700Y-6642100I20000J0D01*
G01*
X14510700Y-11125200D02*
G75*
G02*
X14470700Y-11125200I-20000J0D01*
G01*
X14470700Y-11125200D02*
G75*
G02*
X14510700Y-11125200I20000J0D01*
G01*
X14553880Y-8336280D02*
G75*
G02*
X14513880Y-8336280I-20000J0D01*
G01*
X14513880Y-8336280D02*
G75*
G02*
X14553880Y-8336280I20000J0D01*
G01*
X14599600Y-12915900D02*
G75*
G02*
X14559600Y-12915900I-20000J0D01*
G01*
X14559600Y-12915900D02*
G75*
G02*
X14599600Y-12915900I20000J0D01*
G01*
X14635000Y-11435000D02*
G75*
G02*
X14595000Y-11435000I-20000J0D01*
G01*
X14595000Y-11435000D02*
G75*
G02*
X14635000Y-11435000I20000J0D01*
G01*
X14637700Y-11607800D02*
G75*
G02*
X14597700Y-11607800I-20000J0D01*
G01*
X14597700Y-11607800D02*
G75*
G02*
X14637700Y-11607800I20000J0D01*
G01*
X14637700Y-12522200D02*
G75*
G02*
X14597700Y-12522200I-20000J0D01*
G01*
X14597700Y-12522200D02*
G75*
G02*
X14637700Y-12522200I20000J0D01*
G01*
X14663100Y-8061960D02*
G75*
G02*
X14623100Y-8061960I-20000J0D01*
G01*
X14623100Y-8061960D02*
G75*
G02*
X14663100Y-8061960I20000J0D01*
G01*
X14665000Y-9665000D02*
G75*
G02*
X14625000Y-9665000I-20000J0D01*
G01*
X14625000Y-9665000D02*
G75*
G02*
X14665000Y-9665000I20000J0D01*
G01*
X14695000Y-9960000D02*
G75*
G02*
X14655000Y-9960000I-20000J0D01*
G01*
X14655000Y-9960000D02*
G75*
G02*
X14695000Y-9960000I20000J0D01*
G01*
X14730000Y-10570000D02*
G75*
G02*
X14690000Y-10570000I-20000J0D01*
G01*
X14690000Y-10570000D02*
G75*
G02*
X14730000Y-10570000I20000J0D01*
G01*
X14755000Y-10735000D02*
G75*
G02*
X14715000Y-10735000I-20000J0D01*
G01*
X14715000Y-10735000D02*
G75*
G02*
X14755000Y-10735000I20000J0D01*
G01*
X14770000Y-13575000D02*
G75*
G02*
X14730000Y-13575000I-20000J0D01*
G01*
X14730000Y-13575000D02*
G75*
G02*
X14770000Y-13575000I20000J0D01*
G01*
X14980000Y-9935000D02*
G75*
G02*
X14940000Y-9935000I-20000J0D01*
G01*
X14940000Y-9935000D02*
G75*
G02*
X14980000Y-9935000I20000J0D01*
G01*
X14990000Y-10120000D02*
G75*
G02*
X14950000Y-10120000I-20000J0D01*
G01*
X14950000Y-10120000D02*
G75*
G02*
X14990000Y-10120000I20000J0D01*
G01*
X15044100Y-6769100D02*
G75*
G02*
X15004100Y-6769100I-20000J0D01*
G01*
X15004100Y-6769100D02*
G75*
G02*
X15044100Y-6769100I20000J0D01*
G01*
X15120000Y-10180000D02*
G75*
G02*
X15080000Y-10180000I-20000J0D01*
G01*
X15080000Y-10180000D02*
G75*
G02*
X15120000Y-10180000I20000J0D01*
G01*
X15120000Y-12150000D02*
G75*
G02*
X15080000Y-12150000I-20000J0D01*
G01*
X15080000Y-12150000D02*
G75*
G02*
X15120000Y-12150000I20000J0D01*
G01*
X15133000Y-12522200D02*
G75*
G02*
X15093000Y-12522200I-20000J0D01*
G01*
X15093000Y-12522200D02*
G75*
G02*
X15133000Y-12522200I20000J0D01*
G01*
X15153320Y-7889240D02*
G75*
G02*
X15113320Y-7889240I-20000J0D01*
G01*
X15113320Y-7889240D02*
G75*
G02*
X15153320Y-7889240I20000J0D01*
G01*
X15195000Y-10050000D02*
G75*
G02*
X15155000Y-10050000I-20000J0D01*
G01*
X15155000Y-10050000D02*
G75*
G02*
X15195000Y-10050000I20000J0D01*
G01*
X15387000Y-6743700D02*
G75*
G02*
X15347000Y-6743700I-20000J0D01*
G01*
X15347000Y-6743700D02*
G75*
G02*
X15387000Y-6743700I20000J0D01*
G01*
X15395000Y-12820000D02*
G75*
G02*
X15355000Y-12820000I-20000J0D01*
G01*
X15355000Y-12820000D02*
G75*
G02*
X15395000Y-12820000I20000J0D01*
G01*
X15580000Y-11215000D02*
G75*
G02*
X15540000Y-11215000I-20000J0D01*
G01*
X15540000Y-11215000D02*
G75*
G02*
X15580000Y-11215000I20000J0D01*
G01*
X15666400Y-6438900D02*
G75*
G02*
X15626400Y-6438900I-20000J0D01*
G01*
X15626400Y-6438900D02*
G75*
G02*
X15666400Y-6438900I20000J0D01*
G01*
X15695000Y-13900000D02*
G75*
G02*
X15655000Y-13900000I-20000J0D01*
G01*
X15655000Y-13900000D02*
G75*
G02*
X15695000Y-13900000I20000J0D01*
G01*
X15717200Y-7251700D02*
G75*
G02*
X15677200Y-7251700I-20000J0D01*
G01*
X15677200Y-7251700D02*
G75*
G02*
X15717200Y-7251700I20000J0D01*
G01*
X15735000Y-11650000D02*
G75*
G02*
X15695000Y-11650000I-20000J0D01*
G01*
X15695000Y-11650000D02*
G75*
G02*
X15735000Y-11650000I20000J0D01*
G01*
X16187100Y-6794500D02*
G75*
G02*
X16147100Y-6794500I-20000J0D01*
G01*
X16147100Y-6794500D02*
G75*
G02*
X16187100Y-6794500I20000J0D01*
G01*
X16395000Y-13575000D02*
G75*
G02*
X16355000Y-13575000I-20000J0D01*
G01*
X16355000Y-13575000D02*
G75*
G02*
X16395000Y-13575000I20000J0D01*
G01*
X16441100Y-11925300D02*
G75*
G02*
X16401100Y-11925300I-20000J0D01*
G01*
X16401100Y-11925300D02*
G75*
G02*
X16441100Y-11925300I20000J0D01*
G01*
X16460000Y-9190000D02*
G75*
G02*
X16420000Y-9190000I-20000J0D01*
G01*
X16420000Y-9190000D02*
G75*
G02*
X16460000Y-9190000I20000J0D01*
G01*
X16460000Y-10395000D02*
G75*
G02*
X16420000Y-10395000I-20000J0D01*
G01*
X16420000Y-10395000D02*
G75*
G02*
X16460000Y-10395000I20000J0D01*
G01*
X16465000Y-11575000D02*
G75*
G02*
X16425000Y-11575000I-20000J0D01*
G01*
X16425000Y-11575000D02*
G75*
G02*
X16465000Y-11575000I20000J0D01*
G01*
X16480000Y-10710000D02*
G75*
G02*
X16440000Y-10710000I-20000J0D01*
G01*
X16440000Y-10710000D02*
G75*
G02*
X16480000Y-10710000I20000J0D01*
G01*
X16485000Y-11045000D02*
G75*
G02*
X16445000Y-11045000I-20000J0D01*
G01*
X16445000Y-11045000D02*
G75*
G02*
X16485000Y-11045000I20000J0D01*
G01*
X16495000Y-9910000D02*
G75*
G02*
X16455000Y-9910000I-20000J0D01*
G01*
X16455000Y-9910000D02*
G75*
G02*
X16495000Y-9910000I20000J0D01*
G01*
X16530000Y-7607300D02*
G75*
G02*
X16490000Y-7607300I-20000J0D01*
G01*
X16490000Y-7607300D02*
G75*
G02*
X16530000Y-7607300I20000J0D01*
G01*
X16606200Y-8712200D02*
G75*
G02*
X16566200Y-8712200I-20000J0D01*
G01*
X16566200Y-8712200D02*
G75*
G02*
X16606200Y-8712200I20000J0D01*
G01*
X16618900Y-8153400D02*
G75*
G02*
X16578900Y-8153400I-20000J0D01*
G01*
X16578900Y-8153400D02*
G75*
G02*
X16618900Y-8153400I20000J0D01*
G01*
X16630000Y-11390000D02*
G75*
G02*
X16590000Y-11390000I-20000J0D01*
G01*
X16590000Y-11390000D02*
G75*
G02*
X16630000Y-11390000I20000J0D01*
G01*
X16631600Y-7239000D02*
G75*
G02*
X16591600Y-7239000I-20000J0D01*
G01*
X16591600Y-7239000D02*
G75*
G02*
X16631600Y-7239000I20000J0D01*
G01*
X16682400Y-6756400D02*
G75*
G02*
X16642400Y-6756400I-20000J0D01*
G01*
X16642400Y-6756400D02*
G75*
G02*
X16682400Y-6756400I20000J0D01*
G01*
X16815000Y-8175000D02*
G75*
G02*
X16775000Y-8175000I-20000J0D01*
G01*
X16775000Y-8175000D02*
G75*
G02*
X16815000Y-8175000I20000J0D01*
G01*
X16872900Y-12166600D02*
G75*
G02*
X16832900Y-12166600I-20000J0D01*
G01*
X16832900Y-12166600D02*
G75*
G02*
X16872900Y-12166600I20000J0D01*
G01*
X16898300Y-6438900D02*
G75*
G02*
X16858300Y-6438900I-20000J0D01*
G01*
X16858300Y-6438900D02*
G75*
G02*
X16898300Y-6438900I20000J0D01*
G01*
X16987200Y-7467600D02*
G75*
G02*
X16947200Y-7467600I-20000J0D01*
G01*
X16947200Y-7467600D02*
G75*
G02*
X16987200Y-7467600I20000J0D01*
G01*
X16999900Y-9118600D02*
G75*
G02*
X16959900Y-9118600I-20000J0D01*
G01*
X16959900Y-9118600D02*
G75*
G02*
X16999900Y-9118600I20000J0D01*
G01*
X17015000Y-10305000D02*
G75*
G02*
X16975000Y-10305000I-20000J0D01*
G01*
X16975000Y-10305000D02*
G75*
G02*
X17015000Y-10305000I20000J0D01*
G01*
X17025000Y-10690000D02*
G75*
G02*
X16985000Y-10690000I-20000J0D01*
G01*
X16985000Y-10690000D02*
G75*
G02*
X17025000Y-10690000I20000J0D01*
G01*
X17030000Y-11320000D02*
G75*
G02*
X16990000Y-11320000I-20000J0D01*
G01*
X16990000Y-11320000D02*
G75*
G02*
X17030000Y-11320000I20000J0D01*
G01*
X17063400Y-6946900D02*
G75*
G02*
X17023400Y-6946900I-20000J0D01*
G01*
X17023400Y-6946900D02*
G75*
G02*
X17063400Y-6946900I20000J0D01*
G01*
X17063400Y-7683500D02*
G75*
G02*
X17023400Y-7683500I-20000J0D01*
G01*
X17023400Y-7683500D02*
G75*
G02*
X17063400Y-7683500I20000J0D01*
G01*
X17241200Y-11607800D02*
G75*
G02*
X17201200Y-11607800I-20000J0D01*
G01*
X17201200Y-11607800D02*
G75*
G02*
X17241200Y-11607800I20000J0D01*
G01*
X17245000Y-13825000D02*
G75*
G02*
X17205000Y-13825000I-20000J0D01*
G01*
X17205000Y-13825000D02*
G75*
G02*
X17245000Y-13825000I20000J0D01*
G01*
X17250000Y-11005000D02*
G75*
G02*
X17210000Y-11005000I-20000J0D01*
G01*
X17210000Y-11005000D02*
G75*
G02*
X17250000Y-11005000I20000J0D01*
G01*
X17419000Y-10769600D02*
G75*
G02*
X17379000Y-10769600I-20000J0D01*
G01*
X17379000Y-10769600D02*
G75*
G02*
X17419000Y-10769600I20000J0D01*
G01*
X17421800Y-9068100D02*
G75*
G02*
X17381800Y-9068100I-20000J0D01*
G01*
X17381800Y-9068100D02*
G75*
G02*
X17421800Y-9068100I20000J0D01*
G01*
X17444400Y-12090400D02*
G75*
G02*
X17404400Y-12090400I-20000J0D01*
G01*
X17404400Y-12090400D02*
G75*
G02*
X17444400Y-12090400I20000J0D01*
G01*
X17482500Y-11861800D02*
G75*
G02*
X17442500Y-11861800I-20000J0D01*
G01*
X17442500Y-11861800D02*
G75*
G02*
X17482500Y-11861800I20000J0D01*
G01*
X17495000Y-11320000D02*
G75*
G02*
X17455000Y-11320000I-20000J0D01*
G01*
X17455000Y-11320000D02*
G75*
G02*
X17495000Y-11320000I20000J0D01*
G01*
X17596800Y-6794500D02*
G75*
G02*
X17556800Y-6794500I-20000J0D01*
G01*
X17556800Y-6794500D02*
G75*
G02*
X17596800Y-6794500I20000J0D01*
G01*
X17596800Y-7099300D02*
G75*
G02*
X17556800Y-7099300I-20000J0D01*
G01*
X17556800Y-7099300D02*
G75*
G02*
X17596800Y-7099300I20000J0D01*
G01*
X17634900Y-10287000D02*
G75*
G02*
X17594900Y-10287000I-20000J0D01*
G01*
X17594900Y-10287000D02*
G75*
G02*
X17634900Y-10287000I20000J0D01*
G01*
X17634900Y-11976100D02*
G75*
G02*
X17594900Y-11976100I-20000J0D01*
G01*
X17594900Y-11976100D02*
G75*
G02*
X17634900Y-11976100I20000J0D01*
G01*
X17736500Y-8750300D02*
G75*
G02*
X17696500Y-8750300I-20000J0D01*
G01*
X17696500Y-8750300D02*
G75*
G02*
X17736500Y-8750300I20000J0D01*
G01*
X17749200Y-7886700D02*
G75*
G02*
X17709200Y-7886700I-20000J0D01*
G01*
X17709200Y-7886700D02*
G75*
G02*
X17749200Y-7886700I20000J0D01*
G01*
X17965100Y-8420100D02*
G75*
G02*
X17925100Y-8420100I-20000J0D01*
G01*
X17925100Y-8420100D02*
G75*
G02*
X17965100Y-8420100I20000J0D01*
G01*
X18025000Y-11330000D02*
G75*
G02*
X17985000Y-11330000I-20000J0D01*
G01*
X17985000Y-11330000D02*
G75*
G02*
X18025000Y-11330000I20000J0D01*
G01*
X18028600Y-10782300D02*
G75*
G02*
X17988600Y-10782300I-20000J0D01*
G01*
X17988600Y-10782300D02*
G75*
G02*
X18028600Y-10782300I20000J0D01*
G01*
X18030000Y-12125000D02*
G75*
G02*
X17990000Y-12125000I-20000J0D01*
G01*
X17990000Y-12125000D02*
G75*
G02*
X18030000Y-12125000I20000J0D01*
G01*
X18066700Y-9105900D02*
G75*
G02*
X18026700Y-9105900I-20000J0D01*
G01*
X18026700Y-9105900D02*
G75*
G02*
X18066700Y-9105900I20000J0D01*
G01*
X18250000Y-10410000D02*
G75*
G02*
X18210000Y-10410000I-20000J0D01*
G01*
X18210000Y-10410000D02*
G75*
G02*
X18250000Y-10410000I20000J0D01*
G01*
X18257200Y-6781800D02*
G75*
G02*
X18217200Y-6781800I-20000J0D01*
G01*
X18217200Y-6781800D02*
G75*
G02*
X18257200Y-6781800I20000J0D01*
G01*
X18320700Y-11125200D02*
G75*
G02*
X18280700Y-11125200I-20000J0D01*
G01*
X18280700Y-11125200D02*
G75*
G02*
X18320700Y-11125200I20000J0D01*
G01*
X18365000Y-11500000D02*
G75*
G02*
X18325000Y-11500000I-20000J0D01*
G01*
X18325000Y-11500000D02*
G75*
G02*
X18365000Y-11500000I20000J0D01*
G01*
X18435000Y-10730000D02*
G75*
G02*
X18395000Y-10730000I-20000J0D01*
G01*
X18395000Y-10730000D02*
G75*
G02*
X18435000Y-10730000I20000J0D01*
G01*
X18498500Y-7785100D02*
G75*
G02*
X18458500Y-7785100I-20000J0D01*
G01*
X18458500Y-7785100D02*
G75*
G02*
X18498500Y-7785100I20000J0D01*
G01*
X18523900Y-9105900D02*
G75*
G02*
X18483900Y-9105900I-20000J0D01*
G01*
X18483900Y-9105900D02*
G75*
G02*
X18523900Y-9105900I20000J0D01*
G01*
X18536600Y-6426200D02*
G75*
G02*
X18496600Y-6426200I-20000J0D01*
G01*
X18496600Y-6426200D02*
G75*
G02*
X18536600Y-6426200I20000J0D01*
G01*
X18570000Y-11865000D02*
G75*
G02*
X18530000Y-11865000I-20000J0D01*
G01*
X18530000Y-11865000D02*
G75*
G02*
X18570000Y-11865000I20000J0D01*
G01*
X18575000Y-11170000D02*
G75*
G02*
X18535000Y-11170000I-20000J0D01*
G01*
X18535000Y-11170000D02*
G75*
G02*
X18575000Y-11170000I20000J0D01*
G01*
X18625500Y-7086600D02*
G75*
G02*
X18585500Y-7086600I-20000J0D01*
G01*
X18585500Y-7086600D02*
G75*
G02*
X18625500Y-7086600I20000J0D01*
G01*
X18625500Y-10248900D02*
G75*
G02*
X18585500Y-10248900I-20000J0D01*
G01*
X18585500Y-10248900D02*
G75*
G02*
X18625500Y-10248900I20000J0D01*
G01*
X18640000Y-11420000D02*
G75*
G02*
X18600000Y-11420000I-20000J0D01*
G01*
X18600000Y-11420000D02*
G75*
G02*
X18640000Y-11420000I20000J0D01*
G01*
X18803300Y-7823200D02*
G75*
G02*
X18763300Y-7823200I-20000J0D01*
G01*
X18763300Y-7823200D02*
G75*
G02*
X18803300Y-7823200I20000J0D01*
G01*
X18841400Y-8610600D02*
G75*
G02*
X18801400Y-8610600I-20000J0D01*
G01*
X18801400Y-8610600D02*
G75*
G02*
X18841400Y-8610600I20000J0D01*
G01*
X18879500Y-7581900D02*
G75*
G02*
X18839500Y-7581900I-20000J0D01*
G01*
X18839500Y-7581900D02*
G75*
G02*
X18879500Y-7581900I20000J0D01*
G01*
X18930300Y-6794500D02*
G75*
G02*
X18890300Y-6794500I-20000J0D01*
G01*
X18890300Y-6794500D02*
G75*
G02*
X18930300Y-6794500I20000J0D01*
G01*
X19019200Y-8026400D02*
G75*
G02*
X18979200Y-8026400I-20000J0D01*
G01*
X18979200Y-8026400D02*
G75*
G02*
X19019200Y-8026400I20000J0D01*
G01*
X19044600Y-7391400D02*
G75*
G02*
X19004600Y-7391400I-20000J0D01*
G01*
X19004600Y-7391400D02*
G75*
G02*
X19044600Y-7391400I20000J0D01*
G01*
X19178368Y-7694617D02*
G75*
G02*
X19138368Y-7694617I-20000J0D01*
G01*
X19138368Y-7694617D02*
G75*
G02*
X19178368Y-7694617I20000J0D01*
G01*
X19209700Y-7099300D02*
G75*
G02*
X19169700Y-7099300I-20000J0D01*
G01*
X19169700Y-7099300D02*
G75*
G02*
X19209700Y-7099300I20000J0D01*
G01*
X19247800Y-8305800D02*
G75*
G02*
X19207800Y-8305800I-20000J0D01*
G01*
X19207800Y-8305800D02*
G75*
G02*
X19247800Y-8305800I20000J0D01*
G01*
X19298600Y-6756400D02*
G75*
G02*
X19258600Y-6756400I-20000J0D01*
G01*
X19258600Y-6756400D02*
G75*
G02*
X19298600Y-6756400I20000J0D01*
G01*
X19412900Y-8026400D02*
G75*
G02*
X19372900Y-8026400I-20000J0D01*
G01*
X19372900Y-8026400D02*
G75*
G02*
X19412900Y-8026400I20000J0D01*
G01*
X19425600Y-6451600D02*
G75*
G02*
X19385600Y-6451600I-20000J0D01*
G01*
X19385600Y-6451600D02*
G75*
G02*
X19425600Y-6451600I20000J0D01*
G01*
X19438300Y-13449300D02*
G75*
G02*
X19398300Y-13449300I-20000J0D01*
G01*
X19398300Y-13449300D02*
G75*
G02*
X19438300Y-13449300I20000J0D01*
G01*
X19628800Y-7035800D02*
G75*
G02*
X19588800Y-7035800I-20000J0D01*
G01*
X19588800Y-7035800D02*
G75*
G02*
X19628800Y-7035800I20000J0D01*
G01*
X19730400Y-13144500D02*
G75*
G02*
X19690400Y-13144500I-20000J0D01*
G01*
X19690400Y-13144500D02*
G75*
G02*
X19730400Y-13144500I20000J0D01*
G01*
X19857400Y-6451600D02*
G75*
G02*
X19817400Y-6451600I-20000J0D01*
G01*
X19817400Y-6451600D02*
G75*
G02*
X19857400Y-6451600I20000J0D01*
G01*
X19882800Y-7327900D02*
G75*
G02*
X19842800Y-7327900I-20000J0D01*
G01*
X19842800Y-7327900D02*
G75*
G02*
X19882800Y-7327900I20000J0D01*
G01*
X19882800Y-13436600D02*
G75*
G02*
X19842800Y-13436600I-20000J0D01*
G01*
X19842800Y-13436600D02*
G75*
G02*
X19882800Y-13436600I20000J0D01*
G01*
X19933600Y-7670800D02*
G75*
G02*
X19893600Y-7670800I-20000J0D01*
G01*
X19893600Y-7670800D02*
G75*
G02*
X19933600Y-7670800I20000J0D01*
G01*
X19946300Y-7924800D02*
G75*
G02*
X19906300Y-7924800I-20000J0D01*
G01*
X19906300Y-7924800D02*
G75*
G02*
X19946300Y-7924800I20000J0D01*
G01*
X19959000Y-12928600D02*
G75*
G02*
X19919000Y-12928600I-20000J0D01*
G01*
X19919000Y-12928600D02*
G75*
G02*
X19959000Y-12928600I20000J0D01*
G01*
X20111400Y-12750800D02*
G75*
G02*
X20071400Y-12750800I-20000J0D01*
G01*
X20071400Y-12750800D02*
G75*
G02*
X20111400Y-12750800I20000J0D01*
G01*
X20543200Y-12839700D02*
G75*
G02*
X20503200Y-12839700I-20000J0D01*
G01*
X20503200Y-12839700D02*
G75*
G02*
X20543200Y-12839700I20000J0D01*
G01*
X20555900Y-12382500D02*
G75*
G02*
X20515900Y-12382500I-20000J0D01*
G01*
X20515900Y-12382500D02*
G75*
G02*
X20555900Y-12382500I20000J0D01*
G01*
X16941800Y-9436500D02*
X16941800Y-9486500D01*
X16916800Y-9461500D02*
X16966800Y-9461500D01*
X18046700Y-9436500D02*
X18046700Y-9486500D01*
X18021700Y-9461500D02*
X18071700Y-9461500D01*
X18249900Y-7188600D02*
X18249900Y-7238600D01*
X18224900Y-7213600D02*
X18274900Y-7213600D01*
X7768284Y-9055285D02*
X7768284Y-8998716D01*
X7711715Y-8998716D01*
X7711715Y-9055285D01*
X7768284Y-9055285D01*
X7768284Y-9563285D02*
X7768284Y-9506716D01*
X7711715Y-9506716D01*
X7711715Y-9563285D01*
X7768284Y-9563285D01*
X7975784Y-12380784D02*
X7975784Y-12324215D01*
X7919215Y-12324215D01*
X7919215Y-12380784D01*
X7975784Y-12380784D01*
X7975784Y-12888784D02*
X7975784Y-12832215D01*
X7919215Y-12832215D01*
X7919215Y-12888784D01*
X7975784Y-12888784D01*
X8022284Y-9309285D02*
X8022284Y-9252716D01*
X7965715Y-9252716D01*
X7965715Y-9309285D01*
X8022284Y-9309285D01*
X8229784Y-12634784D02*
X8229784Y-12578215D01*
X8173215Y-12578215D01*
X8173215Y-12634784D01*
X8229784Y-12634784D01*
X16754184Y-11864684D02*
X16754184Y-11808115D01*
X16697615Y-11808115D01*
X16697615Y-11864684D01*
X16754184Y-11864684D01*
X17039185Y-10086685D02*
X17039185Y-10030116D01*
X16982616Y-10030116D01*
X16982616Y-10086685D01*
X17039185Y-10086685D01*
X17104185Y-11864684D02*
X17104185Y-11808115D01*
X17047616Y-11808115D01*
X17047616Y-11864684D01*
X17104185Y-11864684D01*
X17252285Y-8308384D02*
X17252285Y-8251815D01*
X17195716Y-8251815D01*
X17195716Y-8308384D01*
X17252285Y-8308384D01*
X17389185Y-10086685D02*
X17389185Y-10030116D01*
X17332616Y-10030116D01*
X17332616Y-10086685D01*
X17389185Y-10086685D01*
X17602285Y-8308384D02*
X17602285Y-8251815D01*
X17545716Y-8251815D01*
X17545716Y-8308384D01*
X17602285Y-8308384D01*
X17833685Y-11864684D02*
X17833685Y-11808115D01*
X17777116Y-11808115D01*
X17777116Y-11864684D01*
X17833685Y-11864684D01*
X18100385Y-10086685D02*
X18100385Y-10030116D01*
X18043816Y-10030116D01*
X18043816Y-10086685D01*
X18100385Y-10086685D01*
X18183685Y-11864684D02*
X18183685Y-11808115D01*
X18127116Y-11808115D01*
X18127116Y-11864684D01*
X18183685Y-11864684D01*
X18334750Y-8308684D02*
X18334750Y-8252115D01*
X18278181Y-8252115D01*
X18278181Y-8308684D01*
X18334750Y-8308684D01*
X18450385Y-10086685D02*
X18450385Y-10030116D01*
X18393816Y-10030116D01*
X18393816Y-10086685D01*
X18450385Y-10086685D01*
X18684750Y-8308684D02*
X18684750Y-8252115D01*
X18628181Y-8252115D01*
X18628181Y-8308684D01*
X18684750Y-8308684D01*
X19274550Y-7521284D02*
X19274550Y-7464715D01*
X19217981Y-7464715D01*
X19217981Y-7521284D01*
X19274550Y-7521284D01*
X19624550Y-7521284D02*
X19624550Y-7464715D01*
X19567981Y-7464715D01*
X19567981Y-7521284D01*
X19624550Y-7521284D01*
X6841000Y-12724000D02*
X6891000Y-12674000D01*
X6841000Y-12624000D01*
X6791000Y-12674000D01*
X6841000Y-12724000D01*
X6871000Y-7274000D02*
X6921000Y-7224000D01*
X6871000Y-7174000D01*
X6821000Y-7224000D01*
X6871000Y-7274000D01*
X13335000Y-9016200D02*
X13385000Y-8966200D01*
X13335000Y-8916200D01*
X13285000Y-8966200D01*
X13335000Y-9016200D01*
X13335000Y-9270200D02*
X13385000Y-9220200D01*
X13335000Y-9170200D01*
X13285000Y-9220200D01*
X13335000Y-9270200D01*
X13335000Y-9524200D02*
X13385000Y-9474200D01*
X13335000Y-9424200D01*
X13285000Y-9474200D01*
X13335000Y-9524200D01*
X13335000Y-9778200D02*
X13385000Y-9728200D01*
X13335000Y-9678200D01*
X13285000Y-9728200D01*
X13335000Y-9778200D01*
X13335000Y-10032200D02*
X13385000Y-9982200D01*
X13335000Y-9932200D01*
X13285000Y-9982200D01*
X13335000Y-10032200D01*
X13335000Y-10286200D02*
X13385000Y-10236200D01*
X13335000Y-10186200D01*
X13285000Y-10236200D01*
X13335000Y-10286200D01*
X13335000Y-10540200D02*
X13385000Y-10490200D01*
X13335000Y-10440200D01*
X13285000Y-10490200D01*
X13335000Y-10540200D01*
X13335000Y-10794200D02*
X13385000Y-10744200D01*
X13335000Y-10694200D01*
X13285000Y-10744200D01*
X13335000Y-10794200D01*
X15980000Y-7289000D02*
X16030000Y-7239000D01*
X15980000Y-7189000D01*
X15930000Y-7239000D01*
X15980000Y-7289000D01*
X15980000Y-7543000D02*
X16030000Y-7493000D01*
X15980000Y-7443000D01*
X15930000Y-7493000D01*
X15980000Y-7543000D01*
X15980000Y-8051000D02*
X16030000Y-8001000D01*
X15980000Y-7951000D01*
X15930000Y-8001000D01*
X15980000Y-8051000D01*
X15980000Y-8305000D02*
X16030000Y-8255000D01*
X15980000Y-8205000D01*
X15930000Y-8255000D01*
X15980000Y-8305000D01*
X15980000Y-8559000D02*
X16030000Y-8509000D01*
X15980000Y-8459000D01*
X15930000Y-8509000D01*
X15980000Y-8559000D01*
X15980000Y-8813000D02*
X16030000Y-8763000D01*
X15980000Y-8713000D01*
X15930000Y-8763000D01*
X15980000Y-8813000D01*
X15980000Y-9067000D02*
X16030000Y-9017000D01*
X15980000Y-8967000D01*
X15930000Y-9017000D01*
X15980000Y-9067000D01*
X15980000Y-9321000D02*
X16030000Y-9271000D01*
X15980000Y-9221000D01*
X15930000Y-9271000D01*
X15980000Y-9321000D01*
X15980000Y-9575000D02*
X16030000Y-9525000D01*
X15980000Y-9475000D01*
X15930000Y-9525000D01*
X15980000Y-9575000D01*
X15980000Y-9829000D02*
X16030000Y-9779000D01*
X15980000Y-9729000D01*
X15930000Y-9779000D01*
X15980000Y-9829000D01*
X15980000Y-10083000D02*
X16030000Y-10033000D01*
X15980000Y-9983000D01*
X15930000Y-10033000D01*
X15980000Y-10083000D01*
X15980000Y-10337000D02*
X16030000Y-10287000D01*
X15980000Y-10237000D01*
X15930000Y-10287000D01*
X15980000Y-10337000D01*
X15980000Y-10591000D02*
X16030000Y-10541000D01*
X15980000Y-10491000D01*
X15930000Y-10541000D01*
X15980000Y-10591000D01*
X15980000Y-10845000D02*
X16030000Y-10795000D01*
X15980000Y-10745000D01*
X15930000Y-10795000D01*
X15980000Y-10845000D01*
X15980000Y-11099000D02*
X16030000Y-11049000D01*
X15980000Y-10999000D01*
X15930000Y-11049000D01*
X15980000Y-11099000D01*
X15980000Y-11353000D02*
X16030000Y-11303000D01*
X15980000Y-11253000D01*
X15930000Y-11303000D01*
X15980000Y-11353000D01*
X15980000Y-11607000D02*
X16030000Y-11557000D01*
X15980000Y-11507000D01*
X15930000Y-11557000D01*
X15980000Y-11607000D01*
X15980000Y-11861000D02*
X16030000Y-11811000D01*
X15980000Y-11761000D01*
X15930000Y-11811000D01*
X15980000Y-11861000D01*
X15980000Y-12115000D02*
X16030000Y-12065000D01*
X15980000Y-12015000D01*
X15930000Y-12065000D01*
X15980000Y-12115000D01*
X16234000Y-7289000D02*
X16284000Y-7239000D01*
X16234000Y-7189000D01*
X16184000Y-7239000D01*
X16234000Y-7289000D01*
X16234000Y-7543000D02*
X16284000Y-7493000D01*
X16234000Y-7443000D01*
X16184000Y-7493000D01*
X16234000Y-7543000D01*
X16234000Y-7797000D02*
X16284000Y-7747000D01*
X16234000Y-7697000D01*
X16184000Y-7747000D01*
X16234000Y-7797000D01*
X16234000Y-8051000D02*
X16284000Y-8001000D01*
X16234000Y-7951000D01*
X16184000Y-8001000D01*
X16234000Y-8051000D01*
X16234000Y-8305000D02*
X16284000Y-8255000D01*
X16234000Y-8205000D01*
X16184000Y-8255000D01*
X16234000Y-8305000D01*
X16234000Y-8559000D02*
X16284000Y-8509000D01*
X16234000Y-8459000D01*
X16184000Y-8509000D01*
X16234000Y-8559000D01*
X16234000Y-8813000D02*
X16284000Y-8763000D01*
X16234000Y-8713000D01*
X16184000Y-8763000D01*
X16234000Y-8813000D01*
X16234000Y-9067000D02*
X16284000Y-9017000D01*
X16234000Y-8967000D01*
X16184000Y-9017000D01*
X16234000Y-9067000D01*
X16234000Y-9321000D02*
X16284000Y-9271000D01*
X16234000Y-9221000D01*
X16184000Y-9271000D01*
X16234000Y-9321000D01*
X16234000Y-9575000D02*
X16284000Y-9525000D01*
X16234000Y-9475000D01*
X16184000Y-9525000D01*
X16234000Y-9575000D01*
X16234000Y-9829000D02*
X16284000Y-9779000D01*
X16234000Y-9729000D01*
X16184000Y-9779000D01*
X16234000Y-9829000D01*
X16234000Y-10083000D02*
X16284000Y-10033000D01*
X16234000Y-9983000D01*
X16184000Y-10033000D01*
X16234000Y-10083000D01*
X16234000Y-10337000D02*
X16284000Y-10287000D01*
X16234000Y-10237000D01*
X16184000Y-10287000D01*
X16234000Y-10337000D01*
X16234000Y-10591000D02*
X16284000Y-10541000D01*
X16234000Y-10491000D01*
X16184000Y-10541000D01*
X16234000Y-10591000D01*
X16234000Y-10845000D02*
X16284000Y-10795000D01*
X16234000Y-10745000D01*
X16184000Y-10795000D01*
X16234000Y-10845000D01*
X16234000Y-11099000D02*
X16284000Y-11049000D01*
X16234000Y-10999000D01*
X16184000Y-11049000D01*
X16234000Y-11099000D01*
X16234000Y-11353000D02*
X16284000Y-11303000D01*
X16234000Y-11253000D01*
X16184000Y-11303000D01*
X16234000Y-11353000D01*
X16234000Y-11607000D02*
X16284000Y-11557000D01*
X16234000Y-11507000D01*
X16184000Y-11557000D01*
X16234000Y-11607000D01*
X16234000Y-11861000D02*
X16284000Y-11811000D01*
X16234000Y-11761000D01*
X16184000Y-11811000D01*
X16234000Y-11861000D01*
X16234000Y-12115000D02*
X16284000Y-12065000D01*
X16234000Y-12015000D01*
X16184000Y-12065000D01*
X16234000Y-12115000D01*
X20180300Y-7289000D02*
X20230300Y-7239000D01*
X20180300Y-7189000D01*
X20130300Y-7239000D01*
X20180300Y-7289000D01*
X20180300Y-7543000D02*
X20230300Y-7493000D01*
X20180300Y-7443000D01*
X20130300Y-7493000D01*
X20180300Y-7543000D01*
X20180300Y-8051000D02*
X20230300Y-8001000D01*
X20180300Y-7951000D01*
X20130300Y-8001000D01*
X20180300Y-8051000D01*
X20180300Y-8305000D02*
X20230300Y-8255000D01*
X20180300Y-8205000D01*
X20130300Y-8255000D01*
X20180300Y-8305000D01*
X20180300Y-8559000D02*
X20230300Y-8509000D01*
X20180300Y-8459000D01*
X20130300Y-8509000D01*
X20180300Y-8559000D01*
X20180300Y-8813000D02*
X20230300Y-8763000D01*
X20180300Y-8713000D01*
X20130300Y-8763000D01*
X20180300Y-8813000D01*
X20180300Y-9067000D02*
X20230300Y-9017000D01*
X20180300Y-8967000D01*
X20130300Y-9017000D01*
X20180300Y-9067000D01*
X20180300Y-9321000D02*
X20230300Y-9271000D01*
X20180300Y-9221000D01*
X20130300Y-9271000D01*
X20180300Y-9321000D01*
X20180300Y-9575000D02*
X20230300Y-9525000D01*
X20180300Y-9475000D01*
X20130300Y-9525000D01*
X20180300Y-9575000D01*
X20180300Y-9829000D02*
X20230300Y-9779000D01*
X20180300Y-9729000D01*
X20130300Y-9779000D01*
X20180300Y-9829000D01*
X20180300Y-10083000D02*
X20230300Y-10033000D01*
X20180300Y-9983000D01*
X20130300Y-10033000D01*
X20180300Y-10083000D01*
X20180300Y-10337000D02*
X20230300Y-10287000D01*
X20180300Y-10237000D01*
X20130300Y-10287000D01*
X20180300Y-10337000D01*
X20180300Y-10591000D02*
X20230300Y-10541000D01*
X20180300Y-10491000D01*
X20130300Y-10541000D01*
X20180300Y-10591000D01*
X20180300Y-10845000D02*
X20230300Y-10795000D01*
X20180300Y-10745000D01*
X20130300Y-10795000D01*
X20180300Y-10845000D01*
X20180300Y-11099000D02*
X20230300Y-11049000D01*
X20180300Y-10999000D01*
X20130300Y-11049000D01*
X20180300Y-11099000D01*
X20180300Y-11353000D02*
X20230300Y-11303000D01*
X20180300Y-11253000D01*
X20130300Y-11303000D01*
X20180300Y-11353000D01*
X20180300Y-11607000D02*
X20230300Y-11557000D01*
X20180300Y-11507000D01*
X20130300Y-11557000D01*
X20180300Y-11607000D01*
X20180300Y-11861000D02*
X20230300Y-11811000D01*
X20180300Y-11761000D01*
X20130300Y-11811000D01*
X20180300Y-11861000D01*
X20180300Y-12115000D02*
X20230300Y-12065000D01*
X20180300Y-12015000D01*
X20130300Y-12065000D01*
X20180300Y-12115000D01*
X20434300Y-7289000D02*
X20484300Y-7239000D01*
X20434300Y-7189000D01*
X20384300Y-7239000D01*
X20434300Y-7289000D01*
X20434300Y-7543000D02*
X20484300Y-7493000D01*
X20434300Y-7443000D01*
X20384300Y-7493000D01*
X20434300Y-7543000D01*
X20434300Y-7797000D02*
X20484300Y-7747000D01*
X20434300Y-7697000D01*
X20384300Y-7747000D01*
X20434300Y-7797000D01*
X20434300Y-8051000D02*
X20484300Y-8001000D01*
X20434300Y-7951000D01*
X20384300Y-8001000D01*
X20434300Y-8051000D01*
X20434300Y-8305000D02*
X20484300Y-8255000D01*
X20434300Y-8205000D01*
X20384300Y-8255000D01*
X20434300Y-8305000D01*
X20434300Y-8559000D02*
X20484300Y-8509000D01*
X20434300Y-8459000D01*
X20384300Y-8509000D01*
X20434300Y-8559000D01*
X20434300Y-8813000D02*
X20484300Y-8763000D01*
X20434300Y-8713000D01*
X20384300Y-8763000D01*
X20434300Y-8813000D01*
X20434300Y-9067000D02*
X20484300Y-9017000D01*
X20434300Y-8967000D01*
X20384300Y-9017000D01*
X20434300Y-9067000D01*
X20434300Y-9321000D02*
X20484300Y-9271000D01*
X20434300Y-9221000D01*
X20384300Y-9271000D01*
X20434300Y-9321000D01*
X20434300Y-9575000D02*
X20484300Y-9525000D01*
X20434300Y-9475000D01*
X20384300Y-9525000D01*
X20434300Y-9575000D01*
X20434300Y-9829000D02*
X20484300Y-9779000D01*
X20434300Y-9729000D01*
X20384300Y-9779000D01*
X20434300Y-9829000D01*
X20434300Y-10083000D02*
X20484300Y-10033000D01*
X20434300Y-9983000D01*
X20384300Y-10033000D01*
X20434300Y-10083000D01*
X20434300Y-10337000D02*
X20484300Y-10287000D01*
X20434300Y-10237000D01*
X20384300Y-10287000D01*
X20434300Y-10337000D01*
X20434300Y-10591000D02*
X20484300Y-10541000D01*
X20434300Y-10491000D01*
X20384300Y-10541000D01*
X20434300Y-10591000D01*
X20434300Y-10845000D02*
X20484300Y-10795000D01*
X20434300Y-10745000D01*
X20384300Y-10795000D01*
X20434300Y-10845000D01*
X20434300Y-11099000D02*
X20484300Y-11049000D01*
X20434300Y-10999000D01*
X20384300Y-11049000D01*
X20434300Y-11099000D01*
X20434300Y-11353000D02*
X20484300Y-11303000D01*
X20434300Y-11253000D01*
X20384300Y-11303000D01*
X20434300Y-11353000D01*
X20434300Y-11607000D02*
X20484300Y-11557000D01*
X20434300Y-11507000D01*
X20384300Y-11557000D01*
X20434300Y-11607000D01*
X20434300Y-11861000D02*
X20484300Y-11811000D01*
X20434300Y-11761000D01*
X20384300Y-11811000D01*
X20434300Y-11861000D01*
X20434300Y-12115000D02*
X20484300Y-12065000D01*
X20434300Y-12015000D01*
X20384300Y-12065000D01*
X20434300Y-12115000D01*
D12*
X6268000Y-12101000D02*
X6398000Y-12231000D01*
X6398000Y-12101000D02*
X6268000Y-12231000D01*
X6398000Y-12166000D02*
G75*
G02*
X6268000Y-12166000I-65000J0D01*
G01*
X6268000Y-12166000D02*
G75*
G02*
X6398000Y-12166000I65000J0D01*
G01*
X6268000Y-13117000D02*
X6398000Y-13247000D01*
X6398000Y-13117000D02*
X6268000Y-13247000D01*
X6398000Y-13182000D02*
G75*
G02*
X6268000Y-13182000I-65000J0D01*
G01*
X6268000Y-13182000D02*
G75*
G02*
X6398000Y-13182000I65000J0D01*
G01*
X6298000Y-6651000D02*
X6428000Y-6781000D01*
X6428000Y-6651000D02*
X6298000Y-6781000D01*
X6428000Y-6716000D02*
G75*
G02*
X6298000Y-6716000I-65000J0D01*
G01*
X6298000Y-6716000D02*
G75*
G02*
X6428000Y-6716000I65000J0D01*
G01*
X6298000Y-7667000D02*
X6428000Y-7797000D01*
X6428000Y-7667000D02*
X6298000Y-7797000D01*
X6428000Y-7732000D02*
G75*
G02*
X6298000Y-7732000I-65000J0D01*
G01*
X6298000Y-7732000D02*
G75*
G02*
X6428000Y-7732000I65000J0D01*
G01*
X6700000Y-8990000D02*
X6830000Y-9120000D01*
X6830000Y-8990000D02*
X6700000Y-9120000D01*
X6830000Y-9055000D02*
G75*
G02*
X6700000Y-9055000I-65000J0D01*
G01*
X6700000Y-9055000D02*
G75*
G02*
X6830000Y-9055000I65000J0D01*
G01*
X6700000Y-10790000D02*
X6830000Y-10920000D01*
X6830000Y-10790000D02*
X6700000Y-10920000D01*
X6830000Y-10855000D02*
G75*
G02*
X6700000Y-10855000I-65000J0D01*
G01*
X6700000Y-10855000D02*
G75*
G02*
X6830000Y-10855000I65000J0D01*
G01*
X7025000Y-9390000D02*
X7155000Y-9520000D01*
X7155000Y-9390000D02*
X7025000Y-9520000D01*
X7155000Y-9455000D02*
G75*
G02*
X7025000Y-9455000I-65000J0D01*
G01*
X7025000Y-9455000D02*
G75*
G02*
X7155000Y-9455000I65000J0D01*
G01*
X7025000Y-11190000D02*
X7155000Y-11320000D01*
X7155000Y-11190000D02*
X7025000Y-11320000D01*
X7155000Y-11255000D02*
G75*
G02*
X7025000Y-11255000I-65000J0D01*
G01*
X7025000Y-11255000D02*
G75*
G02*
X7155000Y-11255000I65000J0D01*
G01*
X7150000Y-8590000D02*
X7280000Y-8720000D01*
X7280000Y-8590000D02*
X7150000Y-8720000D01*
X7280000Y-8655000D02*
G75*
G02*
X7150000Y-8655000I-65000J0D01*
G01*
X7150000Y-8655000D02*
G75*
G02*
X7280000Y-8655000I65000J0D01*
G01*
X7150000Y-10390000D02*
X7280000Y-10520000D01*
X7280000Y-10390000D02*
X7150000Y-10520000D01*
X7280000Y-10455000D02*
G75*
G02*
X7150000Y-10455000I-65000J0D01*
G01*
X7150000Y-10455000D02*
G75*
G02*
X7280000Y-10455000I65000J0D01*
G01*
X7284000Y-12101000D02*
X7414000Y-12231000D01*
X7414000Y-12101000D02*
X7284000Y-12231000D01*
X7414000Y-12166000D02*
G75*
G02*
X7284000Y-12166000I-65000J0D01*
G01*
X7284000Y-12166000D02*
G75*
G02*
X7414000Y-12166000I65000J0D01*
G01*
X7284000Y-13117000D02*
X7414000Y-13247000D01*
X7414000Y-13117000D02*
X7284000Y-13247000D01*
X7414000Y-13182000D02*
G75*
G02*
X7284000Y-13182000I-65000J0D01*
G01*
X7284000Y-13182000D02*
G75*
G02*
X7414000Y-13182000I65000J0D01*
G01*
X7314000Y-6651000D02*
X7444000Y-6781000D01*
X7444000Y-6651000D02*
X7314000Y-6781000D01*
X7444000Y-6716000D02*
G75*
G02*
X7314000Y-6716000I-65000J0D01*
G01*
X7314000Y-6716000D02*
G75*
G02*
X7444000Y-6716000I65000J0D01*
G01*
X7314000Y-7667000D02*
X7444000Y-7797000D01*
X7444000Y-7667000D02*
X7314000Y-7797000D01*
X7444000Y-7732000D02*
G75*
G02*
X7314000Y-7732000I-65000J0D01*
G01*
X7314000Y-7732000D02*
G75*
G02*
X7444000Y-7732000I65000J0D01*
G01*
D13*
X6766000Y-12599000D02*
X6916000Y-12749000D01*
X6916000Y-12599000D02*
X6766000Y-12749000D01*
X6841000Y-12599000D02*
X6841000Y-12749000D01*
X6766000Y-12674000D02*
X6916000Y-12674000D01*
X6796000Y-7149000D02*
X6946000Y-7299000D01*
X6946000Y-7149000D02*
X6796000Y-7299000D01*
X6871000Y-7149000D02*
X6871000Y-7299000D01*
X6796000Y-7224000D02*
X6946000Y-7224000D01*
X12371000Y-9348400D02*
X12521000Y-9498400D01*
X12521000Y-9348400D02*
X12371000Y-9498400D01*
X12446000Y-9348400D02*
X12446000Y-9498400D01*
X12371000Y-9423400D02*
X12521000Y-9423400D01*
D14*
X6502000Y-12335000D02*
X6672000Y-12505000D01*
X6672000Y-12335000D02*
X6502000Y-12505000D01*
X6647105Y-12480105D02*
X6647105Y-12359895D01*
X6526895Y-12359895D01*
X6526895Y-12480105D01*
X6647105Y-12480105D01*
X6502000Y-12843000D02*
X6672000Y-13013000D01*
X6672000Y-12843000D02*
X6502000Y-13013000D01*
X6647105Y-12988105D02*
X6647105Y-12867895D01*
X6526895Y-12867895D01*
X6526895Y-12988105D01*
X6647105Y-12988105D01*
X6532000Y-6885000D02*
X6702000Y-7055000D01*
X6702000Y-6885000D02*
X6532000Y-7055000D01*
X6677105Y-7030105D02*
X6677105Y-6909895D01*
X6556895Y-6909895D01*
X6556895Y-7030105D01*
X6677105Y-7030105D01*
X6532000Y-7393000D02*
X6702000Y-7563000D01*
X6702000Y-7393000D02*
X6532000Y-7563000D01*
X6677105Y-7538105D02*
X6677105Y-7417895D01*
X6556895Y-7417895D01*
X6556895Y-7538105D01*
X6677105Y-7538105D01*
X7010000Y-12335000D02*
X7180000Y-12505000D01*
X7180000Y-12335000D02*
X7010000Y-12505000D01*
X7155105Y-12480105D02*
X7155105Y-12359895D01*
X7034895Y-12359895D01*
X7034895Y-12480105D01*
X7155105Y-12480105D01*
X7010000Y-12843000D02*
X7180000Y-13013000D01*
X7180000Y-12843000D02*
X7010000Y-13013000D01*
X7155105Y-12988105D02*
X7155105Y-12867895D01*
X7034895Y-12867895D01*
X7034895Y-12988105D01*
X7155105Y-12988105D01*
X7040000Y-6885000D02*
X7210000Y-7055000D01*
X7210000Y-6885000D02*
X7040000Y-7055000D01*
X7185105Y-7030105D02*
X7185105Y-6909895D01*
X7064895Y-6909895D01*
X7064895Y-7030105D01*
X7185105Y-7030105D01*
X7040000Y-7393000D02*
X7210000Y-7563000D01*
X7210000Y-7393000D02*
X7040000Y-7563000D01*
X7185105Y-7538105D02*
X7185105Y-7417895D01*
X7064895Y-7417895D01*
X7064895Y-7538105D01*
X7185105Y-7538105D01*
X12107000Y-9084400D02*
X12277000Y-9254400D01*
X12277000Y-9084400D02*
X12107000Y-9254400D01*
X12252105Y-9229505D02*
X12252105Y-9109295D01*
X12131895Y-9109295D01*
X12131895Y-9229505D01*
X12252105Y-9229505D01*
X12107000Y-9592400D02*
X12277000Y-9762400D01*
X12277000Y-9592400D02*
X12107000Y-9762400D01*
X12252105Y-9737505D02*
X12252105Y-9617295D01*
X12131895Y-9617295D01*
X12131895Y-9737505D01*
X12252105Y-9737505D01*
X12615000Y-9084400D02*
X12785000Y-9254400D01*
X12785000Y-9084400D02*
X12615000Y-9254400D01*
X12760105Y-9229505D02*
X12760105Y-9109295D01*
X12639895Y-9109295D01*
X12639895Y-9229505D01*
X12760105Y-9229505D01*
X12615000Y-9592400D02*
X12785000Y-9762400D01*
X12785000Y-9592400D02*
X12615000Y-9762400D01*
X12760105Y-9737505D02*
X12760105Y-9617295D01*
X12639895Y-9617295D01*
X12639895Y-9737505D01*
X12760105Y-9737505D01*
D15*
X6642500Y-8157500D02*
X6987500Y-8502500D01*
X6987500Y-8157500D02*
X6642500Y-8502500D01*
X6815000Y-8502500D02*
X6987500Y-8330000D01*
X6815000Y-8157500D01*
X6642500Y-8330000D01*
X6815000Y-8502500D01*
X6642500Y-11407500D02*
X6987500Y-11752500D01*
X6987500Y-11407500D02*
X6642500Y-11752500D01*
X6815000Y-11752500D02*
X6987500Y-11580000D01*
X6815000Y-11407500D01*
X6642500Y-11580000D01*
X6815000Y-11752500D01*
D11*
X6305777Y-14416484D02*
X6305777Y-14216484D01*
X6305777Y-14216484D02*
X6353396Y-14216484D01*
X6353396Y-14216484D02*
X6381967Y-14226008D01*
X6381967Y-14226008D02*
X6401015Y-14245055D01*
X6401015Y-14245055D02*
X6410539Y-14264103D01*
X6410539Y-14264103D02*
X6420062Y-14302198D01*
X6420062Y-14302198D02*
X6420062Y-14330769D01*
X6420062Y-14330769D02*
X6410539Y-14368865D01*
X6410539Y-14368865D02*
X6401015Y-14387912D01*
X6401015Y-14387912D02*
X6381967Y-14406960D01*
X6381967Y-14406960D02*
X6353396Y-14416484D01*
X6353396Y-14416484D02*
X6305777Y-14416484D01*
X6505777Y-14416484D02*
X6505777Y-14283150D01*
X6505777Y-14321246D02*
X6515301Y-14302198D01*
X6515301Y-14302198D02*
X6524824Y-14292674D01*
X6524824Y-14292674D02*
X6543872Y-14283150D01*
X6543872Y-14283150D02*
X6562920Y-14283150D01*
X6629586Y-14416484D02*
X6629586Y-14283150D01*
X6629586Y-14216484D02*
X6620062Y-14226008D01*
X6620062Y-14226008D02*
X6629586Y-14235531D01*
X6629586Y-14235531D02*
X6639110Y-14226008D01*
X6639110Y-14226008D02*
X6629586Y-14216484D01*
X6629586Y-14216484D02*
X6629586Y-14235531D01*
X6753396Y-14416484D02*
X6734348Y-14406960D01*
X6734348Y-14406960D02*
X6724824Y-14387912D01*
X6724824Y-14387912D02*
X6724824Y-14216484D01*
X6858158Y-14416484D02*
X6839110Y-14406960D01*
X6839110Y-14406960D02*
X6829586Y-14387912D01*
X6829586Y-14387912D02*
X6829586Y-14216484D01*
X7086729Y-14416484D02*
X7086729Y-14216484D01*
X7086729Y-14216484D02*
X7153396Y-14359341D01*
X7153396Y-14359341D02*
X7220062Y-14216484D01*
X7220062Y-14216484D02*
X7220062Y-14416484D01*
X7401015Y-14416484D02*
X7401015Y-14311722D01*
X7401015Y-14311722D02*
X7391491Y-14292674D01*
X7391491Y-14292674D02*
X7372443Y-14283150D01*
X7372443Y-14283150D02*
X7334348Y-14283150D01*
X7334348Y-14283150D02*
X7315301Y-14292674D01*
X7401015Y-14406960D02*
X7381967Y-14416484D01*
X7381967Y-14416484D02*
X7334348Y-14416484D01*
X7334348Y-14416484D02*
X7315301Y-14406960D01*
X7315301Y-14406960D02*
X7305777Y-14387912D01*
X7305777Y-14387912D02*
X7305777Y-14368865D01*
X7305777Y-14368865D02*
X7315301Y-14349817D01*
X7315301Y-14349817D02*
X7334348Y-14340293D01*
X7334348Y-14340293D02*
X7381967Y-14340293D01*
X7381967Y-14340293D02*
X7401015Y-14330769D01*
X7496253Y-14283150D02*
X7496253Y-14483150D01*
X7496253Y-14292674D02*
X7515301Y-14283150D01*
X7515301Y-14283150D02*
X7553396Y-14283150D01*
X7553396Y-14283150D02*
X7572443Y-14292674D01*
X7572443Y-14292674D02*
X7581967Y-14302198D01*
X7581967Y-14302198D02*
X7591491Y-14321246D01*
X7591491Y-14321246D02*
X7591491Y-14378388D01*
X7591491Y-14378388D02*
X7581967Y-14397436D01*
X7581967Y-14397436D02*
X7572443Y-14406960D01*
X7572443Y-14406960D02*
X7553396Y-14416484D01*
X7553396Y-14416484D02*
X7515301Y-14416484D01*
X7515301Y-14416484D02*
X7496253Y-14406960D01*
X7677205Y-14397436D02*
X7686729Y-14406960D01*
X7686729Y-14406960D02*
X7677205Y-14416484D01*
X7677205Y-14416484D02*
X7667682Y-14406960D01*
X7667682Y-14406960D02*
X7677205Y-14397436D01*
X7677205Y-14397436D02*
X7677205Y-14416484D01*
X7677205Y-14292674D02*
X7686729Y-14302198D01*
X7686729Y-14302198D02*
X7677205Y-14311722D01*
X7677205Y-14311722D02*
X7667682Y-14302198D01*
X7667682Y-14302198D02*
X7677205Y-14292674D01*
X7677205Y-14292674D02*
X7677205Y-14311722D01*
D10*
X6015000Y-14730000D02*
X6045000Y-14760000D01*
X6045000Y-14730000D02*
X6015000Y-14760000D01*
D11*
X6343872Y-14636484D02*
X6362920Y-14636484D01*
X6362920Y-14636484D02*
X6381967Y-14646008D01*
X6381967Y-14646008D02*
X6391491Y-14655531D01*
X6391491Y-14655531D02*
X6401015Y-14674579D01*
X6401015Y-14674579D02*
X6410539Y-14712674D01*
X6410539Y-14712674D02*
X6410539Y-14760293D01*
X6410539Y-14760293D02*
X6401015Y-14798388D01*
X6401015Y-14798388D02*
X6391491Y-14817436D01*
X6391491Y-14817436D02*
X6381967Y-14826960D01*
X6381967Y-14826960D02*
X6362920Y-14836484D01*
X6362920Y-14836484D02*
X6343872Y-14836484D01*
X6343872Y-14836484D02*
X6324824Y-14826960D01*
X6324824Y-14826960D02*
X6315301Y-14817436D01*
X6315301Y-14817436D02*
X6305777Y-14798388D01*
X6305777Y-14798388D02*
X6296253Y-14760293D01*
X6296253Y-14760293D02*
X6296253Y-14712674D01*
X6296253Y-14712674D02*
X6305777Y-14674579D01*
X6305777Y-14674579D02*
X6315301Y-14655531D01*
X6315301Y-14655531D02*
X6324824Y-14646008D01*
X6324824Y-14646008D02*
X6343872Y-14636484D01*
X6496253Y-14817436D02*
X6505777Y-14826960D01*
X6505777Y-14826960D02*
X6496253Y-14836484D01*
X6496253Y-14836484D02*
X6486729Y-14826960D01*
X6486729Y-14826960D02*
X6496253Y-14817436D01*
X6496253Y-14817436D02*
X6496253Y-14836484D01*
X6572443Y-14636484D02*
X6696253Y-14636484D01*
X6696253Y-14636484D02*
X6629586Y-14712674D01*
X6629586Y-14712674D02*
X6658158Y-14712674D01*
X6658158Y-14712674D02*
X6677205Y-14722198D01*
X6677205Y-14722198D02*
X6686729Y-14731722D01*
X6686729Y-14731722D02*
X6696253Y-14750769D01*
X6696253Y-14750769D02*
X6696253Y-14798388D01*
X6696253Y-14798388D02*
X6686729Y-14817436D01*
X6686729Y-14817436D02*
X6677205Y-14826960D01*
X6677205Y-14826960D02*
X6658158Y-14836484D01*
X6658158Y-14836484D02*
X6601015Y-14836484D01*
X6601015Y-14836484D02*
X6581967Y-14826960D01*
X6581967Y-14826960D02*
X6572443Y-14817436D01*
X6820062Y-14636484D02*
X6839110Y-14636484D01*
X6839110Y-14636484D02*
X6858158Y-14646008D01*
X6858158Y-14646008D02*
X6867682Y-14655531D01*
X6867682Y-14655531D02*
X6877205Y-14674579D01*
X6877205Y-14674579D02*
X6886729Y-14712674D01*
X6886729Y-14712674D02*
X6886729Y-14760293D01*
X6886729Y-14760293D02*
X6877205Y-14798388D01*
X6877205Y-14798388D02*
X6867682Y-14817436D01*
X6867682Y-14817436D02*
X6858158Y-14826960D01*
X6858158Y-14826960D02*
X6839110Y-14836484D01*
X6839110Y-14836484D02*
X6820062Y-14836484D01*
X6820062Y-14836484D02*
X6801015Y-14826960D01*
X6801015Y-14826960D02*
X6791491Y-14817436D01*
X6791491Y-14817436D02*
X6781967Y-14798388D01*
X6781967Y-14798388D02*
X6772443Y-14760293D01*
X6772443Y-14760293D02*
X6772443Y-14712674D01*
X6772443Y-14712674D02*
X6781967Y-14674579D01*
X6781967Y-14674579D02*
X6791491Y-14655531D01*
X6791491Y-14655531D02*
X6801015Y-14646008D01*
X6801015Y-14646008D02*
X6820062Y-14636484D01*
X7010539Y-14636484D02*
X7029586Y-14636484D01*
X7029586Y-14636484D02*
X7048634Y-14646008D01*
X7048634Y-14646008D02*
X7058158Y-14655531D01*
X7058158Y-14655531D02*
X7067682Y-14674579D01*
X7067682Y-14674579D02*
X7077205Y-14712674D01*
X7077205Y-14712674D02*
X7077205Y-14760293D01*
X7077205Y-14760293D02*
X7067682Y-14798388D01*
X7067682Y-14798388D02*
X7058158Y-14817436D01*
X7058158Y-14817436D02*
X7048634Y-14826960D01*
X7048634Y-14826960D02*
X7029586Y-14836484D01*
X7029586Y-14836484D02*
X7010539Y-14836484D01*
X7010539Y-14836484D02*
X6991491Y-14826960D01*
X6991491Y-14826960D02*
X6981967Y-14817436D01*
X6981967Y-14817436D02*
X6972443Y-14798388D01*
X6972443Y-14798388D02*
X6962920Y-14760293D01*
X6962920Y-14760293D02*
X6962920Y-14712674D01*
X6962920Y-14712674D02*
X6972443Y-14674579D01*
X6972443Y-14674579D02*
X6981967Y-14655531D01*
X6981967Y-14655531D02*
X6991491Y-14646008D01*
X6991491Y-14646008D02*
X7010539Y-14636484D01*
X7162920Y-14836484D02*
X7162920Y-14703150D01*
X7162920Y-14722198D02*
X7172443Y-14712674D01*
X7172443Y-14712674D02*
X7191491Y-14703150D01*
X7191491Y-14703150D02*
X7220063Y-14703150D01*
X7220063Y-14703150D02*
X7239110Y-14712674D01*
X7239110Y-14712674D02*
X7248634Y-14731722D01*
X7248634Y-14731722D02*
X7248634Y-14836484D01*
X7248634Y-14731722D02*
X7258158Y-14712674D01*
X7258158Y-14712674D02*
X7277205Y-14703150D01*
X7277205Y-14703150D02*
X7305777Y-14703150D01*
X7305777Y-14703150D02*
X7324824Y-14712674D01*
X7324824Y-14712674D02*
X7334348Y-14731722D01*
X7334348Y-14731722D02*
X7334348Y-14836484D01*
X7429586Y-14836484D02*
X7429586Y-14703150D01*
X7429586Y-14722198D02*
X7439110Y-14712674D01*
X7439110Y-14712674D02*
X7458158Y-14703150D01*
X7458158Y-14703150D02*
X7486729Y-14703150D01*
X7486729Y-14703150D02*
X7505777Y-14712674D01*
X7505777Y-14712674D02*
X7515301Y-14731722D01*
X7515301Y-14731722D02*
X7515301Y-14836484D01*
X7515301Y-14731722D02*
X7524824Y-14712674D01*
X7524824Y-14712674D02*
X7543872Y-14703150D01*
X7543872Y-14703150D02*
X7572443Y-14703150D01*
X7572443Y-14703150D02*
X7591491Y-14712674D01*
X7591491Y-14712674D02*
X7601015Y-14731722D01*
X7601015Y-14731722D02*
X7601015Y-14836484D01*
X7991491Y-14626960D02*
X7820063Y-14884103D01*
X8248634Y-14636484D02*
X8267682Y-14636484D01*
X8267682Y-14636484D02*
X8286729Y-14646008D01*
X8286729Y-14646008D02*
X8296253Y-14655531D01*
X8296253Y-14655531D02*
X8305777Y-14674579D01*
X8305777Y-14674579D02*
X8315301Y-14712674D01*
X8315301Y-14712674D02*
X8315301Y-14760293D01*
X8315301Y-14760293D02*
X8305777Y-14798388D01*
X8305777Y-14798388D02*
X8296253Y-14817436D01*
X8296253Y-14817436D02*
X8286729Y-14826960D01*
X8286729Y-14826960D02*
X8267682Y-14836484D01*
X8267682Y-14836484D02*
X8248634Y-14836484D01*
X8248634Y-14836484D02*
X8229586Y-14826960D01*
X8229586Y-14826960D02*
X8220063Y-14817436D01*
X8220063Y-14817436D02*
X8210539Y-14798388D01*
X8210539Y-14798388D02*
X8201015Y-14760293D01*
X8201015Y-14760293D02*
X8201015Y-14712674D01*
X8201015Y-14712674D02*
X8210539Y-14674579D01*
X8210539Y-14674579D02*
X8220063Y-14655531D01*
X8220063Y-14655531D02*
X8229586Y-14646008D01*
X8229586Y-14646008D02*
X8248634Y-14636484D01*
X8401015Y-14817436D02*
X8410539Y-14826960D01*
X8410539Y-14826960D02*
X8401015Y-14836484D01*
X8401015Y-14836484D02*
X8391491Y-14826960D01*
X8391491Y-14826960D02*
X8401015Y-14817436D01*
X8401015Y-14817436D02*
X8401015Y-14836484D01*
X8534348Y-14636484D02*
X8553396Y-14636484D01*
X8553396Y-14636484D02*
X8572444Y-14646008D01*
X8572444Y-14646008D02*
X8581968Y-14655531D01*
X8581968Y-14655531D02*
X8591491Y-14674579D01*
X8591491Y-14674579D02*
X8601015Y-14712674D01*
X8601015Y-14712674D02*
X8601015Y-14760293D01*
X8601015Y-14760293D02*
X8591491Y-14798388D01*
X8591491Y-14798388D02*
X8581968Y-14817436D01*
X8581968Y-14817436D02*
X8572444Y-14826960D01*
X8572444Y-14826960D02*
X8553396Y-14836484D01*
X8553396Y-14836484D02*
X8534348Y-14836484D01*
X8534348Y-14836484D02*
X8515301Y-14826960D01*
X8515301Y-14826960D02*
X8505777Y-14817436D01*
X8505777Y-14817436D02*
X8496253Y-14798388D01*
X8496253Y-14798388D02*
X8486729Y-14760293D01*
X8486729Y-14760293D02*
X8486729Y-14712674D01*
X8486729Y-14712674D02*
X8496253Y-14674579D01*
X8496253Y-14674579D02*
X8505777Y-14655531D01*
X8505777Y-14655531D02*
X8515301Y-14646008D01*
X8515301Y-14646008D02*
X8534348Y-14636484D01*
X8791491Y-14836484D02*
X8677206Y-14836484D01*
X8734348Y-14836484D02*
X8734348Y-14636484D01*
X8734348Y-14636484D02*
X8715301Y-14665055D01*
X8715301Y-14665055D02*
X8696253Y-14684103D01*
X8696253Y-14684103D02*
X8677206Y-14693627D01*
X8981968Y-14836484D02*
X8867682Y-14836484D01*
X8924825Y-14836484D02*
X8924825Y-14636484D01*
X8924825Y-14636484D02*
X8905777Y-14665055D01*
X8905777Y-14665055D02*
X8886729Y-14684103D01*
X8886729Y-14684103D02*
X8867682Y-14693627D01*
X9096253Y-14722198D02*
X9077206Y-14712674D01*
X9077206Y-14712674D02*
X9067682Y-14703150D01*
X9067682Y-14703150D02*
X9058158Y-14684103D01*
X9058158Y-14684103D02*
X9058158Y-14674579D01*
X9058158Y-14674579D02*
X9067682Y-14655531D01*
X9067682Y-14655531D02*
X9077206Y-14646008D01*
X9077206Y-14646008D02*
X9096253Y-14636484D01*
X9096253Y-14636484D02*
X9134349Y-14636484D01*
X9134349Y-14636484D02*
X9153396Y-14646008D01*
X9153396Y-14646008D02*
X9162920Y-14655531D01*
X9162920Y-14655531D02*
X9172444Y-14674579D01*
X9172444Y-14674579D02*
X9172444Y-14684103D01*
X9172444Y-14684103D02*
X9162920Y-14703150D01*
X9162920Y-14703150D02*
X9153396Y-14712674D01*
X9153396Y-14712674D02*
X9134349Y-14722198D01*
X9134349Y-14722198D02*
X9096253Y-14722198D01*
X9096253Y-14722198D02*
X9077206Y-14731722D01*
X9077206Y-14731722D02*
X9067682Y-14741246D01*
X9067682Y-14741246D02*
X9058158Y-14760293D01*
X9058158Y-14760293D02*
X9058158Y-14798388D01*
X9058158Y-14798388D02*
X9067682Y-14817436D01*
X9067682Y-14817436D02*
X9077206Y-14826960D01*
X9077206Y-14826960D02*
X9096253Y-14836484D01*
X9096253Y-14836484D02*
X9134349Y-14836484D01*
X9134349Y-14836484D02*
X9153396Y-14826960D01*
X9153396Y-14826960D02*
X9162920Y-14817436D01*
X9162920Y-14817436D02*
X9172444Y-14798388D01*
X9172444Y-14798388D02*
X9172444Y-14760293D01*
X9172444Y-14760293D02*
X9162920Y-14741246D01*
X9162920Y-14741246D02*
X9153396Y-14731722D01*
X9153396Y-14731722D02*
X9134349Y-14722198D01*
X9248634Y-14636484D02*
X9248634Y-14674579D01*
X9324825Y-14636484D02*
X9324825Y-14674579D01*
X9620063Y-14912674D02*
X9610539Y-14903150D01*
X9610539Y-14903150D02*
X9591491Y-14874579D01*
X9591491Y-14874579D02*
X9581968Y-14855531D01*
X9581968Y-14855531D02*
X9572444Y-14826960D01*
X9572444Y-14826960D02*
X9562920Y-14779341D01*
X9562920Y-14779341D02*
X9562920Y-14741246D01*
X9562920Y-14741246D02*
X9572444Y-14693627D01*
X9572444Y-14693627D02*
X9581968Y-14665055D01*
X9581968Y-14665055D02*
X9591491Y-14646008D01*
X9591491Y-14646008D02*
X9610539Y-14617436D01*
X9610539Y-14617436D02*
X9620063Y-14607912D01*
X9781968Y-14703150D02*
X9781968Y-14836484D01*
X9734349Y-14626960D02*
X9686730Y-14769817D01*
X9686730Y-14769817D02*
X9810539Y-14769817D01*
X10039111Y-14836484D02*
X10039111Y-14636484D01*
X10124825Y-14836484D02*
X10124825Y-14731722D01*
X10124825Y-14731722D02*
X10115301Y-14712674D01*
X10115301Y-14712674D02*
X10096253Y-14703150D01*
X10096253Y-14703150D02*
X10067682Y-14703150D01*
X10067682Y-14703150D02*
X10048634Y-14712674D01*
X10048634Y-14712674D02*
X10039111Y-14722198D01*
X10248634Y-14836484D02*
X10229587Y-14826960D01*
X10229587Y-14826960D02*
X10220063Y-14817436D01*
X10220063Y-14817436D02*
X10210539Y-14798388D01*
X10210539Y-14798388D02*
X10210539Y-14741246D01*
X10210539Y-14741246D02*
X10220063Y-14722198D01*
X10220063Y-14722198D02*
X10229587Y-14712674D01*
X10229587Y-14712674D02*
X10248634Y-14703150D01*
X10248634Y-14703150D02*
X10277206Y-14703150D01*
X10277206Y-14703150D02*
X10296253Y-14712674D01*
X10296253Y-14712674D02*
X10305777Y-14722198D01*
X10305777Y-14722198D02*
X10315301Y-14741246D01*
X10315301Y-14741246D02*
X10315301Y-14798388D01*
X10315301Y-14798388D02*
X10305777Y-14817436D01*
X10305777Y-14817436D02*
X10296253Y-14826960D01*
X10296253Y-14826960D02*
X10277206Y-14836484D01*
X10277206Y-14836484D02*
X10248634Y-14836484D01*
X10429587Y-14836484D02*
X10410539Y-14826960D01*
X10410539Y-14826960D02*
X10401015Y-14807912D01*
X10401015Y-14807912D02*
X10401015Y-14636484D01*
X10581968Y-14826960D02*
X10562920Y-14836484D01*
X10562920Y-14836484D02*
X10524825Y-14836484D01*
X10524825Y-14836484D02*
X10505777Y-14826960D01*
X10505777Y-14826960D02*
X10496253Y-14807912D01*
X10496253Y-14807912D02*
X10496253Y-14731722D01*
X10496253Y-14731722D02*
X10505777Y-14712674D01*
X10505777Y-14712674D02*
X10524825Y-14703150D01*
X10524825Y-14703150D02*
X10562920Y-14703150D01*
X10562920Y-14703150D02*
X10581968Y-14712674D01*
X10581968Y-14712674D02*
X10591492Y-14731722D01*
X10591492Y-14731722D02*
X10591492Y-14750769D01*
X10591492Y-14750769D02*
X10496253Y-14769817D01*
X10667682Y-14826960D02*
X10686730Y-14836484D01*
X10686730Y-14836484D02*
X10724825Y-14836484D01*
X10724825Y-14836484D02*
X10743873Y-14826960D01*
X10743873Y-14826960D02*
X10753396Y-14807912D01*
X10753396Y-14807912D02*
X10753396Y-14798388D01*
X10753396Y-14798388D02*
X10743873Y-14779341D01*
X10743873Y-14779341D02*
X10724825Y-14769817D01*
X10724825Y-14769817D02*
X10696253Y-14769817D01*
X10696253Y-14769817D02*
X10677206Y-14760293D01*
X10677206Y-14760293D02*
X10667682Y-14741246D01*
X10667682Y-14741246D02*
X10667682Y-14731722D01*
X10667682Y-14731722D02*
X10677206Y-14712674D01*
X10677206Y-14712674D02*
X10696253Y-14703150D01*
X10696253Y-14703150D02*
X10724825Y-14703150D01*
X10724825Y-14703150D02*
X10743873Y-14712674D01*
X10820063Y-14912674D02*
X10829587Y-14903150D01*
X10829587Y-14903150D02*
X10848634Y-14874579D01*
X10848634Y-14874579D02*
X10858158Y-14855531D01*
X10858158Y-14855531D02*
X10867682Y-14826960D01*
X10867682Y-14826960D02*
X10877206Y-14779341D01*
X10877206Y-14779341D02*
X10877206Y-14741246D01*
X10877206Y-14741246D02*
X10867682Y-14693627D01*
X10867682Y-14693627D02*
X10858158Y-14665055D01*
X10858158Y-14665055D02*
X10848634Y-14646008D01*
X10848634Y-14646008D02*
X10829587Y-14617436D01*
X10829587Y-14617436D02*
X10820063Y-14607912D01*
D10*
X6045000Y-15009000D02*
G75*
G02*
X6005000Y-15009000I-20000J0D01*
G01*
X6005000Y-15009000D02*
G75*
G02*
X6045000Y-15009000I20000J0D01*
G01*
D11*
X6343872Y-14900484D02*
X6362920Y-14900484D01*
X6362920Y-14900484D02*
X6381967Y-14910008D01*
X6381967Y-14910008D02*
X6391491Y-14919531D01*
X6391491Y-14919531D02*
X6401015Y-14938579D01*
X6401015Y-14938579D02*
X6410539Y-14976674D01*
X6410539Y-14976674D02*
X6410539Y-15024293D01*
X6410539Y-15024293D02*
X6401015Y-15062388D01*
X6401015Y-15062388D02*
X6391491Y-15081436D01*
X6391491Y-15081436D02*
X6381967Y-15090960D01*
X6381967Y-15090960D02*
X6362920Y-15100484D01*
X6362920Y-15100484D02*
X6343872Y-15100484D01*
X6343872Y-15100484D02*
X6324824Y-15090960D01*
X6324824Y-15090960D02*
X6315301Y-15081436D01*
X6315301Y-15081436D02*
X6305777Y-15062388D01*
X6305777Y-15062388D02*
X6296253Y-15024293D01*
X6296253Y-15024293D02*
X6296253Y-14976674D01*
X6296253Y-14976674D02*
X6305777Y-14938579D01*
X6305777Y-14938579D02*
X6315301Y-14919531D01*
X6315301Y-14919531D02*
X6324824Y-14910008D01*
X6324824Y-14910008D02*
X6343872Y-14900484D01*
X6496253Y-15081436D02*
X6505777Y-15090960D01*
X6505777Y-15090960D02*
X6496253Y-15100484D01*
X6496253Y-15100484D02*
X6486729Y-15090960D01*
X6486729Y-15090960D02*
X6496253Y-15081436D01*
X6496253Y-15081436D02*
X6496253Y-15100484D01*
X6677205Y-14967150D02*
X6677205Y-15100484D01*
X6629586Y-14890960D02*
X6581967Y-15033817D01*
X6581967Y-15033817D02*
X6705777Y-15033817D01*
X6820062Y-14900484D02*
X6839110Y-14900484D01*
X6839110Y-14900484D02*
X6858158Y-14910008D01*
X6858158Y-14910008D02*
X6867682Y-14919531D01*
X6867682Y-14919531D02*
X6877205Y-14938579D01*
X6877205Y-14938579D02*
X6886729Y-14976674D01*
X6886729Y-14976674D02*
X6886729Y-15024293D01*
X6886729Y-15024293D02*
X6877205Y-15062388D01*
X6877205Y-15062388D02*
X6867682Y-15081436D01*
X6867682Y-15081436D02*
X6858158Y-15090960D01*
X6858158Y-15090960D02*
X6839110Y-15100484D01*
X6839110Y-15100484D02*
X6820062Y-15100484D01*
X6820062Y-15100484D02*
X6801015Y-15090960D01*
X6801015Y-15090960D02*
X6791491Y-15081436D01*
X6791491Y-15081436D02*
X6781967Y-15062388D01*
X6781967Y-15062388D02*
X6772443Y-15024293D01*
X6772443Y-15024293D02*
X6772443Y-14976674D01*
X6772443Y-14976674D02*
X6781967Y-14938579D01*
X6781967Y-14938579D02*
X6791491Y-14919531D01*
X6791491Y-14919531D02*
X6801015Y-14910008D01*
X6801015Y-14910008D02*
X6820062Y-14900484D01*
X7010539Y-14900484D02*
X7029586Y-14900484D01*
X7029586Y-14900484D02*
X7048634Y-14910008D01*
X7048634Y-14910008D02*
X7058158Y-14919531D01*
X7058158Y-14919531D02*
X7067682Y-14938579D01*
X7067682Y-14938579D02*
X7077205Y-14976674D01*
X7077205Y-14976674D02*
X7077205Y-15024293D01*
X7077205Y-15024293D02*
X7067682Y-15062388D01*
X7067682Y-15062388D02*
X7058158Y-15081436D01*
X7058158Y-15081436D02*
X7048634Y-15090960D01*
X7048634Y-15090960D02*
X7029586Y-15100484D01*
X7029586Y-15100484D02*
X7010539Y-15100484D01*
X7010539Y-15100484D02*
X6991491Y-15090960D01*
X6991491Y-15090960D02*
X6981967Y-15081436D01*
X6981967Y-15081436D02*
X6972443Y-15062388D01*
X6972443Y-15062388D02*
X6962920Y-15024293D01*
X6962920Y-15024293D02*
X6962920Y-14976674D01*
X6962920Y-14976674D02*
X6972443Y-14938579D01*
X6972443Y-14938579D02*
X6981967Y-14919531D01*
X6981967Y-14919531D02*
X6991491Y-14910008D01*
X6991491Y-14910008D02*
X7010539Y-14900484D01*
X7162920Y-15100484D02*
X7162920Y-14967150D01*
X7162920Y-14986198D02*
X7172443Y-14976674D01*
X7172443Y-14976674D02*
X7191491Y-14967150D01*
X7191491Y-14967150D02*
X7220063Y-14967150D01*
X7220063Y-14967150D02*
X7239110Y-14976674D01*
X7239110Y-14976674D02*
X7248634Y-14995722D01*
X7248634Y-14995722D02*
X7248634Y-15100484D01*
X7248634Y-14995722D02*
X7258158Y-14976674D01*
X7258158Y-14976674D02*
X7277205Y-14967150D01*
X7277205Y-14967150D02*
X7305777Y-14967150D01*
X7305777Y-14967150D02*
X7324824Y-14976674D01*
X7324824Y-14976674D02*
X7334348Y-14995722D01*
X7334348Y-14995722D02*
X7334348Y-15100484D01*
X7429586Y-15100484D02*
X7429586Y-14967150D01*
X7429586Y-14986198D02*
X7439110Y-14976674D01*
X7439110Y-14976674D02*
X7458158Y-14967150D01*
X7458158Y-14967150D02*
X7486729Y-14967150D01*
X7486729Y-14967150D02*
X7505777Y-14976674D01*
X7505777Y-14976674D02*
X7515301Y-14995722D01*
X7515301Y-14995722D02*
X7515301Y-15100484D01*
X7515301Y-14995722D02*
X7524824Y-14976674D01*
X7524824Y-14976674D02*
X7543872Y-14967150D01*
X7543872Y-14967150D02*
X7572443Y-14967150D01*
X7572443Y-14967150D02*
X7591491Y-14976674D01*
X7591491Y-14976674D02*
X7601015Y-14995722D01*
X7601015Y-14995722D02*
X7601015Y-15100484D01*
X7991491Y-14890960D02*
X7820063Y-15148103D01*
X8248634Y-14900484D02*
X8267682Y-14900484D01*
X8267682Y-14900484D02*
X8286729Y-14910008D01*
X8286729Y-14910008D02*
X8296253Y-14919531D01*
X8296253Y-14919531D02*
X8305777Y-14938579D01*
X8305777Y-14938579D02*
X8315301Y-14976674D01*
X8315301Y-14976674D02*
X8315301Y-15024293D01*
X8315301Y-15024293D02*
X8305777Y-15062388D01*
X8305777Y-15062388D02*
X8296253Y-15081436D01*
X8296253Y-15081436D02*
X8286729Y-15090960D01*
X8286729Y-15090960D02*
X8267682Y-15100484D01*
X8267682Y-15100484D02*
X8248634Y-15100484D01*
X8248634Y-15100484D02*
X8229586Y-15090960D01*
X8229586Y-15090960D02*
X8220063Y-15081436D01*
X8220063Y-15081436D02*
X8210539Y-15062388D01*
X8210539Y-15062388D02*
X8201015Y-15024293D01*
X8201015Y-15024293D02*
X8201015Y-14976674D01*
X8201015Y-14976674D02*
X8210539Y-14938579D01*
X8210539Y-14938579D02*
X8220063Y-14919531D01*
X8220063Y-14919531D02*
X8229586Y-14910008D01*
X8229586Y-14910008D02*
X8248634Y-14900484D01*
X8401015Y-15081436D02*
X8410539Y-15090960D01*
X8410539Y-15090960D02*
X8401015Y-15100484D01*
X8401015Y-15100484D02*
X8391491Y-15090960D01*
X8391491Y-15090960D02*
X8401015Y-15081436D01*
X8401015Y-15081436D02*
X8401015Y-15100484D01*
X8534348Y-14900484D02*
X8553396Y-14900484D01*
X8553396Y-14900484D02*
X8572444Y-14910008D01*
X8572444Y-14910008D02*
X8581968Y-14919531D01*
X8581968Y-14919531D02*
X8591491Y-14938579D01*
X8591491Y-14938579D02*
X8601015Y-14976674D01*
X8601015Y-14976674D02*
X8601015Y-15024293D01*
X8601015Y-15024293D02*
X8591491Y-15062388D01*
X8591491Y-15062388D02*
X8581968Y-15081436D01*
X8581968Y-15081436D02*
X8572444Y-15090960D01*
X8572444Y-15090960D02*
X8553396Y-15100484D01*
X8553396Y-15100484D02*
X8534348Y-15100484D01*
X8534348Y-15100484D02*
X8515301Y-15090960D01*
X8515301Y-15090960D02*
X8505777Y-15081436D01*
X8505777Y-15081436D02*
X8496253Y-15062388D01*
X8496253Y-15062388D02*
X8486729Y-15024293D01*
X8486729Y-15024293D02*
X8486729Y-14976674D01*
X8486729Y-14976674D02*
X8496253Y-14938579D01*
X8496253Y-14938579D02*
X8505777Y-14919531D01*
X8505777Y-14919531D02*
X8515301Y-14910008D01*
X8515301Y-14910008D02*
X8534348Y-14900484D01*
X8791491Y-15100484D02*
X8677206Y-15100484D01*
X8734348Y-15100484D02*
X8734348Y-14900484D01*
X8734348Y-14900484D02*
X8715301Y-14929055D01*
X8715301Y-14929055D02*
X8696253Y-14948103D01*
X8696253Y-14948103D02*
X8677206Y-14957627D01*
X8972444Y-14900484D02*
X8877206Y-14900484D01*
X8877206Y-14900484D02*
X8867682Y-14995722D01*
X8867682Y-14995722D02*
X8877206Y-14986198D01*
X8877206Y-14986198D02*
X8896253Y-14976674D01*
X8896253Y-14976674D02*
X8943872Y-14976674D01*
X8943872Y-14976674D02*
X8962920Y-14986198D01*
X8962920Y-14986198D02*
X8972444Y-14995722D01*
X8972444Y-14995722D02*
X8981968Y-15014769D01*
X8981968Y-15014769D02*
X8981968Y-15062388D01*
X8981968Y-15062388D02*
X8972444Y-15081436D01*
X8972444Y-15081436D02*
X8962920Y-15090960D01*
X8962920Y-15090960D02*
X8943872Y-15100484D01*
X8943872Y-15100484D02*
X8896253Y-15100484D01*
X8896253Y-15100484D02*
X8877206Y-15090960D01*
X8877206Y-15090960D02*
X8867682Y-15081436D01*
X9048634Y-14900484D02*
X9181968Y-14900484D01*
X9181968Y-14900484D02*
X9096253Y-15100484D01*
X9248634Y-14900484D02*
X9248634Y-14938579D01*
X9324825Y-14900484D02*
X9324825Y-14938579D01*
X9620063Y-15176674D02*
X9610539Y-15167150D01*
X9610539Y-15167150D02*
X9591491Y-15138579D01*
X9591491Y-15138579D02*
X9581968Y-15119531D01*
X9581968Y-15119531D02*
X9572444Y-15090960D01*
X9572444Y-15090960D02*
X9562920Y-15043341D01*
X9562920Y-15043341D02*
X9562920Y-15005246D01*
X9562920Y-15005246D02*
X9572444Y-14957627D01*
X9572444Y-14957627D02*
X9581968Y-14929055D01*
X9581968Y-14929055D02*
X9591491Y-14910008D01*
X9591491Y-14910008D02*
X9610539Y-14881436D01*
X9610539Y-14881436D02*
X9620063Y-14871912D01*
X9677206Y-14900484D02*
X9801015Y-14900484D01*
X9801015Y-14900484D02*
X9734349Y-14976674D01*
X9734349Y-14976674D02*
X9762920Y-14976674D01*
X9762920Y-14976674D02*
X9781968Y-14986198D01*
X9781968Y-14986198D02*
X9791491Y-14995722D01*
X9791491Y-14995722D02*
X9801015Y-15014769D01*
X9801015Y-15014769D02*
X9801015Y-15062388D01*
X9801015Y-15062388D02*
X9791491Y-15081436D01*
X9791491Y-15081436D02*
X9781968Y-15090960D01*
X9781968Y-15090960D02*
X9762920Y-15100484D01*
X9762920Y-15100484D02*
X9705777Y-15100484D01*
X9705777Y-15100484D02*
X9686730Y-15090960D01*
X9686730Y-15090960D02*
X9677206Y-15081436D01*
X9991491Y-15100484D02*
X9877206Y-15100484D01*
X9934349Y-15100484D02*
X9934349Y-14900484D01*
X9934349Y-14900484D02*
X9915301Y-14929055D01*
X9915301Y-14929055D02*
X9896253Y-14948103D01*
X9896253Y-14948103D02*
X9877206Y-14957627D01*
X10181968Y-15100484D02*
X10067682Y-15100484D01*
X10124825Y-15100484D02*
X10124825Y-14900484D01*
X10124825Y-14900484D02*
X10105777Y-14929055D01*
X10105777Y-14929055D02*
X10086730Y-14948103D01*
X10086730Y-14948103D02*
X10067682Y-14957627D01*
X10420063Y-15100484D02*
X10420063Y-14900484D01*
X10505777Y-15100484D02*
X10505777Y-14995722D01*
X10505777Y-14995722D02*
X10496253Y-14976674D01*
X10496253Y-14976674D02*
X10477206Y-14967150D01*
X10477206Y-14967150D02*
X10448634Y-14967150D01*
X10448634Y-14967150D02*
X10429587Y-14976674D01*
X10429587Y-14976674D02*
X10420063Y-14986198D01*
X10629587Y-15100484D02*
X10610539Y-15090960D01*
X10610539Y-15090960D02*
X10601015Y-15081436D01*
X10601015Y-15081436D02*
X10591492Y-15062388D01*
X10591492Y-15062388D02*
X10591492Y-15005246D01*
X10591492Y-15005246D02*
X10601015Y-14986198D01*
X10601015Y-14986198D02*
X10610539Y-14976674D01*
X10610539Y-14976674D02*
X10629587Y-14967150D01*
X10629587Y-14967150D02*
X10658158Y-14967150D01*
X10658158Y-14967150D02*
X10677206Y-14976674D01*
X10677206Y-14976674D02*
X10686730Y-14986198D01*
X10686730Y-14986198D02*
X10696253Y-15005246D01*
X10696253Y-15005246D02*
X10696253Y-15062388D01*
X10696253Y-15062388D02*
X10686730Y-15081436D01*
X10686730Y-15081436D02*
X10677206Y-15090960D01*
X10677206Y-15090960D02*
X10658158Y-15100484D01*
X10658158Y-15100484D02*
X10629587Y-15100484D01*
X10810539Y-15100484D02*
X10791492Y-15090960D01*
X10791492Y-15090960D02*
X10781968Y-15071912D01*
X10781968Y-15071912D02*
X10781968Y-14900484D01*
X10962920Y-15090960D02*
X10943873Y-15100484D01*
X10943873Y-15100484D02*
X10905777Y-15100484D01*
X10905777Y-15100484D02*
X10886730Y-15090960D01*
X10886730Y-15090960D02*
X10877206Y-15071912D01*
X10877206Y-15071912D02*
X10877206Y-14995722D01*
X10877206Y-14995722D02*
X10886730Y-14976674D01*
X10886730Y-14976674D02*
X10905777Y-14967150D01*
X10905777Y-14967150D02*
X10943873Y-14967150D01*
X10943873Y-14967150D02*
X10962920Y-14976674D01*
X10962920Y-14976674D02*
X10972444Y-14995722D01*
X10972444Y-14995722D02*
X10972444Y-15014769D01*
X10972444Y-15014769D02*
X10877206Y-15033817D01*
X11048634Y-15090960D02*
X11067682Y-15100484D01*
X11067682Y-15100484D02*
X11105777Y-15100484D01*
X11105777Y-15100484D02*
X11124825Y-15090960D01*
X11124825Y-15090960D02*
X11134349Y-15071912D01*
X11134349Y-15071912D02*
X11134349Y-15062388D01*
X11134349Y-15062388D02*
X11124825Y-15043341D01*
X11124825Y-15043341D02*
X11105777Y-15033817D01*
X11105777Y-15033817D02*
X11077206Y-15033817D01*
X11077206Y-15033817D02*
X11058158Y-15024293D01*
X11058158Y-15024293D02*
X11048634Y-15005246D01*
X11048634Y-15005246D02*
X11048634Y-14995722D01*
X11048634Y-14995722D02*
X11058158Y-14976674D01*
X11058158Y-14976674D02*
X11077206Y-14967150D01*
X11077206Y-14967150D02*
X11105777Y-14967150D01*
X11105777Y-14967150D02*
X11124825Y-14976674D01*
X11201015Y-15176674D02*
X11210539Y-15167150D01*
X11210539Y-15167150D02*
X11229587Y-15138579D01*
X11229587Y-15138579D02*
X11239111Y-15119531D01*
X11239111Y-15119531D02*
X11248634Y-15090960D01*
X11248634Y-15090960D02*
X11258158Y-15043341D01*
X11258158Y-15043341D02*
X11258158Y-15005246D01*
X11258158Y-15005246D02*
X11248634Y-14957627D01*
X11248634Y-14957627D02*
X11239111Y-14929055D01*
X11239111Y-14929055D02*
X11229587Y-14910008D01*
X11229587Y-14910008D02*
X11210539Y-14881436D01*
X11210539Y-14881436D02*
X11201015Y-14871912D01*
D10*
X6020000Y-15248000D02*
X6020000Y-15298000D01*
X5995000Y-15273000D02*
X6045000Y-15273000D01*
D11*
X6343872Y-15164484D02*
X6362920Y-15164484D01*
X6362920Y-15164484D02*
X6381967Y-15174008D01*
X6381967Y-15174008D02*
X6391491Y-15183531D01*
X6391491Y-15183531D02*
X6401015Y-15202579D01*
X6401015Y-15202579D02*
X6410539Y-15240674D01*
X6410539Y-15240674D02*
X6410539Y-15288293D01*
X6410539Y-15288293D02*
X6401015Y-15326388D01*
X6401015Y-15326388D02*
X6391491Y-15345436D01*
X6391491Y-15345436D02*
X6381967Y-15354960D01*
X6381967Y-15354960D02*
X6362920Y-15364484D01*
X6362920Y-15364484D02*
X6343872Y-15364484D01*
X6343872Y-15364484D02*
X6324824Y-15354960D01*
X6324824Y-15354960D02*
X6315301Y-15345436D01*
X6315301Y-15345436D02*
X6305777Y-15326388D01*
X6305777Y-15326388D02*
X6296253Y-15288293D01*
X6296253Y-15288293D02*
X6296253Y-15240674D01*
X6296253Y-15240674D02*
X6305777Y-15202579D01*
X6305777Y-15202579D02*
X6315301Y-15183531D01*
X6315301Y-15183531D02*
X6324824Y-15174008D01*
X6324824Y-15174008D02*
X6343872Y-15164484D01*
X6496253Y-15345436D02*
X6505777Y-15354960D01*
X6505777Y-15354960D02*
X6496253Y-15364484D01*
X6496253Y-15364484D02*
X6486729Y-15354960D01*
X6486729Y-15354960D02*
X6496253Y-15345436D01*
X6496253Y-15345436D02*
X6496253Y-15364484D01*
X6686729Y-15164484D02*
X6591491Y-15164484D01*
X6591491Y-15164484D02*
X6581967Y-15259722D01*
X6581967Y-15259722D02*
X6591491Y-15250198D01*
X6591491Y-15250198D02*
X6610539Y-15240674D01*
X6610539Y-15240674D02*
X6658158Y-15240674D01*
X6658158Y-15240674D02*
X6677205Y-15250198D01*
X6677205Y-15250198D02*
X6686729Y-15259722D01*
X6686729Y-15259722D02*
X6696253Y-15278769D01*
X6696253Y-15278769D02*
X6696253Y-15326388D01*
X6696253Y-15326388D02*
X6686729Y-15345436D01*
X6686729Y-15345436D02*
X6677205Y-15354960D01*
X6677205Y-15354960D02*
X6658158Y-15364484D01*
X6658158Y-15364484D02*
X6610539Y-15364484D01*
X6610539Y-15364484D02*
X6591491Y-15354960D01*
X6591491Y-15354960D02*
X6581967Y-15345436D01*
X6820062Y-15164484D02*
X6839110Y-15164484D01*
X6839110Y-15164484D02*
X6858158Y-15174008D01*
X6858158Y-15174008D02*
X6867682Y-15183531D01*
X6867682Y-15183531D02*
X6877205Y-15202579D01*
X6877205Y-15202579D02*
X6886729Y-15240674D01*
X6886729Y-15240674D02*
X6886729Y-15288293D01*
X6886729Y-15288293D02*
X6877205Y-15326388D01*
X6877205Y-15326388D02*
X6867682Y-15345436D01*
X6867682Y-15345436D02*
X6858158Y-15354960D01*
X6858158Y-15354960D02*
X6839110Y-15364484D01*
X6839110Y-15364484D02*
X6820062Y-15364484D01*
X6820062Y-15364484D02*
X6801015Y-15354960D01*
X6801015Y-15354960D02*
X6791491Y-15345436D01*
X6791491Y-15345436D02*
X6781967Y-15326388D01*
X6781967Y-15326388D02*
X6772443Y-15288293D01*
X6772443Y-15288293D02*
X6772443Y-15240674D01*
X6772443Y-15240674D02*
X6781967Y-15202579D01*
X6781967Y-15202579D02*
X6791491Y-15183531D01*
X6791491Y-15183531D02*
X6801015Y-15174008D01*
X6801015Y-15174008D02*
X6820062Y-15164484D01*
X7010539Y-15164484D02*
X7029586Y-15164484D01*
X7029586Y-15164484D02*
X7048634Y-15174008D01*
X7048634Y-15174008D02*
X7058158Y-15183531D01*
X7058158Y-15183531D02*
X7067682Y-15202579D01*
X7067682Y-15202579D02*
X7077205Y-15240674D01*
X7077205Y-15240674D02*
X7077205Y-15288293D01*
X7077205Y-15288293D02*
X7067682Y-15326388D01*
X7067682Y-15326388D02*
X7058158Y-15345436D01*
X7058158Y-15345436D02*
X7048634Y-15354960D01*
X7048634Y-15354960D02*
X7029586Y-15364484D01*
X7029586Y-15364484D02*
X7010539Y-15364484D01*
X7010539Y-15364484D02*
X6991491Y-15354960D01*
X6991491Y-15354960D02*
X6981967Y-15345436D01*
X6981967Y-15345436D02*
X6972443Y-15326388D01*
X6972443Y-15326388D02*
X6962920Y-15288293D01*
X6962920Y-15288293D02*
X6962920Y-15240674D01*
X6962920Y-15240674D02*
X6972443Y-15202579D01*
X6972443Y-15202579D02*
X6981967Y-15183531D01*
X6981967Y-15183531D02*
X6991491Y-15174008D01*
X6991491Y-15174008D02*
X7010539Y-15164484D01*
X7162920Y-15364484D02*
X7162920Y-15231150D01*
X7162920Y-15250198D02*
X7172443Y-15240674D01*
X7172443Y-15240674D02*
X7191491Y-15231150D01*
X7191491Y-15231150D02*
X7220063Y-15231150D01*
X7220063Y-15231150D02*
X7239110Y-15240674D01*
X7239110Y-15240674D02*
X7248634Y-15259722D01*
X7248634Y-15259722D02*
X7248634Y-15364484D01*
X7248634Y-15259722D02*
X7258158Y-15240674D01*
X7258158Y-15240674D02*
X7277205Y-15231150D01*
X7277205Y-15231150D02*
X7305777Y-15231150D01*
X7305777Y-15231150D02*
X7324824Y-15240674D01*
X7324824Y-15240674D02*
X7334348Y-15259722D01*
X7334348Y-15259722D02*
X7334348Y-15364484D01*
X7429586Y-15364484D02*
X7429586Y-15231150D01*
X7429586Y-15250198D02*
X7439110Y-15240674D01*
X7439110Y-15240674D02*
X7458158Y-15231150D01*
X7458158Y-15231150D02*
X7486729Y-15231150D01*
X7486729Y-15231150D02*
X7505777Y-15240674D01*
X7505777Y-15240674D02*
X7515301Y-15259722D01*
X7515301Y-15259722D02*
X7515301Y-15364484D01*
X7515301Y-15259722D02*
X7524824Y-15240674D01*
X7524824Y-15240674D02*
X7543872Y-15231150D01*
X7543872Y-15231150D02*
X7572443Y-15231150D01*
X7572443Y-15231150D02*
X7591491Y-15240674D01*
X7591491Y-15240674D02*
X7601015Y-15259722D01*
X7601015Y-15259722D02*
X7601015Y-15364484D01*
X7991491Y-15154960D02*
X7820063Y-15412103D01*
X8248634Y-15164484D02*
X8267682Y-15164484D01*
X8267682Y-15164484D02*
X8286729Y-15174008D01*
X8286729Y-15174008D02*
X8296253Y-15183531D01*
X8296253Y-15183531D02*
X8305777Y-15202579D01*
X8305777Y-15202579D02*
X8315301Y-15240674D01*
X8315301Y-15240674D02*
X8315301Y-15288293D01*
X8315301Y-15288293D02*
X8305777Y-15326388D01*
X8305777Y-15326388D02*
X8296253Y-15345436D01*
X8296253Y-15345436D02*
X8286729Y-15354960D01*
X8286729Y-15354960D02*
X8267682Y-15364484D01*
X8267682Y-15364484D02*
X8248634Y-15364484D01*
X8248634Y-15364484D02*
X8229586Y-15354960D01*
X8229586Y-15354960D02*
X8220063Y-15345436D01*
X8220063Y-15345436D02*
X8210539Y-15326388D01*
X8210539Y-15326388D02*
X8201015Y-15288293D01*
X8201015Y-15288293D02*
X8201015Y-15240674D01*
X8201015Y-15240674D02*
X8210539Y-15202579D01*
X8210539Y-15202579D02*
X8220063Y-15183531D01*
X8220063Y-15183531D02*
X8229586Y-15174008D01*
X8229586Y-15174008D02*
X8248634Y-15164484D01*
X8401015Y-15345436D02*
X8410539Y-15354960D01*
X8410539Y-15354960D02*
X8401015Y-15364484D01*
X8401015Y-15364484D02*
X8391491Y-15354960D01*
X8391491Y-15354960D02*
X8401015Y-15345436D01*
X8401015Y-15345436D02*
X8401015Y-15364484D01*
X8534348Y-15164484D02*
X8553396Y-15164484D01*
X8553396Y-15164484D02*
X8572444Y-15174008D01*
X8572444Y-15174008D02*
X8581968Y-15183531D01*
X8581968Y-15183531D02*
X8591491Y-15202579D01*
X8591491Y-15202579D02*
X8601015Y-15240674D01*
X8601015Y-15240674D02*
X8601015Y-15288293D01*
X8601015Y-15288293D02*
X8591491Y-15326388D01*
X8591491Y-15326388D02*
X8581968Y-15345436D01*
X8581968Y-15345436D02*
X8572444Y-15354960D01*
X8572444Y-15354960D02*
X8553396Y-15364484D01*
X8553396Y-15364484D02*
X8534348Y-15364484D01*
X8534348Y-15364484D02*
X8515301Y-15354960D01*
X8515301Y-15354960D02*
X8505777Y-15345436D01*
X8505777Y-15345436D02*
X8496253Y-15326388D01*
X8496253Y-15326388D02*
X8486729Y-15288293D01*
X8486729Y-15288293D02*
X8486729Y-15240674D01*
X8486729Y-15240674D02*
X8496253Y-15202579D01*
X8496253Y-15202579D02*
X8505777Y-15183531D01*
X8505777Y-15183531D02*
X8515301Y-15174008D01*
X8515301Y-15174008D02*
X8534348Y-15164484D01*
X8791491Y-15364484D02*
X8677206Y-15364484D01*
X8734348Y-15364484D02*
X8734348Y-15164484D01*
X8734348Y-15164484D02*
X8715301Y-15193055D01*
X8715301Y-15193055D02*
X8696253Y-15212103D01*
X8696253Y-15212103D02*
X8677206Y-15221627D01*
X8886729Y-15364484D02*
X8924825Y-15364484D01*
X8924825Y-15364484D02*
X8943872Y-15354960D01*
X8943872Y-15354960D02*
X8953396Y-15345436D01*
X8953396Y-15345436D02*
X8972444Y-15316865D01*
X8972444Y-15316865D02*
X8981968Y-15278769D01*
X8981968Y-15278769D02*
X8981968Y-15202579D01*
X8981968Y-15202579D02*
X8972444Y-15183531D01*
X8972444Y-15183531D02*
X8962920Y-15174008D01*
X8962920Y-15174008D02*
X8943872Y-15164484D01*
X8943872Y-15164484D02*
X8905777Y-15164484D01*
X8905777Y-15164484D02*
X8886729Y-15174008D01*
X8886729Y-15174008D02*
X8877206Y-15183531D01*
X8877206Y-15183531D02*
X8867682Y-15202579D01*
X8867682Y-15202579D02*
X8867682Y-15250198D01*
X8867682Y-15250198D02*
X8877206Y-15269246D01*
X8877206Y-15269246D02*
X8886729Y-15278769D01*
X8886729Y-15278769D02*
X8905777Y-15288293D01*
X8905777Y-15288293D02*
X8943872Y-15288293D01*
X8943872Y-15288293D02*
X8962920Y-15278769D01*
X8962920Y-15278769D02*
X8972444Y-15269246D01*
X8972444Y-15269246D02*
X8981968Y-15250198D01*
X9048634Y-15164484D02*
X9181968Y-15164484D01*
X9181968Y-15164484D02*
X9096253Y-15364484D01*
X9248634Y-15164484D02*
X9248634Y-15202579D01*
X9324825Y-15164484D02*
X9324825Y-15202579D01*
X9620063Y-15440674D02*
X9610539Y-15431150D01*
X9610539Y-15431150D02*
X9591491Y-15402579D01*
X9591491Y-15402579D02*
X9581968Y-15383531D01*
X9581968Y-15383531D02*
X9572444Y-15354960D01*
X9572444Y-15354960D02*
X9562920Y-15307341D01*
X9562920Y-15307341D02*
X9562920Y-15269246D01*
X9562920Y-15269246D02*
X9572444Y-15221627D01*
X9572444Y-15221627D02*
X9581968Y-15193055D01*
X9581968Y-15193055D02*
X9591491Y-15174008D01*
X9591491Y-15174008D02*
X9610539Y-15145436D01*
X9610539Y-15145436D02*
X9620063Y-15135912D01*
X9677206Y-15164484D02*
X9801015Y-15164484D01*
X9801015Y-15164484D02*
X9734349Y-15240674D01*
X9734349Y-15240674D02*
X9762920Y-15240674D01*
X9762920Y-15240674D02*
X9781968Y-15250198D01*
X9781968Y-15250198D02*
X9791491Y-15259722D01*
X9791491Y-15259722D02*
X9801015Y-15278769D01*
X9801015Y-15278769D02*
X9801015Y-15326388D01*
X9801015Y-15326388D02*
X9791491Y-15345436D01*
X9791491Y-15345436D02*
X9781968Y-15354960D01*
X9781968Y-15354960D02*
X9762920Y-15364484D01*
X9762920Y-15364484D02*
X9705777Y-15364484D01*
X9705777Y-15364484D02*
X9686730Y-15354960D01*
X9686730Y-15354960D02*
X9677206Y-15345436D01*
X10039111Y-15364484D02*
X10039111Y-15164484D01*
X10124825Y-15364484D02*
X10124825Y-15259722D01*
X10124825Y-15259722D02*
X10115301Y-15240674D01*
X10115301Y-15240674D02*
X10096253Y-15231150D01*
X10096253Y-15231150D02*
X10067682Y-15231150D01*
X10067682Y-15231150D02*
X10048634Y-15240674D01*
X10048634Y-15240674D02*
X10039111Y-15250198D01*
X10248634Y-15364484D02*
X10229587Y-15354960D01*
X10229587Y-15354960D02*
X10220063Y-15345436D01*
X10220063Y-15345436D02*
X10210539Y-15326388D01*
X10210539Y-15326388D02*
X10210539Y-15269246D01*
X10210539Y-15269246D02*
X10220063Y-15250198D01*
X10220063Y-15250198D02*
X10229587Y-15240674D01*
X10229587Y-15240674D02*
X10248634Y-15231150D01*
X10248634Y-15231150D02*
X10277206Y-15231150D01*
X10277206Y-15231150D02*
X10296253Y-15240674D01*
X10296253Y-15240674D02*
X10305777Y-15250198D01*
X10305777Y-15250198D02*
X10315301Y-15269246D01*
X10315301Y-15269246D02*
X10315301Y-15326388D01*
X10315301Y-15326388D02*
X10305777Y-15345436D01*
X10305777Y-15345436D02*
X10296253Y-15354960D01*
X10296253Y-15354960D02*
X10277206Y-15364484D01*
X10277206Y-15364484D02*
X10248634Y-15364484D01*
X10429587Y-15364484D02*
X10410539Y-15354960D01*
X10410539Y-15354960D02*
X10401015Y-15335912D01*
X10401015Y-15335912D02*
X10401015Y-15164484D01*
X10581968Y-15354960D02*
X10562920Y-15364484D01*
X10562920Y-15364484D02*
X10524825Y-15364484D01*
X10524825Y-15364484D02*
X10505777Y-15354960D01*
X10505777Y-15354960D02*
X10496253Y-15335912D01*
X10496253Y-15335912D02*
X10496253Y-15259722D01*
X10496253Y-15259722D02*
X10505777Y-15240674D01*
X10505777Y-15240674D02*
X10524825Y-15231150D01*
X10524825Y-15231150D02*
X10562920Y-15231150D01*
X10562920Y-15231150D02*
X10581968Y-15240674D01*
X10581968Y-15240674D02*
X10591492Y-15259722D01*
X10591492Y-15259722D02*
X10591492Y-15278769D01*
X10591492Y-15278769D02*
X10496253Y-15297817D01*
X10667682Y-15354960D02*
X10686730Y-15364484D01*
X10686730Y-15364484D02*
X10724825Y-15364484D01*
X10724825Y-15364484D02*
X10743873Y-15354960D01*
X10743873Y-15354960D02*
X10753396Y-15335912D01*
X10753396Y-15335912D02*
X10753396Y-15326388D01*
X10753396Y-15326388D02*
X10743873Y-15307341D01*
X10743873Y-15307341D02*
X10724825Y-15297817D01*
X10724825Y-15297817D02*
X10696253Y-15297817D01*
X10696253Y-15297817D02*
X10677206Y-15288293D01*
X10677206Y-15288293D02*
X10667682Y-15269246D01*
X10667682Y-15269246D02*
X10667682Y-15259722D01*
X10667682Y-15259722D02*
X10677206Y-15240674D01*
X10677206Y-15240674D02*
X10696253Y-15231150D01*
X10696253Y-15231150D02*
X10724825Y-15231150D01*
X10724825Y-15231150D02*
X10743873Y-15240674D01*
X10820063Y-15440674D02*
X10829587Y-15431150D01*
X10829587Y-15431150D02*
X10848634Y-15402579D01*
X10848634Y-15402579D02*
X10858158Y-15383531D01*
X10858158Y-15383531D02*
X10867682Y-15354960D01*
X10867682Y-15354960D02*
X10877206Y-15307341D01*
X10877206Y-15307341D02*
X10877206Y-15269246D01*
X10877206Y-15269246D02*
X10867682Y-15221627D01*
X10867682Y-15221627D02*
X10858158Y-15193055D01*
X10858158Y-15193055D02*
X10848634Y-15174008D01*
X10848634Y-15174008D02*
X10829587Y-15145436D01*
X10829587Y-15145436D02*
X10820063Y-15135912D01*
D10*
X6033284Y-15565284D02*
X6033284Y-15508715D01*
X5976715Y-15508715D01*
X5976715Y-15565284D01*
X6033284Y-15565284D01*
D11*
X6343872Y-15428484D02*
X6362920Y-15428484D01*
X6362920Y-15428484D02*
X6381967Y-15438008D01*
X6381967Y-15438008D02*
X6391491Y-15447531D01*
X6391491Y-15447531D02*
X6401015Y-15466579D01*
X6401015Y-15466579D02*
X6410539Y-15504674D01*
X6410539Y-15504674D02*
X6410539Y-15552293D01*
X6410539Y-15552293D02*
X6401015Y-15590388D01*
X6401015Y-15590388D02*
X6391491Y-15609436D01*
X6391491Y-15609436D02*
X6381967Y-15618960D01*
X6381967Y-15618960D02*
X6362920Y-15628484D01*
X6362920Y-15628484D02*
X6343872Y-15628484D01*
X6343872Y-15628484D02*
X6324824Y-15618960D01*
X6324824Y-15618960D02*
X6315301Y-15609436D01*
X6315301Y-15609436D02*
X6305777Y-15590388D01*
X6305777Y-15590388D02*
X6296253Y-15552293D01*
X6296253Y-15552293D02*
X6296253Y-15504674D01*
X6296253Y-15504674D02*
X6305777Y-15466579D01*
X6305777Y-15466579D02*
X6315301Y-15447531D01*
X6315301Y-15447531D02*
X6324824Y-15438008D01*
X6324824Y-15438008D02*
X6343872Y-15428484D01*
X6496253Y-15609436D02*
X6505777Y-15618960D01*
X6505777Y-15618960D02*
X6496253Y-15628484D01*
X6496253Y-15628484D02*
X6486729Y-15618960D01*
X6486729Y-15618960D02*
X6496253Y-15609436D01*
X6496253Y-15609436D02*
X6496253Y-15628484D01*
X6620062Y-15514198D02*
X6601015Y-15504674D01*
X6601015Y-15504674D02*
X6591491Y-15495150D01*
X6591491Y-15495150D02*
X6581967Y-15476103D01*
X6581967Y-15476103D02*
X6581967Y-15466579D01*
X6581967Y-15466579D02*
X6591491Y-15447531D01*
X6591491Y-15447531D02*
X6601015Y-15438008D01*
X6601015Y-15438008D02*
X6620062Y-15428484D01*
X6620062Y-15428484D02*
X6658158Y-15428484D01*
X6658158Y-15428484D02*
X6677205Y-15438008D01*
X6677205Y-15438008D02*
X6686729Y-15447531D01*
X6686729Y-15447531D02*
X6696253Y-15466579D01*
X6696253Y-15466579D02*
X6696253Y-15476103D01*
X6696253Y-15476103D02*
X6686729Y-15495150D01*
X6686729Y-15495150D02*
X6677205Y-15504674D01*
X6677205Y-15504674D02*
X6658158Y-15514198D01*
X6658158Y-15514198D02*
X6620062Y-15514198D01*
X6620062Y-15514198D02*
X6601015Y-15523722D01*
X6601015Y-15523722D02*
X6591491Y-15533246D01*
X6591491Y-15533246D02*
X6581967Y-15552293D01*
X6581967Y-15552293D02*
X6581967Y-15590388D01*
X6581967Y-15590388D02*
X6591491Y-15609436D01*
X6591491Y-15609436D02*
X6601015Y-15618960D01*
X6601015Y-15618960D02*
X6620062Y-15628484D01*
X6620062Y-15628484D02*
X6658158Y-15628484D01*
X6658158Y-15628484D02*
X6677205Y-15618960D01*
X6677205Y-15618960D02*
X6686729Y-15609436D01*
X6686729Y-15609436D02*
X6696253Y-15590388D01*
X6696253Y-15590388D02*
X6696253Y-15552293D01*
X6696253Y-15552293D02*
X6686729Y-15533246D01*
X6686729Y-15533246D02*
X6677205Y-15523722D01*
X6677205Y-15523722D02*
X6658158Y-15514198D01*
X6820062Y-15428484D02*
X6839110Y-15428484D01*
X6839110Y-15428484D02*
X6858158Y-15438008D01*
X6858158Y-15438008D02*
X6867682Y-15447531D01*
X6867682Y-15447531D02*
X6877205Y-15466579D01*
X6877205Y-15466579D02*
X6886729Y-15504674D01*
X6886729Y-15504674D02*
X6886729Y-15552293D01*
X6886729Y-15552293D02*
X6877205Y-15590388D01*
X6877205Y-15590388D02*
X6867682Y-15609436D01*
X6867682Y-15609436D02*
X6858158Y-15618960D01*
X6858158Y-15618960D02*
X6839110Y-15628484D01*
X6839110Y-15628484D02*
X6820062Y-15628484D01*
X6820062Y-15628484D02*
X6801015Y-15618960D01*
X6801015Y-15618960D02*
X6791491Y-15609436D01*
X6791491Y-15609436D02*
X6781967Y-15590388D01*
X6781967Y-15590388D02*
X6772443Y-15552293D01*
X6772443Y-15552293D02*
X6772443Y-15504674D01*
X6772443Y-15504674D02*
X6781967Y-15466579D01*
X6781967Y-15466579D02*
X6791491Y-15447531D01*
X6791491Y-15447531D02*
X6801015Y-15438008D01*
X6801015Y-15438008D02*
X6820062Y-15428484D01*
X7010539Y-15428484D02*
X7029586Y-15428484D01*
X7029586Y-15428484D02*
X7048634Y-15438008D01*
X7048634Y-15438008D02*
X7058158Y-15447531D01*
X7058158Y-15447531D02*
X7067682Y-15466579D01*
X7067682Y-15466579D02*
X7077205Y-15504674D01*
X7077205Y-15504674D02*
X7077205Y-15552293D01*
X7077205Y-15552293D02*
X7067682Y-15590388D01*
X7067682Y-15590388D02*
X7058158Y-15609436D01*
X7058158Y-15609436D02*
X7048634Y-15618960D01*
X7048634Y-15618960D02*
X7029586Y-15628484D01*
X7029586Y-15628484D02*
X7010539Y-15628484D01*
X7010539Y-15628484D02*
X6991491Y-15618960D01*
X6991491Y-15618960D02*
X6981967Y-15609436D01*
X6981967Y-15609436D02*
X6972443Y-15590388D01*
X6972443Y-15590388D02*
X6962920Y-15552293D01*
X6962920Y-15552293D02*
X6962920Y-15504674D01*
X6962920Y-15504674D02*
X6972443Y-15466579D01*
X6972443Y-15466579D02*
X6981967Y-15447531D01*
X6981967Y-15447531D02*
X6991491Y-15438008D01*
X6991491Y-15438008D02*
X7010539Y-15428484D01*
X7162920Y-15628484D02*
X7162920Y-15495150D01*
X7162920Y-15514198D02*
X7172443Y-15504674D01*
X7172443Y-15504674D02*
X7191491Y-15495150D01*
X7191491Y-15495150D02*
X7220063Y-15495150D01*
X7220063Y-15495150D02*
X7239110Y-15504674D01*
X7239110Y-15504674D02*
X7248634Y-15523722D01*
X7248634Y-15523722D02*
X7248634Y-15628484D01*
X7248634Y-15523722D02*
X7258158Y-15504674D01*
X7258158Y-15504674D02*
X7277205Y-15495150D01*
X7277205Y-15495150D02*
X7305777Y-15495150D01*
X7305777Y-15495150D02*
X7324824Y-15504674D01*
X7324824Y-15504674D02*
X7334348Y-15523722D01*
X7334348Y-15523722D02*
X7334348Y-15628484D01*
X7429586Y-15628484D02*
X7429586Y-15495150D01*
X7429586Y-15514198D02*
X7439110Y-15504674D01*
X7439110Y-15504674D02*
X7458158Y-15495150D01*
X7458158Y-15495150D02*
X7486729Y-15495150D01*
X7486729Y-15495150D02*
X7505777Y-15504674D01*
X7505777Y-15504674D02*
X7515301Y-15523722D01*
X7515301Y-15523722D02*
X7515301Y-15628484D01*
X7515301Y-15523722D02*
X7524824Y-15504674D01*
X7524824Y-15504674D02*
X7543872Y-15495150D01*
X7543872Y-15495150D02*
X7572443Y-15495150D01*
X7572443Y-15495150D02*
X7591491Y-15504674D01*
X7591491Y-15504674D02*
X7601015Y-15523722D01*
X7601015Y-15523722D02*
X7601015Y-15628484D01*
X7991491Y-15418960D02*
X7820063Y-15676103D01*
X8248634Y-15428484D02*
X8267682Y-15428484D01*
X8267682Y-15428484D02*
X8286729Y-15438008D01*
X8286729Y-15438008D02*
X8296253Y-15447531D01*
X8296253Y-15447531D02*
X8305777Y-15466579D01*
X8305777Y-15466579D02*
X8315301Y-15504674D01*
X8315301Y-15504674D02*
X8315301Y-15552293D01*
X8315301Y-15552293D02*
X8305777Y-15590388D01*
X8305777Y-15590388D02*
X8296253Y-15609436D01*
X8296253Y-15609436D02*
X8286729Y-15618960D01*
X8286729Y-15618960D02*
X8267682Y-15628484D01*
X8267682Y-15628484D02*
X8248634Y-15628484D01*
X8248634Y-15628484D02*
X8229586Y-15618960D01*
X8229586Y-15618960D02*
X8220063Y-15609436D01*
X8220063Y-15609436D02*
X8210539Y-15590388D01*
X8210539Y-15590388D02*
X8201015Y-15552293D01*
X8201015Y-15552293D02*
X8201015Y-15504674D01*
X8201015Y-15504674D02*
X8210539Y-15466579D01*
X8210539Y-15466579D02*
X8220063Y-15447531D01*
X8220063Y-15447531D02*
X8229586Y-15438008D01*
X8229586Y-15438008D02*
X8248634Y-15428484D01*
X8401015Y-15609436D02*
X8410539Y-15618960D01*
X8410539Y-15618960D02*
X8401015Y-15628484D01*
X8401015Y-15628484D02*
X8391491Y-15618960D01*
X8391491Y-15618960D02*
X8401015Y-15609436D01*
X8401015Y-15609436D02*
X8401015Y-15628484D01*
X8534348Y-15428484D02*
X8553396Y-15428484D01*
X8553396Y-15428484D02*
X8572444Y-15438008D01*
X8572444Y-15438008D02*
X8581968Y-15447531D01*
X8581968Y-15447531D02*
X8591491Y-15466579D01*
X8591491Y-15466579D02*
X8601015Y-15504674D01*
X8601015Y-15504674D02*
X8601015Y-15552293D01*
X8601015Y-15552293D02*
X8591491Y-15590388D01*
X8591491Y-15590388D02*
X8581968Y-15609436D01*
X8581968Y-15609436D02*
X8572444Y-15618960D01*
X8572444Y-15618960D02*
X8553396Y-15628484D01*
X8553396Y-15628484D02*
X8534348Y-15628484D01*
X8534348Y-15628484D02*
X8515301Y-15618960D01*
X8515301Y-15618960D02*
X8505777Y-15609436D01*
X8505777Y-15609436D02*
X8496253Y-15590388D01*
X8496253Y-15590388D02*
X8486729Y-15552293D01*
X8486729Y-15552293D02*
X8486729Y-15504674D01*
X8486729Y-15504674D02*
X8496253Y-15466579D01*
X8496253Y-15466579D02*
X8505777Y-15447531D01*
X8505777Y-15447531D02*
X8515301Y-15438008D01*
X8515301Y-15438008D02*
X8534348Y-15428484D01*
X8667682Y-15428484D02*
X8791491Y-15428484D01*
X8791491Y-15428484D02*
X8724825Y-15504674D01*
X8724825Y-15504674D02*
X8753396Y-15504674D01*
X8753396Y-15504674D02*
X8772444Y-15514198D01*
X8772444Y-15514198D02*
X8781968Y-15523722D01*
X8781968Y-15523722D02*
X8791491Y-15542769D01*
X8791491Y-15542769D02*
X8791491Y-15590388D01*
X8791491Y-15590388D02*
X8781968Y-15609436D01*
X8781968Y-15609436D02*
X8772444Y-15618960D01*
X8772444Y-15618960D02*
X8753396Y-15628484D01*
X8753396Y-15628484D02*
X8696253Y-15628484D01*
X8696253Y-15628484D02*
X8677206Y-15618960D01*
X8677206Y-15618960D02*
X8667682Y-15609436D01*
X8981968Y-15628484D02*
X8867682Y-15628484D01*
X8924825Y-15628484D02*
X8924825Y-15428484D01*
X8924825Y-15428484D02*
X8905777Y-15457055D01*
X8905777Y-15457055D02*
X8886729Y-15476103D01*
X8886729Y-15476103D02*
X8867682Y-15485627D01*
X9162920Y-15428484D02*
X9067682Y-15428484D01*
X9067682Y-15428484D02*
X9058158Y-15523722D01*
X9058158Y-15523722D02*
X9067682Y-15514198D01*
X9067682Y-15514198D02*
X9086729Y-15504674D01*
X9086729Y-15504674D02*
X9134349Y-15504674D01*
X9134349Y-15504674D02*
X9153396Y-15514198D01*
X9153396Y-15514198D02*
X9162920Y-15523722D01*
X9162920Y-15523722D02*
X9172444Y-15542769D01*
X9172444Y-15542769D02*
X9172444Y-15590388D01*
X9172444Y-15590388D02*
X9162920Y-15609436D01*
X9162920Y-15609436D02*
X9153396Y-15618960D01*
X9153396Y-15618960D02*
X9134349Y-15628484D01*
X9134349Y-15628484D02*
X9086729Y-15628484D01*
X9086729Y-15628484D02*
X9067682Y-15618960D01*
X9067682Y-15618960D02*
X9058158Y-15609436D01*
X9248634Y-15428484D02*
X9248634Y-15466579D01*
X9324825Y-15428484D02*
X9324825Y-15466579D01*
X9620063Y-15704674D02*
X9610539Y-15695150D01*
X9610539Y-15695150D02*
X9591491Y-15666579D01*
X9591491Y-15666579D02*
X9581968Y-15647531D01*
X9581968Y-15647531D02*
X9572444Y-15618960D01*
X9572444Y-15618960D02*
X9562920Y-15571341D01*
X9562920Y-15571341D02*
X9562920Y-15533246D01*
X9562920Y-15533246D02*
X9572444Y-15485627D01*
X9572444Y-15485627D02*
X9581968Y-15457055D01*
X9581968Y-15457055D02*
X9591491Y-15438008D01*
X9591491Y-15438008D02*
X9610539Y-15409436D01*
X9610539Y-15409436D02*
X9620063Y-15399912D01*
X9686730Y-15447531D02*
X9696253Y-15438008D01*
X9696253Y-15438008D02*
X9715301Y-15428484D01*
X9715301Y-15428484D02*
X9762920Y-15428484D01*
X9762920Y-15428484D02*
X9781968Y-15438008D01*
X9781968Y-15438008D02*
X9791491Y-15447531D01*
X9791491Y-15447531D02*
X9801015Y-15466579D01*
X9801015Y-15466579D02*
X9801015Y-15485627D01*
X9801015Y-15485627D02*
X9791491Y-15514198D01*
X9791491Y-15514198D02*
X9677206Y-15628484D01*
X9677206Y-15628484D02*
X9801015Y-15628484D01*
X9924825Y-15428484D02*
X9943872Y-15428484D01*
X9943872Y-15428484D02*
X9962920Y-15438008D01*
X9962920Y-15438008D02*
X9972444Y-15447531D01*
X9972444Y-15447531D02*
X9981968Y-15466579D01*
X9981968Y-15466579D02*
X9991491Y-15504674D01*
X9991491Y-15504674D02*
X9991491Y-15552293D01*
X9991491Y-15552293D02*
X9981968Y-15590388D01*
X9981968Y-15590388D02*
X9972444Y-15609436D01*
X9972444Y-15609436D02*
X9962920Y-15618960D01*
X9962920Y-15618960D02*
X9943872Y-15628484D01*
X9943872Y-15628484D02*
X9924825Y-15628484D01*
X9924825Y-15628484D02*
X9905777Y-15618960D01*
X9905777Y-15618960D02*
X9896253Y-15609436D01*
X9896253Y-15609436D02*
X9886730Y-15590388D01*
X9886730Y-15590388D02*
X9877206Y-15552293D01*
X9877206Y-15552293D02*
X9877206Y-15504674D01*
X9877206Y-15504674D02*
X9886730Y-15466579D01*
X9886730Y-15466579D02*
X9896253Y-15447531D01*
X9896253Y-15447531D02*
X9905777Y-15438008D01*
X9905777Y-15438008D02*
X9924825Y-15428484D01*
X10229587Y-15628484D02*
X10229587Y-15428484D01*
X10315301Y-15628484D02*
X10315301Y-15523722D01*
X10315301Y-15523722D02*
X10305777Y-15504674D01*
X10305777Y-15504674D02*
X10286730Y-15495150D01*
X10286730Y-15495150D02*
X10258158Y-15495150D01*
X10258158Y-15495150D02*
X10239111Y-15504674D01*
X10239111Y-15504674D02*
X10229587Y-15514198D01*
X10439111Y-15628484D02*
X10420063Y-15618960D01*
X10420063Y-15618960D02*
X10410539Y-15609436D01*
X10410539Y-15609436D02*
X10401015Y-15590388D01*
X10401015Y-15590388D02*
X10401015Y-15533246D01*
X10401015Y-15533246D02*
X10410539Y-15514198D01*
X10410539Y-15514198D02*
X10420063Y-15504674D01*
X10420063Y-15504674D02*
X10439111Y-15495150D01*
X10439111Y-15495150D02*
X10467682Y-15495150D01*
X10467682Y-15495150D02*
X10486730Y-15504674D01*
X10486730Y-15504674D02*
X10496253Y-15514198D01*
X10496253Y-15514198D02*
X10505777Y-15533246D01*
X10505777Y-15533246D02*
X10505777Y-15590388D01*
X10505777Y-15590388D02*
X10496253Y-15609436D01*
X10496253Y-15609436D02*
X10486730Y-15618960D01*
X10486730Y-15618960D02*
X10467682Y-15628484D01*
X10467682Y-15628484D02*
X10439111Y-15628484D01*
X10620063Y-15628484D02*
X10601015Y-15618960D01*
X10601015Y-15618960D02*
X10591492Y-15599912D01*
X10591492Y-15599912D02*
X10591492Y-15428484D01*
X10772444Y-15618960D02*
X10753396Y-15628484D01*
X10753396Y-15628484D02*
X10715301Y-15628484D01*
X10715301Y-15628484D02*
X10696253Y-15618960D01*
X10696253Y-15618960D02*
X10686730Y-15599912D01*
X10686730Y-15599912D02*
X10686730Y-15523722D01*
X10686730Y-15523722D02*
X10696253Y-15504674D01*
X10696253Y-15504674D02*
X10715301Y-15495150D01*
X10715301Y-15495150D02*
X10753396Y-15495150D01*
X10753396Y-15495150D02*
X10772444Y-15504674D01*
X10772444Y-15504674D02*
X10781968Y-15523722D01*
X10781968Y-15523722D02*
X10781968Y-15542769D01*
X10781968Y-15542769D02*
X10686730Y-15561817D01*
X10858158Y-15618960D02*
X10877206Y-15628484D01*
X10877206Y-15628484D02*
X10915301Y-15628484D01*
X10915301Y-15628484D02*
X10934349Y-15618960D01*
X10934349Y-15618960D02*
X10943873Y-15599912D01*
X10943873Y-15599912D02*
X10943873Y-15590388D01*
X10943873Y-15590388D02*
X10934349Y-15571341D01*
X10934349Y-15571341D02*
X10915301Y-15561817D01*
X10915301Y-15561817D02*
X10886730Y-15561817D01*
X10886730Y-15561817D02*
X10867682Y-15552293D01*
X10867682Y-15552293D02*
X10858158Y-15533246D01*
X10858158Y-15533246D02*
X10858158Y-15523722D01*
X10858158Y-15523722D02*
X10867682Y-15504674D01*
X10867682Y-15504674D02*
X10886730Y-15495150D01*
X10886730Y-15495150D02*
X10915301Y-15495150D01*
X10915301Y-15495150D02*
X10934349Y-15504674D01*
X11010539Y-15704674D02*
X11020063Y-15695150D01*
X11020063Y-15695150D02*
X11039111Y-15666579D01*
X11039111Y-15666579D02*
X11048634Y-15647531D01*
X11048634Y-15647531D02*
X11058158Y-15618960D01*
X11058158Y-15618960D02*
X11067682Y-15571341D01*
X11067682Y-15571341D02*
X11067682Y-15533246D01*
X11067682Y-15533246D02*
X11058158Y-15485627D01*
X11058158Y-15485627D02*
X11048634Y-15457055D01*
X11048634Y-15457055D02*
X11039111Y-15438008D01*
X11039111Y-15438008D02*
X11020063Y-15409436D01*
X11020063Y-15409436D02*
X11010539Y-15399912D01*
D10*
X5995000Y-15851000D02*
X6045000Y-15801000D01*
X5995000Y-15751000D01*
X5945000Y-15801000D01*
X5995000Y-15851000D01*
D11*
X6410539Y-15892484D02*
X6296253Y-15892484D01*
X6353396Y-15892484D02*
X6353396Y-15692484D01*
X6353396Y-15692484D02*
X6334348Y-15721055D01*
X6334348Y-15721055D02*
X6315301Y-15740103D01*
X6315301Y-15740103D02*
X6296253Y-15749627D01*
X6496253Y-15873436D02*
X6505777Y-15882960D01*
X6505777Y-15882960D02*
X6496253Y-15892484D01*
X6496253Y-15892484D02*
X6486729Y-15882960D01*
X6486729Y-15882960D02*
X6496253Y-15873436D01*
X6496253Y-15873436D02*
X6496253Y-15892484D01*
X6629586Y-15692484D02*
X6648634Y-15692484D01*
X6648634Y-15692484D02*
X6667682Y-15702008D01*
X6667682Y-15702008D02*
X6677205Y-15711531D01*
X6677205Y-15711531D02*
X6686729Y-15730579D01*
X6686729Y-15730579D02*
X6696253Y-15768674D01*
X6696253Y-15768674D02*
X6696253Y-15816293D01*
X6696253Y-15816293D02*
X6686729Y-15854388D01*
X6686729Y-15854388D02*
X6677205Y-15873436D01*
X6677205Y-15873436D02*
X6667682Y-15882960D01*
X6667682Y-15882960D02*
X6648634Y-15892484D01*
X6648634Y-15892484D02*
X6629586Y-15892484D01*
X6629586Y-15892484D02*
X6610539Y-15882960D01*
X6610539Y-15882960D02*
X6601015Y-15873436D01*
X6601015Y-15873436D02*
X6591491Y-15854388D01*
X6591491Y-15854388D02*
X6581967Y-15816293D01*
X6581967Y-15816293D02*
X6581967Y-15768674D01*
X6581967Y-15768674D02*
X6591491Y-15730579D01*
X6591491Y-15730579D02*
X6601015Y-15711531D01*
X6601015Y-15711531D02*
X6610539Y-15702008D01*
X6610539Y-15702008D02*
X6629586Y-15692484D01*
X6820062Y-15692484D02*
X6839110Y-15692484D01*
X6839110Y-15692484D02*
X6858158Y-15702008D01*
X6858158Y-15702008D02*
X6867682Y-15711531D01*
X6867682Y-15711531D02*
X6877205Y-15730579D01*
X6877205Y-15730579D02*
X6886729Y-15768674D01*
X6886729Y-15768674D02*
X6886729Y-15816293D01*
X6886729Y-15816293D02*
X6877205Y-15854388D01*
X6877205Y-15854388D02*
X6867682Y-15873436D01*
X6867682Y-15873436D02*
X6858158Y-15882960D01*
X6858158Y-15882960D02*
X6839110Y-15892484D01*
X6839110Y-15892484D02*
X6820062Y-15892484D01*
X6820062Y-15892484D02*
X6801015Y-15882960D01*
X6801015Y-15882960D02*
X6791491Y-15873436D01*
X6791491Y-15873436D02*
X6781967Y-15854388D01*
X6781967Y-15854388D02*
X6772443Y-15816293D01*
X6772443Y-15816293D02*
X6772443Y-15768674D01*
X6772443Y-15768674D02*
X6781967Y-15730579D01*
X6781967Y-15730579D02*
X6791491Y-15711531D01*
X6791491Y-15711531D02*
X6801015Y-15702008D01*
X6801015Y-15702008D02*
X6820062Y-15692484D01*
X7010539Y-15692484D02*
X7029586Y-15692484D01*
X7029586Y-15692484D02*
X7048634Y-15702008D01*
X7048634Y-15702008D02*
X7058158Y-15711531D01*
X7058158Y-15711531D02*
X7067682Y-15730579D01*
X7067682Y-15730579D02*
X7077205Y-15768674D01*
X7077205Y-15768674D02*
X7077205Y-15816293D01*
X7077205Y-15816293D02*
X7067682Y-15854388D01*
X7067682Y-15854388D02*
X7058158Y-15873436D01*
X7058158Y-15873436D02*
X7048634Y-15882960D01*
X7048634Y-15882960D02*
X7029586Y-15892484D01*
X7029586Y-15892484D02*
X7010539Y-15892484D01*
X7010539Y-15892484D02*
X6991491Y-15882960D01*
X6991491Y-15882960D02*
X6981967Y-15873436D01*
X6981967Y-15873436D02*
X6972443Y-15854388D01*
X6972443Y-15854388D02*
X6962920Y-15816293D01*
X6962920Y-15816293D02*
X6962920Y-15768674D01*
X6962920Y-15768674D02*
X6972443Y-15730579D01*
X6972443Y-15730579D02*
X6981967Y-15711531D01*
X6981967Y-15711531D02*
X6991491Y-15702008D01*
X6991491Y-15702008D02*
X7010539Y-15692484D01*
X7162920Y-15892484D02*
X7162920Y-15759150D01*
X7162920Y-15778198D02*
X7172443Y-15768674D01*
X7172443Y-15768674D02*
X7191491Y-15759150D01*
X7191491Y-15759150D02*
X7220063Y-15759150D01*
X7220063Y-15759150D02*
X7239110Y-15768674D01*
X7239110Y-15768674D02*
X7248634Y-15787722D01*
X7248634Y-15787722D02*
X7248634Y-15892484D01*
X7248634Y-15787722D02*
X7258158Y-15768674D01*
X7258158Y-15768674D02*
X7277205Y-15759150D01*
X7277205Y-15759150D02*
X7305777Y-15759150D01*
X7305777Y-15759150D02*
X7324824Y-15768674D01*
X7324824Y-15768674D02*
X7334348Y-15787722D01*
X7334348Y-15787722D02*
X7334348Y-15892484D01*
X7429586Y-15892484D02*
X7429586Y-15759150D01*
X7429586Y-15778198D02*
X7439110Y-15768674D01*
X7439110Y-15768674D02*
X7458158Y-15759150D01*
X7458158Y-15759150D02*
X7486729Y-15759150D01*
X7486729Y-15759150D02*
X7505777Y-15768674D01*
X7505777Y-15768674D02*
X7515301Y-15787722D01*
X7515301Y-15787722D02*
X7515301Y-15892484D01*
X7515301Y-15787722D02*
X7524824Y-15768674D01*
X7524824Y-15768674D02*
X7543872Y-15759150D01*
X7543872Y-15759150D02*
X7572443Y-15759150D01*
X7572443Y-15759150D02*
X7591491Y-15768674D01*
X7591491Y-15768674D02*
X7601015Y-15787722D01*
X7601015Y-15787722D02*
X7601015Y-15892484D01*
X7991491Y-15682960D02*
X7820063Y-15940103D01*
X8248634Y-15692484D02*
X8267682Y-15692484D01*
X8267682Y-15692484D02*
X8286729Y-15702008D01*
X8286729Y-15702008D02*
X8296253Y-15711531D01*
X8296253Y-15711531D02*
X8305777Y-15730579D01*
X8305777Y-15730579D02*
X8315301Y-15768674D01*
X8315301Y-15768674D02*
X8315301Y-15816293D01*
X8315301Y-15816293D02*
X8305777Y-15854388D01*
X8305777Y-15854388D02*
X8296253Y-15873436D01*
X8296253Y-15873436D02*
X8286729Y-15882960D01*
X8286729Y-15882960D02*
X8267682Y-15892484D01*
X8267682Y-15892484D02*
X8248634Y-15892484D01*
X8248634Y-15892484D02*
X8229586Y-15882960D01*
X8229586Y-15882960D02*
X8220063Y-15873436D01*
X8220063Y-15873436D02*
X8210539Y-15854388D01*
X8210539Y-15854388D02*
X8201015Y-15816293D01*
X8201015Y-15816293D02*
X8201015Y-15768674D01*
X8201015Y-15768674D02*
X8210539Y-15730579D01*
X8210539Y-15730579D02*
X8220063Y-15711531D01*
X8220063Y-15711531D02*
X8229586Y-15702008D01*
X8229586Y-15702008D02*
X8248634Y-15692484D01*
X8401015Y-15873436D02*
X8410539Y-15882960D01*
X8410539Y-15882960D02*
X8401015Y-15892484D01*
X8401015Y-15892484D02*
X8391491Y-15882960D01*
X8391491Y-15882960D02*
X8401015Y-15873436D01*
X8401015Y-15873436D02*
X8401015Y-15892484D01*
X8534348Y-15692484D02*
X8553396Y-15692484D01*
X8553396Y-15692484D02*
X8572444Y-15702008D01*
X8572444Y-15702008D02*
X8581968Y-15711531D01*
X8581968Y-15711531D02*
X8591491Y-15730579D01*
X8591491Y-15730579D02*
X8601015Y-15768674D01*
X8601015Y-15768674D02*
X8601015Y-15816293D01*
X8601015Y-15816293D02*
X8591491Y-15854388D01*
X8591491Y-15854388D02*
X8581968Y-15873436D01*
X8581968Y-15873436D02*
X8572444Y-15882960D01*
X8572444Y-15882960D02*
X8553396Y-15892484D01*
X8553396Y-15892484D02*
X8534348Y-15892484D01*
X8534348Y-15892484D02*
X8515301Y-15882960D01*
X8515301Y-15882960D02*
X8505777Y-15873436D01*
X8505777Y-15873436D02*
X8496253Y-15854388D01*
X8496253Y-15854388D02*
X8486729Y-15816293D01*
X8486729Y-15816293D02*
X8486729Y-15768674D01*
X8486729Y-15768674D02*
X8496253Y-15730579D01*
X8496253Y-15730579D02*
X8505777Y-15711531D01*
X8505777Y-15711531D02*
X8515301Y-15702008D01*
X8515301Y-15702008D02*
X8534348Y-15692484D01*
X8667682Y-15692484D02*
X8791491Y-15692484D01*
X8791491Y-15692484D02*
X8724825Y-15768674D01*
X8724825Y-15768674D02*
X8753396Y-15768674D01*
X8753396Y-15768674D02*
X8772444Y-15778198D01*
X8772444Y-15778198D02*
X8781968Y-15787722D01*
X8781968Y-15787722D02*
X8791491Y-15806769D01*
X8791491Y-15806769D02*
X8791491Y-15854388D01*
X8791491Y-15854388D02*
X8781968Y-15873436D01*
X8781968Y-15873436D02*
X8772444Y-15882960D01*
X8772444Y-15882960D02*
X8753396Y-15892484D01*
X8753396Y-15892484D02*
X8696253Y-15892484D01*
X8696253Y-15892484D02*
X8677206Y-15882960D01*
X8677206Y-15882960D02*
X8667682Y-15873436D01*
X8886729Y-15892484D02*
X8924825Y-15892484D01*
X8924825Y-15892484D02*
X8943872Y-15882960D01*
X8943872Y-15882960D02*
X8953396Y-15873436D01*
X8953396Y-15873436D02*
X8972444Y-15844865D01*
X8972444Y-15844865D02*
X8981968Y-15806769D01*
X8981968Y-15806769D02*
X8981968Y-15730579D01*
X8981968Y-15730579D02*
X8972444Y-15711531D01*
X8972444Y-15711531D02*
X8962920Y-15702008D01*
X8962920Y-15702008D02*
X8943872Y-15692484D01*
X8943872Y-15692484D02*
X8905777Y-15692484D01*
X8905777Y-15692484D02*
X8886729Y-15702008D01*
X8886729Y-15702008D02*
X8877206Y-15711531D01*
X8877206Y-15711531D02*
X8867682Y-15730579D01*
X8867682Y-15730579D02*
X8867682Y-15778198D01*
X8867682Y-15778198D02*
X8877206Y-15797246D01*
X8877206Y-15797246D02*
X8886729Y-15806769D01*
X8886729Y-15806769D02*
X8905777Y-15816293D01*
X8905777Y-15816293D02*
X8943872Y-15816293D01*
X8943872Y-15816293D02*
X8962920Y-15806769D01*
X8962920Y-15806769D02*
X8972444Y-15797246D01*
X8972444Y-15797246D02*
X8981968Y-15778198D01*
X9153396Y-15759150D02*
X9153396Y-15892484D01*
X9105777Y-15682960D02*
X9058158Y-15825817D01*
X9058158Y-15825817D02*
X9181968Y-15825817D01*
X9248634Y-15692484D02*
X9248634Y-15730579D01*
X9324825Y-15692484D02*
X9324825Y-15730579D01*
X9620063Y-15968674D02*
X9610539Y-15959150D01*
X9610539Y-15959150D02*
X9591491Y-15930579D01*
X9591491Y-15930579D02*
X9581968Y-15911531D01*
X9581968Y-15911531D02*
X9572444Y-15882960D01*
X9572444Y-15882960D02*
X9562920Y-15835341D01*
X9562920Y-15835341D02*
X9562920Y-15797246D01*
X9562920Y-15797246D02*
X9572444Y-15749627D01*
X9572444Y-15749627D02*
X9581968Y-15721055D01*
X9581968Y-15721055D02*
X9591491Y-15702008D01*
X9591491Y-15702008D02*
X9610539Y-15673436D01*
X9610539Y-15673436D02*
X9620063Y-15663912D01*
X9724825Y-15778198D02*
X9705777Y-15768674D01*
X9705777Y-15768674D02*
X9696253Y-15759150D01*
X9696253Y-15759150D02*
X9686730Y-15740103D01*
X9686730Y-15740103D02*
X9686730Y-15730579D01*
X9686730Y-15730579D02*
X9696253Y-15711531D01*
X9696253Y-15711531D02*
X9705777Y-15702008D01*
X9705777Y-15702008D02*
X9724825Y-15692484D01*
X9724825Y-15692484D02*
X9762920Y-15692484D01*
X9762920Y-15692484D02*
X9781968Y-15702008D01*
X9781968Y-15702008D02*
X9791491Y-15711531D01*
X9791491Y-15711531D02*
X9801015Y-15730579D01*
X9801015Y-15730579D02*
X9801015Y-15740103D01*
X9801015Y-15740103D02*
X9791491Y-15759150D01*
X9791491Y-15759150D02*
X9781968Y-15768674D01*
X9781968Y-15768674D02*
X9762920Y-15778198D01*
X9762920Y-15778198D02*
X9724825Y-15778198D01*
X9724825Y-15778198D02*
X9705777Y-15787722D01*
X9705777Y-15787722D02*
X9696253Y-15797246D01*
X9696253Y-15797246D02*
X9686730Y-15816293D01*
X9686730Y-15816293D02*
X9686730Y-15854388D01*
X9686730Y-15854388D02*
X9696253Y-15873436D01*
X9696253Y-15873436D02*
X9705777Y-15882960D01*
X9705777Y-15882960D02*
X9724825Y-15892484D01*
X9724825Y-15892484D02*
X9762920Y-15892484D01*
X9762920Y-15892484D02*
X9781968Y-15882960D01*
X9781968Y-15882960D02*
X9791491Y-15873436D01*
X9791491Y-15873436D02*
X9801015Y-15854388D01*
X9801015Y-15854388D02*
X9801015Y-15816293D01*
X9801015Y-15816293D02*
X9791491Y-15797246D01*
X9791491Y-15797246D02*
X9781968Y-15787722D01*
X9781968Y-15787722D02*
X9762920Y-15778198D01*
X9915301Y-15778198D02*
X9896253Y-15768674D01*
X9896253Y-15768674D02*
X9886730Y-15759150D01*
X9886730Y-15759150D02*
X9877206Y-15740103D01*
X9877206Y-15740103D02*
X9877206Y-15730579D01*
X9877206Y-15730579D02*
X9886730Y-15711531D01*
X9886730Y-15711531D02*
X9896253Y-15702008D01*
X9896253Y-15702008D02*
X9915301Y-15692484D01*
X9915301Y-15692484D02*
X9953396Y-15692484D01*
X9953396Y-15692484D02*
X9972444Y-15702008D01*
X9972444Y-15702008D02*
X9981968Y-15711531D01*
X9981968Y-15711531D02*
X9991491Y-15730579D01*
X9991491Y-15730579D02*
X9991491Y-15740103D01*
X9991491Y-15740103D02*
X9981968Y-15759150D01*
X9981968Y-15759150D02*
X9972444Y-15768674D01*
X9972444Y-15768674D02*
X9953396Y-15778198D01*
X9953396Y-15778198D02*
X9915301Y-15778198D01*
X9915301Y-15778198D02*
X9896253Y-15787722D01*
X9896253Y-15787722D02*
X9886730Y-15797246D01*
X9886730Y-15797246D02*
X9877206Y-15816293D01*
X9877206Y-15816293D02*
X9877206Y-15854388D01*
X9877206Y-15854388D02*
X9886730Y-15873436D01*
X9886730Y-15873436D02*
X9896253Y-15882960D01*
X9896253Y-15882960D02*
X9915301Y-15892484D01*
X9915301Y-15892484D02*
X9953396Y-15892484D01*
X9953396Y-15892484D02*
X9972444Y-15882960D01*
X9972444Y-15882960D02*
X9981968Y-15873436D01*
X9981968Y-15873436D02*
X9991491Y-15854388D01*
X9991491Y-15854388D02*
X9991491Y-15816293D01*
X9991491Y-15816293D02*
X9981968Y-15797246D01*
X9981968Y-15797246D02*
X9972444Y-15787722D01*
X9972444Y-15787722D02*
X9953396Y-15778198D01*
X10229587Y-15892484D02*
X10229587Y-15692484D01*
X10315301Y-15892484D02*
X10315301Y-15787722D01*
X10315301Y-15787722D02*
X10305777Y-15768674D01*
X10305777Y-15768674D02*
X10286730Y-15759150D01*
X10286730Y-15759150D02*
X10258158Y-15759150D01*
X10258158Y-15759150D02*
X10239111Y-15768674D01*
X10239111Y-15768674D02*
X10229587Y-15778198D01*
X10439111Y-15892484D02*
X10420063Y-15882960D01*
X10420063Y-15882960D02*
X10410539Y-15873436D01*
X10410539Y-15873436D02*
X10401015Y-15854388D01*
X10401015Y-15854388D02*
X10401015Y-15797246D01*
X10401015Y-15797246D02*
X10410539Y-15778198D01*
X10410539Y-15778198D02*
X10420063Y-15768674D01*
X10420063Y-15768674D02*
X10439111Y-15759150D01*
X10439111Y-15759150D02*
X10467682Y-15759150D01*
X10467682Y-15759150D02*
X10486730Y-15768674D01*
X10486730Y-15768674D02*
X10496253Y-15778198D01*
X10496253Y-15778198D02*
X10505777Y-15797246D01*
X10505777Y-15797246D02*
X10505777Y-15854388D01*
X10505777Y-15854388D02*
X10496253Y-15873436D01*
X10496253Y-15873436D02*
X10486730Y-15882960D01*
X10486730Y-15882960D02*
X10467682Y-15892484D01*
X10467682Y-15892484D02*
X10439111Y-15892484D01*
X10620063Y-15892484D02*
X10601015Y-15882960D01*
X10601015Y-15882960D02*
X10591492Y-15863912D01*
X10591492Y-15863912D02*
X10591492Y-15692484D01*
X10772444Y-15882960D02*
X10753396Y-15892484D01*
X10753396Y-15892484D02*
X10715301Y-15892484D01*
X10715301Y-15892484D02*
X10696253Y-15882960D01*
X10696253Y-15882960D02*
X10686730Y-15863912D01*
X10686730Y-15863912D02*
X10686730Y-15787722D01*
X10686730Y-15787722D02*
X10696253Y-15768674D01*
X10696253Y-15768674D02*
X10715301Y-15759150D01*
X10715301Y-15759150D02*
X10753396Y-15759150D01*
X10753396Y-15759150D02*
X10772444Y-15768674D01*
X10772444Y-15768674D02*
X10781968Y-15787722D01*
X10781968Y-15787722D02*
X10781968Y-15806769D01*
X10781968Y-15806769D02*
X10686730Y-15825817D01*
X10858158Y-15882960D02*
X10877206Y-15892484D01*
X10877206Y-15892484D02*
X10915301Y-15892484D01*
X10915301Y-15892484D02*
X10934349Y-15882960D01*
X10934349Y-15882960D02*
X10943873Y-15863912D01*
X10943873Y-15863912D02*
X10943873Y-15854388D01*
X10943873Y-15854388D02*
X10934349Y-15835341D01*
X10934349Y-15835341D02*
X10915301Y-15825817D01*
X10915301Y-15825817D02*
X10886730Y-15825817D01*
X10886730Y-15825817D02*
X10867682Y-15816293D01*
X10867682Y-15816293D02*
X10858158Y-15797246D01*
X10858158Y-15797246D02*
X10858158Y-15787722D01*
X10858158Y-15787722D02*
X10867682Y-15768674D01*
X10867682Y-15768674D02*
X10886730Y-15759150D01*
X10886730Y-15759150D02*
X10915301Y-15759150D01*
X10915301Y-15759150D02*
X10934349Y-15768674D01*
X11010539Y-15968674D02*
X11020063Y-15959150D01*
X11020063Y-15959150D02*
X11039111Y-15930579D01*
X11039111Y-15930579D02*
X11048634Y-15911531D01*
X11048634Y-15911531D02*
X11058158Y-15882960D01*
X11058158Y-15882960D02*
X11067682Y-15835341D01*
X11067682Y-15835341D02*
X11067682Y-15797246D01*
X11067682Y-15797246D02*
X11058158Y-15749627D01*
X11058158Y-15749627D02*
X11048634Y-15721055D01*
X11048634Y-15721055D02*
X11039111Y-15702008D01*
X11039111Y-15702008D02*
X11020063Y-15673436D01*
X11020063Y-15673436D02*
X11010539Y-15663912D01*
D12*
X5915000Y-16000000D02*
X6045000Y-16130000D01*
X6045000Y-16000000D02*
X5915000Y-16130000D01*
X6045000Y-16065000D02*
G75*
G02*
X5915000Y-16065000I-65000J0D01*
G01*
X5915000Y-16065000D02*
G75*
G02*
X6045000Y-16065000I65000J0D01*
G01*
D11*
X6410539Y-16156484D02*
X6296253Y-16156484D01*
X6353396Y-16156484D02*
X6353396Y-15956484D01*
X6353396Y-15956484D02*
X6334348Y-15985055D01*
X6334348Y-15985055D02*
X6315301Y-16004103D01*
X6315301Y-16004103D02*
X6296253Y-16013627D01*
X6496253Y-16137436D02*
X6505777Y-16146960D01*
X6505777Y-16146960D02*
X6496253Y-16156484D01*
X6496253Y-16156484D02*
X6486729Y-16146960D01*
X6486729Y-16146960D02*
X6496253Y-16137436D01*
X6496253Y-16137436D02*
X6496253Y-16156484D01*
X6572443Y-15956484D02*
X6696253Y-15956484D01*
X6696253Y-15956484D02*
X6629586Y-16032674D01*
X6629586Y-16032674D02*
X6658158Y-16032674D01*
X6658158Y-16032674D02*
X6677205Y-16042198D01*
X6677205Y-16042198D02*
X6686729Y-16051722D01*
X6686729Y-16051722D02*
X6696253Y-16070769D01*
X6696253Y-16070769D02*
X6696253Y-16118388D01*
X6696253Y-16118388D02*
X6686729Y-16137436D01*
X6686729Y-16137436D02*
X6677205Y-16146960D01*
X6677205Y-16146960D02*
X6658158Y-16156484D01*
X6658158Y-16156484D02*
X6601015Y-16156484D01*
X6601015Y-16156484D02*
X6581967Y-16146960D01*
X6581967Y-16146960D02*
X6572443Y-16137436D01*
X6820062Y-15956484D02*
X6839110Y-15956484D01*
X6839110Y-15956484D02*
X6858158Y-15966008D01*
X6858158Y-15966008D02*
X6867682Y-15975531D01*
X6867682Y-15975531D02*
X6877205Y-15994579D01*
X6877205Y-15994579D02*
X6886729Y-16032674D01*
X6886729Y-16032674D02*
X6886729Y-16080293D01*
X6886729Y-16080293D02*
X6877205Y-16118388D01*
X6877205Y-16118388D02*
X6867682Y-16137436D01*
X6867682Y-16137436D02*
X6858158Y-16146960D01*
X6858158Y-16146960D02*
X6839110Y-16156484D01*
X6839110Y-16156484D02*
X6820062Y-16156484D01*
X6820062Y-16156484D02*
X6801015Y-16146960D01*
X6801015Y-16146960D02*
X6791491Y-16137436D01*
X6791491Y-16137436D02*
X6781967Y-16118388D01*
X6781967Y-16118388D02*
X6772443Y-16080293D01*
X6772443Y-16080293D02*
X6772443Y-16032674D01*
X6772443Y-16032674D02*
X6781967Y-15994579D01*
X6781967Y-15994579D02*
X6791491Y-15975531D01*
X6791491Y-15975531D02*
X6801015Y-15966008D01*
X6801015Y-15966008D02*
X6820062Y-15956484D01*
X7010539Y-15956484D02*
X7029586Y-15956484D01*
X7029586Y-15956484D02*
X7048634Y-15966008D01*
X7048634Y-15966008D02*
X7058158Y-15975531D01*
X7058158Y-15975531D02*
X7067682Y-15994579D01*
X7067682Y-15994579D02*
X7077205Y-16032674D01*
X7077205Y-16032674D02*
X7077205Y-16080293D01*
X7077205Y-16080293D02*
X7067682Y-16118388D01*
X7067682Y-16118388D02*
X7058158Y-16137436D01*
X7058158Y-16137436D02*
X7048634Y-16146960D01*
X7048634Y-16146960D02*
X7029586Y-16156484D01*
X7029586Y-16156484D02*
X7010539Y-16156484D01*
X7010539Y-16156484D02*
X6991491Y-16146960D01*
X6991491Y-16146960D02*
X6981967Y-16137436D01*
X6981967Y-16137436D02*
X6972443Y-16118388D01*
X6972443Y-16118388D02*
X6962920Y-16080293D01*
X6962920Y-16080293D02*
X6962920Y-16032674D01*
X6962920Y-16032674D02*
X6972443Y-15994579D01*
X6972443Y-15994579D02*
X6981967Y-15975531D01*
X6981967Y-15975531D02*
X6991491Y-15966008D01*
X6991491Y-15966008D02*
X7010539Y-15956484D01*
X7162920Y-16156484D02*
X7162920Y-16023150D01*
X7162920Y-16042198D02*
X7172443Y-16032674D01*
X7172443Y-16032674D02*
X7191491Y-16023150D01*
X7191491Y-16023150D02*
X7220063Y-16023150D01*
X7220063Y-16023150D02*
X7239110Y-16032674D01*
X7239110Y-16032674D02*
X7248634Y-16051722D01*
X7248634Y-16051722D02*
X7248634Y-16156484D01*
X7248634Y-16051722D02*
X7258158Y-16032674D01*
X7258158Y-16032674D02*
X7277205Y-16023150D01*
X7277205Y-16023150D02*
X7305777Y-16023150D01*
X7305777Y-16023150D02*
X7324824Y-16032674D01*
X7324824Y-16032674D02*
X7334348Y-16051722D01*
X7334348Y-16051722D02*
X7334348Y-16156484D01*
X7429586Y-16156484D02*
X7429586Y-16023150D01*
X7429586Y-16042198D02*
X7439110Y-16032674D01*
X7439110Y-16032674D02*
X7458158Y-16023150D01*
X7458158Y-16023150D02*
X7486729Y-16023150D01*
X7486729Y-16023150D02*
X7505777Y-16032674D01*
X7505777Y-16032674D02*
X7515301Y-16051722D01*
X7515301Y-16051722D02*
X7515301Y-16156484D01*
X7515301Y-16051722D02*
X7524824Y-16032674D01*
X7524824Y-16032674D02*
X7543872Y-16023150D01*
X7543872Y-16023150D02*
X7572443Y-16023150D01*
X7572443Y-16023150D02*
X7591491Y-16032674D01*
X7591491Y-16032674D02*
X7601015Y-16051722D01*
X7601015Y-16051722D02*
X7601015Y-16156484D01*
X7991491Y-15946960D02*
X7820063Y-16204103D01*
X8248634Y-15956484D02*
X8267682Y-15956484D01*
X8267682Y-15956484D02*
X8286729Y-15966008D01*
X8286729Y-15966008D02*
X8296253Y-15975531D01*
X8296253Y-15975531D02*
X8305777Y-15994579D01*
X8305777Y-15994579D02*
X8315301Y-16032674D01*
X8315301Y-16032674D02*
X8315301Y-16080293D01*
X8315301Y-16080293D02*
X8305777Y-16118388D01*
X8305777Y-16118388D02*
X8296253Y-16137436D01*
X8296253Y-16137436D02*
X8286729Y-16146960D01*
X8286729Y-16146960D02*
X8267682Y-16156484D01*
X8267682Y-16156484D02*
X8248634Y-16156484D01*
X8248634Y-16156484D02*
X8229586Y-16146960D01*
X8229586Y-16146960D02*
X8220063Y-16137436D01*
X8220063Y-16137436D02*
X8210539Y-16118388D01*
X8210539Y-16118388D02*
X8201015Y-16080293D01*
X8201015Y-16080293D02*
X8201015Y-16032674D01*
X8201015Y-16032674D02*
X8210539Y-15994579D01*
X8210539Y-15994579D02*
X8220063Y-15975531D01*
X8220063Y-15975531D02*
X8229586Y-15966008D01*
X8229586Y-15966008D02*
X8248634Y-15956484D01*
X8401015Y-16137436D02*
X8410539Y-16146960D01*
X8410539Y-16146960D02*
X8401015Y-16156484D01*
X8401015Y-16156484D02*
X8391491Y-16146960D01*
X8391491Y-16146960D02*
X8401015Y-16137436D01*
X8401015Y-16137436D02*
X8401015Y-16156484D01*
X8534348Y-15956484D02*
X8553396Y-15956484D01*
X8553396Y-15956484D02*
X8572444Y-15966008D01*
X8572444Y-15966008D02*
X8581968Y-15975531D01*
X8581968Y-15975531D02*
X8591491Y-15994579D01*
X8591491Y-15994579D02*
X8601015Y-16032674D01*
X8601015Y-16032674D02*
X8601015Y-16080293D01*
X8601015Y-16080293D02*
X8591491Y-16118388D01*
X8591491Y-16118388D02*
X8581968Y-16137436D01*
X8581968Y-16137436D02*
X8572444Y-16146960D01*
X8572444Y-16146960D02*
X8553396Y-16156484D01*
X8553396Y-16156484D02*
X8534348Y-16156484D01*
X8534348Y-16156484D02*
X8515301Y-16146960D01*
X8515301Y-16146960D02*
X8505777Y-16137436D01*
X8505777Y-16137436D02*
X8496253Y-16118388D01*
X8496253Y-16118388D02*
X8486729Y-16080293D01*
X8486729Y-16080293D02*
X8486729Y-16032674D01*
X8486729Y-16032674D02*
X8496253Y-15994579D01*
X8496253Y-15994579D02*
X8505777Y-15975531D01*
X8505777Y-15975531D02*
X8515301Y-15966008D01*
X8515301Y-15966008D02*
X8534348Y-15956484D01*
X8781968Y-15956484D02*
X8686729Y-15956484D01*
X8686729Y-15956484D02*
X8677206Y-16051722D01*
X8677206Y-16051722D02*
X8686729Y-16042198D01*
X8686729Y-16042198D02*
X8705777Y-16032674D01*
X8705777Y-16032674D02*
X8753396Y-16032674D01*
X8753396Y-16032674D02*
X8772444Y-16042198D01*
X8772444Y-16042198D02*
X8781968Y-16051722D01*
X8781968Y-16051722D02*
X8791491Y-16070769D01*
X8791491Y-16070769D02*
X8791491Y-16118388D01*
X8791491Y-16118388D02*
X8781968Y-16137436D01*
X8781968Y-16137436D02*
X8772444Y-16146960D01*
X8772444Y-16146960D02*
X8753396Y-16156484D01*
X8753396Y-16156484D02*
X8705777Y-16156484D01*
X8705777Y-16156484D02*
X8686729Y-16146960D01*
X8686729Y-16146960D02*
X8677206Y-16137436D01*
X8981968Y-16156484D02*
X8867682Y-16156484D01*
X8924825Y-16156484D02*
X8924825Y-15956484D01*
X8924825Y-15956484D02*
X8905777Y-15985055D01*
X8905777Y-15985055D02*
X8886729Y-16004103D01*
X8886729Y-16004103D02*
X8867682Y-16013627D01*
X9058158Y-15975531D02*
X9067682Y-15966008D01*
X9067682Y-15966008D02*
X9086729Y-15956484D01*
X9086729Y-15956484D02*
X9134349Y-15956484D01*
X9134349Y-15956484D02*
X9153396Y-15966008D01*
X9153396Y-15966008D02*
X9162920Y-15975531D01*
X9162920Y-15975531D02*
X9172444Y-15994579D01*
X9172444Y-15994579D02*
X9172444Y-16013627D01*
X9172444Y-16013627D02*
X9162920Y-16042198D01*
X9162920Y-16042198D02*
X9048634Y-16156484D01*
X9048634Y-16156484D02*
X9172444Y-16156484D01*
X9248634Y-15956484D02*
X9248634Y-15994579D01*
X9324825Y-15956484D02*
X9324825Y-15994579D01*
X9620063Y-16232674D02*
X9610539Y-16223150D01*
X9610539Y-16223150D02*
X9591491Y-16194579D01*
X9591491Y-16194579D02*
X9581968Y-16175531D01*
X9581968Y-16175531D02*
X9572444Y-16146960D01*
X9572444Y-16146960D02*
X9562920Y-16099341D01*
X9562920Y-16099341D02*
X9562920Y-16061246D01*
X9562920Y-16061246D02*
X9572444Y-16013627D01*
X9572444Y-16013627D02*
X9581968Y-15985055D01*
X9581968Y-15985055D02*
X9591491Y-15966008D01*
X9591491Y-15966008D02*
X9610539Y-15937436D01*
X9610539Y-15937436D02*
X9620063Y-15927912D01*
X9801015Y-16156484D02*
X9686730Y-16156484D01*
X9743872Y-16156484D02*
X9743872Y-15956484D01*
X9743872Y-15956484D02*
X9724825Y-15985055D01*
X9724825Y-15985055D02*
X9705777Y-16004103D01*
X9705777Y-16004103D02*
X9686730Y-16013627D01*
X9972444Y-16023150D02*
X9972444Y-16156484D01*
X9924825Y-15946960D02*
X9877206Y-16089817D01*
X9877206Y-16089817D02*
X10001015Y-16089817D01*
X10229587Y-16156484D02*
X10229587Y-15956484D01*
X10315301Y-16156484D02*
X10315301Y-16051722D01*
X10315301Y-16051722D02*
X10305777Y-16032674D01*
X10305777Y-16032674D02*
X10286730Y-16023150D01*
X10286730Y-16023150D02*
X10258158Y-16023150D01*
X10258158Y-16023150D02*
X10239111Y-16032674D01*
X10239111Y-16032674D02*
X10229587Y-16042198D01*
X10439111Y-16156484D02*
X10420063Y-16146960D01*
X10420063Y-16146960D02*
X10410539Y-16137436D01*
X10410539Y-16137436D02*
X10401015Y-16118388D01*
X10401015Y-16118388D02*
X10401015Y-16061246D01*
X10401015Y-16061246D02*
X10410539Y-16042198D01*
X10410539Y-16042198D02*
X10420063Y-16032674D01*
X10420063Y-16032674D02*
X10439111Y-16023150D01*
X10439111Y-16023150D02*
X10467682Y-16023150D01*
X10467682Y-16023150D02*
X10486730Y-16032674D01*
X10486730Y-16032674D02*
X10496253Y-16042198D01*
X10496253Y-16042198D02*
X10505777Y-16061246D01*
X10505777Y-16061246D02*
X10505777Y-16118388D01*
X10505777Y-16118388D02*
X10496253Y-16137436D01*
X10496253Y-16137436D02*
X10486730Y-16146960D01*
X10486730Y-16146960D02*
X10467682Y-16156484D01*
X10467682Y-16156484D02*
X10439111Y-16156484D01*
X10620063Y-16156484D02*
X10601015Y-16146960D01*
X10601015Y-16146960D02*
X10591492Y-16127912D01*
X10591492Y-16127912D02*
X10591492Y-15956484D01*
X10772444Y-16146960D02*
X10753396Y-16156484D01*
X10753396Y-16156484D02*
X10715301Y-16156484D01*
X10715301Y-16156484D02*
X10696253Y-16146960D01*
X10696253Y-16146960D02*
X10686730Y-16127912D01*
X10686730Y-16127912D02*
X10686730Y-16051722D01*
X10686730Y-16051722D02*
X10696253Y-16032674D01*
X10696253Y-16032674D02*
X10715301Y-16023150D01*
X10715301Y-16023150D02*
X10753396Y-16023150D01*
X10753396Y-16023150D02*
X10772444Y-16032674D01*
X10772444Y-16032674D02*
X10781968Y-16051722D01*
X10781968Y-16051722D02*
X10781968Y-16070769D01*
X10781968Y-16070769D02*
X10686730Y-16089817D01*
X10858158Y-16146960D02*
X10877206Y-16156484D01*
X10877206Y-16156484D02*
X10915301Y-16156484D01*
X10915301Y-16156484D02*
X10934349Y-16146960D01*
X10934349Y-16146960D02*
X10943873Y-16127912D01*
X10943873Y-16127912D02*
X10943873Y-16118388D01*
X10943873Y-16118388D02*
X10934349Y-16099341D01*
X10934349Y-16099341D02*
X10915301Y-16089817D01*
X10915301Y-16089817D02*
X10886730Y-16089817D01*
X10886730Y-16089817D02*
X10867682Y-16080293D01*
X10867682Y-16080293D02*
X10858158Y-16061246D01*
X10858158Y-16061246D02*
X10858158Y-16051722D01*
X10858158Y-16051722D02*
X10867682Y-16032674D01*
X10867682Y-16032674D02*
X10886730Y-16023150D01*
X10886730Y-16023150D02*
X10915301Y-16023150D01*
X10915301Y-16023150D02*
X10934349Y-16032674D01*
X11010539Y-16232674D02*
X11020063Y-16223150D01*
X11020063Y-16223150D02*
X11039111Y-16194579D01*
X11039111Y-16194579D02*
X11048634Y-16175531D01*
X11048634Y-16175531D02*
X11058158Y-16146960D01*
X11058158Y-16146960D02*
X11067682Y-16099341D01*
X11067682Y-16099341D02*
X11067682Y-16061246D01*
X11067682Y-16061246D02*
X11058158Y-16013627D01*
X11058158Y-16013627D02*
X11048634Y-15985055D01*
X11048634Y-15985055D02*
X11039111Y-15966008D01*
X11039111Y-15966008D02*
X11020063Y-15937436D01*
X11020063Y-15937436D02*
X11010539Y-15927912D01*
D13*
X5895000Y-16254000D02*
X6045000Y-16404000D01*
X6045000Y-16254000D02*
X5895000Y-16404000D01*
X5970000Y-16254000D02*
X5970000Y-16404000D01*
X5895000Y-16329000D02*
X6045000Y-16329000D01*
D11*
X6410539Y-16420484D02*
X6296253Y-16420484D01*
X6353396Y-16420484D02*
X6353396Y-16220484D01*
X6353396Y-16220484D02*
X6334348Y-16249055D01*
X6334348Y-16249055D02*
X6315301Y-16268103D01*
X6315301Y-16268103D02*
X6296253Y-16277627D01*
X6496253Y-16401436D02*
X6505777Y-16410960D01*
X6505777Y-16410960D02*
X6496253Y-16420484D01*
X6496253Y-16420484D02*
X6486729Y-16410960D01*
X6486729Y-16410960D02*
X6496253Y-16401436D01*
X6496253Y-16401436D02*
X6496253Y-16420484D01*
X6686729Y-16220484D02*
X6591491Y-16220484D01*
X6591491Y-16220484D02*
X6581967Y-16315722D01*
X6581967Y-16315722D02*
X6591491Y-16306198D01*
X6591491Y-16306198D02*
X6610539Y-16296674D01*
X6610539Y-16296674D02*
X6658158Y-16296674D01*
X6658158Y-16296674D02*
X6677205Y-16306198D01*
X6677205Y-16306198D02*
X6686729Y-16315722D01*
X6686729Y-16315722D02*
X6696253Y-16334769D01*
X6696253Y-16334769D02*
X6696253Y-16382388D01*
X6696253Y-16382388D02*
X6686729Y-16401436D01*
X6686729Y-16401436D02*
X6677205Y-16410960D01*
X6677205Y-16410960D02*
X6658158Y-16420484D01*
X6658158Y-16420484D02*
X6610539Y-16420484D01*
X6610539Y-16420484D02*
X6591491Y-16410960D01*
X6591491Y-16410960D02*
X6581967Y-16401436D01*
X6820062Y-16220484D02*
X6839110Y-16220484D01*
X6839110Y-16220484D02*
X6858158Y-16230008D01*
X6858158Y-16230008D02*
X6867682Y-16239531D01*
X6867682Y-16239531D02*
X6877205Y-16258579D01*
X6877205Y-16258579D02*
X6886729Y-16296674D01*
X6886729Y-16296674D02*
X6886729Y-16344293D01*
X6886729Y-16344293D02*
X6877205Y-16382388D01*
X6877205Y-16382388D02*
X6867682Y-16401436D01*
X6867682Y-16401436D02*
X6858158Y-16410960D01*
X6858158Y-16410960D02*
X6839110Y-16420484D01*
X6839110Y-16420484D02*
X6820062Y-16420484D01*
X6820062Y-16420484D02*
X6801015Y-16410960D01*
X6801015Y-16410960D02*
X6791491Y-16401436D01*
X6791491Y-16401436D02*
X6781967Y-16382388D01*
X6781967Y-16382388D02*
X6772443Y-16344293D01*
X6772443Y-16344293D02*
X6772443Y-16296674D01*
X6772443Y-16296674D02*
X6781967Y-16258579D01*
X6781967Y-16258579D02*
X6791491Y-16239531D01*
X6791491Y-16239531D02*
X6801015Y-16230008D01*
X6801015Y-16230008D02*
X6820062Y-16220484D01*
X7010539Y-16220484D02*
X7029586Y-16220484D01*
X7029586Y-16220484D02*
X7048634Y-16230008D01*
X7048634Y-16230008D02*
X7058158Y-16239531D01*
X7058158Y-16239531D02*
X7067682Y-16258579D01*
X7067682Y-16258579D02*
X7077205Y-16296674D01*
X7077205Y-16296674D02*
X7077205Y-16344293D01*
X7077205Y-16344293D02*
X7067682Y-16382388D01*
X7067682Y-16382388D02*
X7058158Y-16401436D01*
X7058158Y-16401436D02*
X7048634Y-16410960D01*
X7048634Y-16410960D02*
X7029586Y-16420484D01*
X7029586Y-16420484D02*
X7010539Y-16420484D01*
X7010539Y-16420484D02*
X6991491Y-16410960D01*
X6991491Y-16410960D02*
X6981967Y-16401436D01*
X6981967Y-16401436D02*
X6972443Y-16382388D01*
X6972443Y-16382388D02*
X6962920Y-16344293D01*
X6962920Y-16344293D02*
X6962920Y-16296674D01*
X6962920Y-16296674D02*
X6972443Y-16258579D01*
X6972443Y-16258579D02*
X6981967Y-16239531D01*
X6981967Y-16239531D02*
X6991491Y-16230008D01*
X6991491Y-16230008D02*
X7010539Y-16220484D01*
X7162920Y-16420484D02*
X7162920Y-16287150D01*
X7162920Y-16306198D02*
X7172443Y-16296674D01*
X7172443Y-16296674D02*
X7191491Y-16287150D01*
X7191491Y-16287150D02*
X7220063Y-16287150D01*
X7220063Y-16287150D02*
X7239110Y-16296674D01*
X7239110Y-16296674D02*
X7248634Y-16315722D01*
X7248634Y-16315722D02*
X7248634Y-16420484D01*
X7248634Y-16315722D02*
X7258158Y-16296674D01*
X7258158Y-16296674D02*
X7277205Y-16287150D01*
X7277205Y-16287150D02*
X7305777Y-16287150D01*
X7305777Y-16287150D02*
X7324824Y-16296674D01*
X7324824Y-16296674D02*
X7334348Y-16315722D01*
X7334348Y-16315722D02*
X7334348Y-16420484D01*
X7429586Y-16420484D02*
X7429586Y-16287150D01*
X7429586Y-16306198D02*
X7439110Y-16296674D01*
X7439110Y-16296674D02*
X7458158Y-16287150D01*
X7458158Y-16287150D02*
X7486729Y-16287150D01*
X7486729Y-16287150D02*
X7505777Y-16296674D01*
X7505777Y-16296674D02*
X7515301Y-16315722D01*
X7515301Y-16315722D02*
X7515301Y-16420484D01*
X7515301Y-16315722D02*
X7524824Y-16296674D01*
X7524824Y-16296674D02*
X7543872Y-16287150D01*
X7543872Y-16287150D02*
X7572443Y-16287150D01*
X7572443Y-16287150D02*
X7591491Y-16296674D01*
X7591491Y-16296674D02*
X7601015Y-16315722D01*
X7601015Y-16315722D02*
X7601015Y-16420484D01*
X7991491Y-16210960D02*
X7820063Y-16468103D01*
X8248634Y-16220484D02*
X8267682Y-16220484D01*
X8267682Y-16220484D02*
X8286729Y-16230008D01*
X8286729Y-16230008D02*
X8296253Y-16239531D01*
X8296253Y-16239531D02*
X8305777Y-16258579D01*
X8305777Y-16258579D02*
X8315301Y-16296674D01*
X8315301Y-16296674D02*
X8315301Y-16344293D01*
X8315301Y-16344293D02*
X8305777Y-16382388D01*
X8305777Y-16382388D02*
X8296253Y-16401436D01*
X8296253Y-16401436D02*
X8286729Y-16410960D01*
X8286729Y-16410960D02*
X8267682Y-16420484D01*
X8267682Y-16420484D02*
X8248634Y-16420484D01*
X8248634Y-16420484D02*
X8229586Y-16410960D01*
X8229586Y-16410960D02*
X8220063Y-16401436D01*
X8220063Y-16401436D02*
X8210539Y-16382388D01*
X8210539Y-16382388D02*
X8201015Y-16344293D01*
X8201015Y-16344293D02*
X8201015Y-16296674D01*
X8201015Y-16296674D02*
X8210539Y-16258579D01*
X8210539Y-16258579D02*
X8220063Y-16239531D01*
X8220063Y-16239531D02*
X8229586Y-16230008D01*
X8229586Y-16230008D02*
X8248634Y-16220484D01*
X8401015Y-16401436D02*
X8410539Y-16410960D01*
X8410539Y-16410960D02*
X8401015Y-16420484D01*
X8401015Y-16420484D02*
X8391491Y-16410960D01*
X8391491Y-16410960D02*
X8401015Y-16401436D01*
X8401015Y-16401436D02*
X8401015Y-16420484D01*
X8534348Y-16220484D02*
X8553396Y-16220484D01*
X8553396Y-16220484D02*
X8572444Y-16230008D01*
X8572444Y-16230008D02*
X8581968Y-16239531D01*
X8581968Y-16239531D02*
X8591491Y-16258579D01*
X8591491Y-16258579D02*
X8601015Y-16296674D01*
X8601015Y-16296674D02*
X8601015Y-16344293D01*
X8601015Y-16344293D02*
X8591491Y-16382388D01*
X8591491Y-16382388D02*
X8581968Y-16401436D01*
X8581968Y-16401436D02*
X8572444Y-16410960D01*
X8572444Y-16410960D02*
X8553396Y-16420484D01*
X8553396Y-16420484D02*
X8534348Y-16420484D01*
X8534348Y-16420484D02*
X8515301Y-16410960D01*
X8515301Y-16410960D02*
X8505777Y-16401436D01*
X8505777Y-16401436D02*
X8496253Y-16382388D01*
X8496253Y-16382388D02*
X8486729Y-16344293D01*
X8486729Y-16344293D02*
X8486729Y-16296674D01*
X8486729Y-16296674D02*
X8496253Y-16258579D01*
X8496253Y-16258579D02*
X8505777Y-16239531D01*
X8505777Y-16239531D02*
X8515301Y-16230008D01*
X8515301Y-16230008D02*
X8534348Y-16220484D01*
X8781968Y-16220484D02*
X8686729Y-16220484D01*
X8686729Y-16220484D02*
X8677206Y-16315722D01*
X8677206Y-16315722D02*
X8686729Y-16306198D01*
X8686729Y-16306198D02*
X8705777Y-16296674D01*
X8705777Y-16296674D02*
X8753396Y-16296674D01*
X8753396Y-16296674D02*
X8772444Y-16306198D01*
X8772444Y-16306198D02*
X8781968Y-16315722D01*
X8781968Y-16315722D02*
X8791491Y-16334769D01*
X8791491Y-16334769D02*
X8791491Y-16382388D01*
X8791491Y-16382388D02*
X8781968Y-16401436D01*
X8781968Y-16401436D02*
X8772444Y-16410960D01*
X8772444Y-16410960D02*
X8753396Y-16420484D01*
X8753396Y-16420484D02*
X8705777Y-16420484D01*
X8705777Y-16420484D02*
X8686729Y-16410960D01*
X8686729Y-16410960D02*
X8677206Y-16401436D01*
X8886729Y-16420484D02*
X8924825Y-16420484D01*
X8924825Y-16420484D02*
X8943872Y-16410960D01*
X8943872Y-16410960D02*
X8953396Y-16401436D01*
X8953396Y-16401436D02*
X8972444Y-16372865D01*
X8972444Y-16372865D02*
X8981968Y-16334769D01*
X8981968Y-16334769D02*
X8981968Y-16258579D01*
X8981968Y-16258579D02*
X8972444Y-16239531D01*
X8972444Y-16239531D02*
X8962920Y-16230008D01*
X8962920Y-16230008D02*
X8943872Y-16220484D01*
X8943872Y-16220484D02*
X8905777Y-16220484D01*
X8905777Y-16220484D02*
X8886729Y-16230008D01*
X8886729Y-16230008D02*
X8877206Y-16239531D01*
X8877206Y-16239531D02*
X8867682Y-16258579D01*
X8867682Y-16258579D02*
X8867682Y-16306198D01*
X8867682Y-16306198D02*
X8877206Y-16325246D01*
X8877206Y-16325246D02*
X8886729Y-16334769D01*
X8886729Y-16334769D02*
X8905777Y-16344293D01*
X8905777Y-16344293D02*
X8943872Y-16344293D01*
X8943872Y-16344293D02*
X8962920Y-16334769D01*
X8962920Y-16334769D02*
X8972444Y-16325246D01*
X8972444Y-16325246D02*
X8981968Y-16306198D01*
X9172444Y-16420484D02*
X9058158Y-16420484D01*
X9115301Y-16420484D02*
X9115301Y-16220484D01*
X9115301Y-16220484D02*
X9096253Y-16249055D01*
X9096253Y-16249055D02*
X9077206Y-16268103D01*
X9077206Y-16268103D02*
X9058158Y-16277627D01*
X9248634Y-16220484D02*
X9248634Y-16258579D01*
X9324825Y-16220484D02*
X9324825Y-16258579D01*
X9620063Y-16496674D02*
X9610539Y-16487150D01*
X9610539Y-16487150D02*
X9591491Y-16458579D01*
X9591491Y-16458579D02*
X9581968Y-16439531D01*
X9581968Y-16439531D02*
X9572444Y-16410960D01*
X9572444Y-16410960D02*
X9562920Y-16363341D01*
X9562920Y-16363341D02*
X9562920Y-16325246D01*
X9562920Y-16325246D02*
X9572444Y-16277627D01*
X9572444Y-16277627D02*
X9581968Y-16249055D01*
X9581968Y-16249055D02*
X9591491Y-16230008D01*
X9591491Y-16230008D02*
X9610539Y-16201436D01*
X9610539Y-16201436D02*
X9620063Y-16191912D01*
X9677206Y-16220484D02*
X9801015Y-16220484D01*
X9801015Y-16220484D02*
X9734349Y-16296674D01*
X9734349Y-16296674D02*
X9762920Y-16296674D01*
X9762920Y-16296674D02*
X9781968Y-16306198D01*
X9781968Y-16306198D02*
X9791491Y-16315722D01*
X9791491Y-16315722D02*
X9801015Y-16334769D01*
X9801015Y-16334769D02*
X9801015Y-16382388D01*
X9801015Y-16382388D02*
X9791491Y-16401436D01*
X9791491Y-16401436D02*
X9781968Y-16410960D01*
X9781968Y-16410960D02*
X9762920Y-16420484D01*
X9762920Y-16420484D02*
X9705777Y-16420484D01*
X9705777Y-16420484D02*
X9686730Y-16410960D01*
X9686730Y-16410960D02*
X9677206Y-16401436D01*
X10039111Y-16420484D02*
X10039111Y-16220484D01*
X10124825Y-16420484D02*
X10124825Y-16315722D01*
X10124825Y-16315722D02*
X10115301Y-16296674D01*
X10115301Y-16296674D02*
X10096253Y-16287150D01*
X10096253Y-16287150D02*
X10067682Y-16287150D01*
X10067682Y-16287150D02*
X10048634Y-16296674D01*
X10048634Y-16296674D02*
X10039111Y-16306198D01*
X10248634Y-16420484D02*
X10229587Y-16410960D01*
X10229587Y-16410960D02*
X10220063Y-16401436D01*
X10220063Y-16401436D02*
X10210539Y-16382388D01*
X10210539Y-16382388D02*
X10210539Y-16325246D01*
X10210539Y-16325246D02*
X10220063Y-16306198D01*
X10220063Y-16306198D02*
X10229587Y-16296674D01*
X10229587Y-16296674D02*
X10248634Y-16287150D01*
X10248634Y-16287150D02*
X10277206Y-16287150D01*
X10277206Y-16287150D02*
X10296253Y-16296674D01*
X10296253Y-16296674D02*
X10305777Y-16306198D01*
X10305777Y-16306198D02*
X10315301Y-16325246D01*
X10315301Y-16325246D02*
X10315301Y-16382388D01*
X10315301Y-16382388D02*
X10305777Y-16401436D01*
X10305777Y-16401436D02*
X10296253Y-16410960D01*
X10296253Y-16410960D02*
X10277206Y-16420484D01*
X10277206Y-16420484D02*
X10248634Y-16420484D01*
X10429587Y-16420484D02*
X10410539Y-16410960D01*
X10410539Y-16410960D02*
X10401015Y-16391912D01*
X10401015Y-16391912D02*
X10401015Y-16220484D01*
X10581968Y-16410960D02*
X10562920Y-16420484D01*
X10562920Y-16420484D02*
X10524825Y-16420484D01*
X10524825Y-16420484D02*
X10505777Y-16410960D01*
X10505777Y-16410960D02*
X10496253Y-16391912D01*
X10496253Y-16391912D02*
X10496253Y-16315722D01*
X10496253Y-16315722D02*
X10505777Y-16296674D01*
X10505777Y-16296674D02*
X10524825Y-16287150D01*
X10524825Y-16287150D02*
X10562920Y-16287150D01*
X10562920Y-16287150D02*
X10581968Y-16296674D01*
X10581968Y-16296674D02*
X10591492Y-16315722D01*
X10591492Y-16315722D02*
X10591492Y-16334769D01*
X10591492Y-16334769D02*
X10496253Y-16353817D01*
X10667682Y-16410960D02*
X10686730Y-16420484D01*
X10686730Y-16420484D02*
X10724825Y-16420484D01*
X10724825Y-16420484D02*
X10743873Y-16410960D01*
X10743873Y-16410960D02*
X10753396Y-16391912D01*
X10753396Y-16391912D02*
X10753396Y-16382388D01*
X10753396Y-16382388D02*
X10743873Y-16363341D01*
X10743873Y-16363341D02*
X10724825Y-16353817D01*
X10724825Y-16353817D02*
X10696253Y-16353817D01*
X10696253Y-16353817D02*
X10677206Y-16344293D01*
X10677206Y-16344293D02*
X10667682Y-16325246D01*
X10667682Y-16325246D02*
X10667682Y-16315722D01*
X10667682Y-16315722D02*
X10677206Y-16296674D01*
X10677206Y-16296674D02*
X10696253Y-16287150D01*
X10696253Y-16287150D02*
X10724825Y-16287150D01*
X10724825Y-16287150D02*
X10743873Y-16296674D01*
X10820063Y-16496674D02*
X10829587Y-16487150D01*
X10829587Y-16487150D02*
X10848634Y-16458579D01*
X10848634Y-16458579D02*
X10858158Y-16439531D01*
X10858158Y-16439531D02*
X10867682Y-16410960D01*
X10867682Y-16410960D02*
X10877206Y-16363341D01*
X10877206Y-16363341D02*
X10877206Y-16325246D01*
X10877206Y-16325246D02*
X10867682Y-16277627D01*
X10867682Y-16277627D02*
X10858158Y-16249055D01*
X10858158Y-16249055D02*
X10848634Y-16230008D01*
X10848634Y-16230008D02*
X10829587Y-16201436D01*
X10829587Y-16201436D02*
X10820063Y-16191912D01*
D14*
X5875000Y-16514000D02*
X6045000Y-16684000D01*
X6045000Y-16514000D02*
X5875000Y-16684000D01*
X6020105Y-16659105D02*
X6020105Y-16538895D01*
X5899895Y-16538895D01*
X5899895Y-16659105D01*
X6020105Y-16659105D01*
D11*
X6410539Y-16690484D02*
X6296253Y-16690484D01*
X6353396Y-16690484D02*
X6353396Y-16490484D01*
X6353396Y-16490484D02*
X6334348Y-16519055D01*
X6334348Y-16519055D02*
X6315301Y-16538103D01*
X6315301Y-16538103D02*
X6296253Y-16547627D01*
X6496253Y-16671436D02*
X6505777Y-16680960D01*
X6505777Y-16680960D02*
X6496253Y-16690484D01*
X6496253Y-16690484D02*
X6486729Y-16680960D01*
X6486729Y-16680960D02*
X6496253Y-16671436D01*
X6496253Y-16671436D02*
X6496253Y-16690484D01*
X6572443Y-16490484D02*
X6705777Y-16490484D01*
X6705777Y-16490484D02*
X6620062Y-16690484D01*
X6820062Y-16490484D02*
X6839110Y-16490484D01*
X6839110Y-16490484D02*
X6858158Y-16500008D01*
X6858158Y-16500008D02*
X6867682Y-16509531D01*
X6867682Y-16509531D02*
X6877205Y-16528579D01*
X6877205Y-16528579D02*
X6886729Y-16566674D01*
X6886729Y-16566674D02*
X6886729Y-16614293D01*
X6886729Y-16614293D02*
X6877205Y-16652388D01*
X6877205Y-16652388D02*
X6867682Y-16671436D01*
X6867682Y-16671436D02*
X6858158Y-16680960D01*
X6858158Y-16680960D02*
X6839110Y-16690484D01*
X6839110Y-16690484D02*
X6820062Y-16690484D01*
X6820062Y-16690484D02*
X6801015Y-16680960D01*
X6801015Y-16680960D02*
X6791491Y-16671436D01*
X6791491Y-16671436D02*
X6781967Y-16652388D01*
X6781967Y-16652388D02*
X6772443Y-16614293D01*
X6772443Y-16614293D02*
X6772443Y-16566674D01*
X6772443Y-16566674D02*
X6781967Y-16528579D01*
X6781967Y-16528579D02*
X6791491Y-16509531D01*
X6791491Y-16509531D02*
X6801015Y-16500008D01*
X6801015Y-16500008D02*
X6820062Y-16490484D01*
X7010539Y-16490484D02*
X7029586Y-16490484D01*
X7029586Y-16490484D02*
X7048634Y-16500008D01*
X7048634Y-16500008D02*
X7058158Y-16509531D01*
X7058158Y-16509531D02*
X7067682Y-16528579D01*
X7067682Y-16528579D02*
X7077205Y-16566674D01*
X7077205Y-16566674D02*
X7077205Y-16614293D01*
X7077205Y-16614293D02*
X7067682Y-16652388D01*
X7067682Y-16652388D02*
X7058158Y-16671436D01*
X7058158Y-16671436D02*
X7048634Y-16680960D01*
X7048634Y-16680960D02*
X7029586Y-16690484D01*
X7029586Y-16690484D02*
X7010539Y-16690484D01*
X7010539Y-16690484D02*
X6991491Y-16680960D01*
X6991491Y-16680960D02*
X6981967Y-16671436D01*
X6981967Y-16671436D02*
X6972443Y-16652388D01*
X6972443Y-16652388D02*
X6962920Y-16614293D01*
X6962920Y-16614293D02*
X6962920Y-16566674D01*
X6962920Y-16566674D02*
X6972443Y-16528579D01*
X6972443Y-16528579D02*
X6981967Y-16509531D01*
X6981967Y-16509531D02*
X6991491Y-16500008D01*
X6991491Y-16500008D02*
X7010539Y-16490484D01*
X7162920Y-16690484D02*
X7162920Y-16557150D01*
X7162920Y-16576198D02*
X7172443Y-16566674D01*
X7172443Y-16566674D02*
X7191491Y-16557150D01*
X7191491Y-16557150D02*
X7220063Y-16557150D01*
X7220063Y-16557150D02*
X7239110Y-16566674D01*
X7239110Y-16566674D02*
X7248634Y-16585722D01*
X7248634Y-16585722D02*
X7248634Y-16690484D01*
X7248634Y-16585722D02*
X7258158Y-16566674D01*
X7258158Y-16566674D02*
X7277205Y-16557150D01*
X7277205Y-16557150D02*
X7305777Y-16557150D01*
X7305777Y-16557150D02*
X7324824Y-16566674D01*
X7324824Y-16566674D02*
X7334348Y-16585722D01*
X7334348Y-16585722D02*
X7334348Y-16690484D01*
X7429586Y-16690484D02*
X7429586Y-16557150D01*
X7429586Y-16576198D02*
X7439110Y-16566674D01*
X7439110Y-16566674D02*
X7458158Y-16557150D01*
X7458158Y-16557150D02*
X7486729Y-16557150D01*
X7486729Y-16557150D02*
X7505777Y-16566674D01*
X7505777Y-16566674D02*
X7515301Y-16585722D01*
X7515301Y-16585722D02*
X7515301Y-16690484D01*
X7515301Y-16585722D02*
X7524824Y-16566674D01*
X7524824Y-16566674D02*
X7543872Y-16557150D01*
X7543872Y-16557150D02*
X7572443Y-16557150D01*
X7572443Y-16557150D02*
X7591491Y-16566674D01*
X7591491Y-16566674D02*
X7601015Y-16585722D01*
X7601015Y-16585722D02*
X7601015Y-16690484D01*
X7991491Y-16480960D02*
X7820063Y-16738103D01*
X8248634Y-16490484D02*
X8267682Y-16490484D01*
X8267682Y-16490484D02*
X8286729Y-16500008D01*
X8286729Y-16500008D02*
X8296253Y-16509531D01*
X8296253Y-16509531D02*
X8305777Y-16528579D01*
X8305777Y-16528579D02*
X8315301Y-16566674D01*
X8315301Y-16566674D02*
X8315301Y-16614293D01*
X8315301Y-16614293D02*
X8305777Y-16652388D01*
X8305777Y-16652388D02*
X8296253Y-16671436D01*
X8296253Y-16671436D02*
X8286729Y-16680960D01*
X8286729Y-16680960D02*
X8267682Y-16690484D01*
X8267682Y-16690484D02*
X8248634Y-16690484D01*
X8248634Y-16690484D02*
X8229586Y-16680960D01*
X8229586Y-16680960D02*
X8220063Y-16671436D01*
X8220063Y-16671436D02*
X8210539Y-16652388D01*
X8210539Y-16652388D02*
X8201015Y-16614293D01*
X8201015Y-16614293D02*
X8201015Y-16566674D01*
X8201015Y-16566674D02*
X8210539Y-16528579D01*
X8210539Y-16528579D02*
X8220063Y-16509531D01*
X8220063Y-16509531D02*
X8229586Y-16500008D01*
X8229586Y-16500008D02*
X8248634Y-16490484D01*
X8401015Y-16671436D02*
X8410539Y-16680960D01*
X8410539Y-16680960D02*
X8401015Y-16690484D01*
X8401015Y-16690484D02*
X8391491Y-16680960D01*
X8391491Y-16680960D02*
X8401015Y-16671436D01*
X8401015Y-16671436D02*
X8401015Y-16690484D01*
X8534348Y-16490484D02*
X8553396Y-16490484D01*
X8553396Y-16490484D02*
X8572444Y-16500008D01*
X8572444Y-16500008D02*
X8581968Y-16509531D01*
X8581968Y-16509531D02*
X8591491Y-16528579D01*
X8591491Y-16528579D02*
X8601015Y-16566674D01*
X8601015Y-16566674D02*
X8601015Y-16614293D01*
X8601015Y-16614293D02*
X8591491Y-16652388D01*
X8591491Y-16652388D02*
X8581968Y-16671436D01*
X8581968Y-16671436D02*
X8572444Y-16680960D01*
X8572444Y-16680960D02*
X8553396Y-16690484D01*
X8553396Y-16690484D02*
X8534348Y-16690484D01*
X8534348Y-16690484D02*
X8515301Y-16680960D01*
X8515301Y-16680960D02*
X8505777Y-16671436D01*
X8505777Y-16671436D02*
X8496253Y-16652388D01*
X8496253Y-16652388D02*
X8486729Y-16614293D01*
X8486729Y-16614293D02*
X8486729Y-16566674D01*
X8486729Y-16566674D02*
X8496253Y-16528579D01*
X8496253Y-16528579D02*
X8505777Y-16509531D01*
X8505777Y-16509531D02*
X8515301Y-16500008D01*
X8515301Y-16500008D02*
X8534348Y-16490484D01*
X8772444Y-16490484D02*
X8734348Y-16490484D01*
X8734348Y-16490484D02*
X8715301Y-16500008D01*
X8715301Y-16500008D02*
X8705777Y-16509531D01*
X8705777Y-16509531D02*
X8686729Y-16538103D01*
X8686729Y-16538103D02*
X8677206Y-16576198D01*
X8677206Y-16576198D02*
X8677206Y-16652388D01*
X8677206Y-16652388D02*
X8686729Y-16671436D01*
X8686729Y-16671436D02*
X8696253Y-16680960D01*
X8696253Y-16680960D02*
X8715301Y-16690484D01*
X8715301Y-16690484D02*
X8753396Y-16690484D01*
X8753396Y-16690484D02*
X8772444Y-16680960D01*
X8772444Y-16680960D02*
X8781968Y-16671436D01*
X8781968Y-16671436D02*
X8791491Y-16652388D01*
X8791491Y-16652388D02*
X8791491Y-16604769D01*
X8791491Y-16604769D02*
X8781968Y-16585722D01*
X8781968Y-16585722D02*
X8772444Y-16576198D01*
X8772444Y-16576198D02*
X8753396Y-16566674D01*
X8753396Y-16566674D02*
X8715301Y-16566674D01*
X8715301Y-16566674D02*
X8696253Y-16576198D01*
X8696253Y-16576198D02*
X8686729Y-16585722D01*
X8686729Y-16585722D02*
X8677206Y-16604769D01*
X8962920Y-16490484D02*
X8924825Y-16490484D01*
X8924825Y-16490484D02*
X8905777Y-16500008D01*
X8905777Y-16500008D02*
X8896253Y-16509531D01*
X8896253Y-16509531D02*
X8877206Y-16538103D01*
X8877206Y-16538103D02*
X8867682Y-16576198D01*
X8867682Y-16576198D02*
X8867682Y-16652388D01*
X8867682Y-16652388D02*
X8877206Y-16671436D01*
X8877206Y-16671436D02*
X8886729Y-16680960D01*
X8886729Y-16680960D02*
X8905777Y-16690484D01*
X8905777Y-16690484D02*
X8943872Y-16690484D01*
X8943872Y-16690484D02*
X8962920Y-16680960D01*
X8962920Y-16680960D02*
X8972444Y-16671436D01*
X8972444Y-16671436D02*
X8981968Y-16652388D01*
X8981968Y-16652388D02*
X8981968Y-16604769D01*
X8981968Y-16604769D02*
X8972444Y-16585722D01*
X8972444Y-16585722D02*
X8962920Y-16576198D01*
X8962920Y-16576198D02*
X8943872Y-16566674D01*
X8943872Y-16566674D02*
X8905777Y-16566674D01*
X8905777Y-16566674D02*
X8886729Y-16576198D01*
X8886729Y-16576198D02*
X8877206Y-16585722D01*
X8877206Y-16585722D02*
X8867682Y-16604769D01*
X9077206Y-16690484D02*
X9115301Y-16690484D01*
X9115301Y-16690484D02*
X9134349Y-16680960D01*
X9134349Y-16680960D02*
X9143872Y-16671436D01*
X9143872Y-16671436D02*
X9162920Y-16642865D01*
X9162920Y-16642865D02*
X9172444Y-16604769D01*
X9172444Y-16604769D02*
X9172444Y-16528579D01*
X9172444Y-16528579D02*
X9162920Y-16509531D01*
X9162920Y-16509531D02*
X9153396Y-16500008D01*
X9153396Y-16500008D02*
X9134349Y-16490484D01*
X9134349Y-16490484D02*
X9096253Y-16490484D01*
X9096253Y-16490484D02*
X9077206Y-16500008D01*
X9077206Y-16500008D02*
X9067682Y-16509531D01*
X9067682Y-16509531D02*
X9058158Y-16528579D01*
X9058158Y-16528579D02*
X9058158Y-16576198D01*
X9058158Y-16576198D02*
X9067682Y-16595246D01*
X9067682Y-16595246D02*
X9077206Y-16604769D01*
X9077206Y-16604769D02*
X9096253Y-16614293D01*
X9096253Y-16614293D02*
X9134349Y-16614293D01*
X9134349Y-16614293D02*
X9153396Y-16604769D01*
X9153396Y-16604769D02*
X9162920Y-16595246D01*
X9162920Y-16595246D02*
X9172444Y-16576198D01*
X9248634Y-16490484D02*
X9248634Y-16528579D01*
X9324825Y-16490484D02*
X9324825Y-16528579D01*
X9620063Y-16766674D02*
X9610539Y-16757150D01*
X9610539Y-16757150D02*
X9591491Y-16728579D01*
X9591491Y-16728579D02*
X9581968Y-16709531D01*
X9581968Y-16709531D02*
X9572444Y-16680960D01*
X9572444Y-16680960D02*
X9562920Y-16633341D01*
X9562920Y-16633341D02*
X9562920Y-16595246D01*
X9562920Y-16595246D02*
X9572444Y-16547627D01*
X9572444Y-16547627D02*
X9581968Y-16519055D01*
X9581968Y-16519055D02*
X9591491Y-16500008D01*
X9591491Y-16500008D02*
X9610539Y-16471436D01*
X9610539Y-16471436D02*
X9620063Y-16461912D01*
X9801015Y-16690484D02*
X9686730Y-16690484D01*
X9743872Y-16690484D02*
X9743872Y-16490484D01*
X9743872Y-16490484D02*
X9724825Y-16519055D01*
X9724825Y-16519055D02*
X9705777Y-16538103D01*
X9705777Y-16538103D02*
X9686730Y-16547627D01*
X9877206Y-16509531D02*
X9886730Y-16500008D01*
X9886730Y-16500008D02*
X9905777Y-16490484D01*
X9905777Y-16490484D02*
X9953396Y-16490484D01*
X9953396Y-16490484D02*
X9972444Y-16500008D01*
X9972444Y-16500008D02*
X9981968Y-16509531D01*
X9981968Y-16509531D02*
X9991491Y-16528579D01*
X9991491Y-16528579D02*
X9991491Y-16547627D01*
X9991491Y-16547627D02*
X9981968Y-16576198D01*
X9981968Y-16576198D02*
X9867682Y-16690484D01*
X9867682Y-16690484D02*
X9991491Y-16690484D01*
X10229587Y-16690484D02*
X10229587Y-16490484D01*
X10315301Y-16690484D02*
X10315301Y-16585722D01*
X10315301Y-16585722D02*
X10305777Y-16566674D01*
X10305777Y-16566674D02*
X10286730Y-16557150D01*
X10286730Y-16557150D02*
X10258158Y-16557150D01*
X10258158Y-16557150D02*
X10239111Y-16566674D01*
X10239111Y-16566674D02*
X10229587Y-16576198D01*
X10439111Y-16690484D02*
X10420063Y-16680960D01*
X10420063Y-16680960D02*
X10410539Y-16671436D01*
X10410539Y-16671436D02*
X10401015Y-16652388D01*
X10401015Y-16652388D02*
X10401015Y-16595246D01*
X10401015Y-16595246D02*
X10410539Y-16576198D01*
X10410539Y-16576198D02*
X10420063Y-16566674D01*
X10420063Y-16566674D02*
X10439111Y-16557150D01*
X10439111Y-16557150D02*
X10467682Y-16557150D01*
X10467682Y-16557150D02*
X10486730Y-16566674D01*
X10486730Y-16566674D02*
X10496253Y-16576198D01*
X10496253Y-16576198D02*
X10505777Y-16595246D01*
X10505777Y-16595246D02*
X10505777Y-16652388D01*
X10505777Y-16652388D02*
X10496253Y-16671436D01*
X10496253Y-16671436D02*
X10486730Y-16680960D01*
X10486730Y-16680960D02*
X10467682Y-16690484D01*
X10467682Y-16690484D02*
X10439111Y-16690484D01*
X10620063Y-16690484D02*
X10601015Y-16680960D01*
X10601015Y-16680960D02*
X10591492Y-16661912D01*
X10591492Y-16661912D02*
X10591492Y-16490484D01*
X10772444Y-16680960D02*
X10753396Y-16690484D01*
X10753396Y-16690484D02*
X10715301Y-16690484D01*
X10715301Y-16690484D02*
X10696253Y-16680960D01*
X10696253Y-16680960D02*
X10686730Y-16661912D01*
X10686730Y-16661912D02*
X10686730Y-16585722D01*
X10686730Y-16585722D02*
X10696253Y-16566674D01*
X10696253Y-16566674D02*
X10715301Y-16557150D01*
X10715301Y-16557150D02*
X10753396Y-16557150D01*
X10753396Y-16557150D02*
X10772444Y-16566674D01*
X10772444Y-16566674D02*
X10781968Y-16585722D01*
X10781968Y-16585722D02*
X10781968Y-16604769D01*
X10781968Y-16604769D02*
X10686730Y-16623817D01*
X10858158Y-16680960D02*
X10877206Y-16690484D01*
X10877206Y-16690484D02*
X10915301Y-16690484D01*
X10915301Y-16690484D02*
X10934349Y-16680960D01*
X10934349Y-16680960D02*
X10943873Y-16661912D01*
X10943873Y-16661912D02*
X10943873Y-16652388D01*
X10943873Y-16652388D02*
X10934349Y-16633341D01*
X10934349Y-16633341D02*
X10915301Y-16623817D01*
X10915301Y-16623817D02*
X10886730Y-16623817D01*
X10886730Y-16623817D02*
X10867682Y-16614293D01*
X10867682Y-16614293D02*
X10858158Y-16595246D01*
X10858158Y-16595246D02*
X10858158Y-16585722D01*
X10858158Y-16585722D02*
X10867682Y-16566674D01*
X10867682Y-16566674D02*
X10886730Y-16557150D01*
X10886730Y-16557150D02*
X10915301Y-16557150D01*
X10915301Y-16557150D02*
X10934349Y-16566674D01*
X11010539Y-16766674D02*
X11020063Y-16757150D01*
X11020063Y-16757150D02*
X11039111Y-16728579D01*
X11039111Y-16728579D02*
X11048634Y-16709531D01*
X11048634Y-16709531D02*
X11058158Y-16680960D01*
X11058158Y-16680960D02*
X11067682Y-16633341D01*
X11067682Y-16633341D02*
X11067682Y-16595246D01*
X11067682Y-16595246D02*
X11058158Y-16547627D01*
X11058158Y-16547627D02*
X11048634Y-16519055D01*
X11048634Y-16519055D02*
X11039111Y-16500008D01*
X11039111Y-16500008D02*
X11020063Y-16471436D01*
X11020063Y-16471436D02*
X11010539Y-16461912D01*
X5845000Y-16789000D02*
X6045000Y-16989000D01*
X6045000Y-16789000D02*
X5845000Y-16989000D01*
X5945000Y-16989000D02*
X6045000Y-16889000D01*
X5945000Y-16789000D01*
X5845000Y-16889000D01*
X5945000Y-16989000D01*
X6286729Y-16780484D02*
X6410539Y-16780484D01*
X6410539Y-16780484D02*
X6343872Y-16856674D01*
X6343872Y-16856674D02*
X6372443Y-16856674D01*
X6372443Y-16856674D02*
X6391491Y-16866198D01*
X6391491Y-16866198D02*
X6401015Y-16875722D01*
X6401015Y-16875722D02*
X6410539Y-16894770D01*
X6410539Y-16894770D02*
X6410539Y-16942389D01*
X6410539Y-16942389D02*
X6401015Y-16961436D01*
X6401015Y-16961436D02*
X6391491Y-16970960D01*
X6391491Y-16970960D02*
X6372443Y-16980484D01*
X6372443Y-16980484D02*
X6315301Y-16980484D01*
X6315301Y-16980484D02*
X6296253Y-16970960D01*
X6296253Y-16970960D02*
X6286729Y-16961436D01*
X6496253Y-16961436D02*
X6505777Y-16970960D01*
X6505777Y-16970960D02*
X6496253Y-16980484D01*
X6496253Y-16980484D02*
X6486729Y-16970960D01*
X6486729Y-16970960D02*
X6496253Y-16961436D01*
X6496253Y-16961436D02*
X6496253Y-16980484D01*
X6677205Y-16847150D02*
X6677205Y-16980484D01*
X6629586Y-16770960D02*
X6581967Y-16913817D01*
X6581967Y-16913817D02*
X6705777Y-16913817D01*
X6877205Y-16780484D02*
X6781967Y-16780484D01*
X6781967Y-16780484D02*
X6772443Y-16875722D01*
X6772443Y-16875722D02*
X6781967Y-16866198D01*
X6781967Y-16866198D02*
X6801015Y-16856674D01*
X6801015Y-16856674D02*
X6848634Y-16856674D01*
X6848634Y-16856674D02*
X6867682Y-16866198D01*
X6867682Y-16866198D02*
X6877205Y-16875722D01*
X6877205Y-16875722D02*
X6886729Y-16894770D01*
X6886729Y-16894770D02*
X6886729Y-16942389D01*
X6886729Y-16942389D02*
X6877205Y-16961436D01*
X6877205Y-16961436D02*
X6867682Y-16970960D01*
X6867682Y-16970960D02*
X6848634Y-16980484D01*
X6848634Y-16980484D02*
X6801015Y-16980484D01*
X6801015Y-16980484D02*
X6781967Y-16970960D01*
X6781967Y-16970960D02*
X6772443Y-16961436D01*
X7010539Y-16780484D02*
X7029586Y-16780484D01*
X7029586Y-16780484D02*
X7048634Y-16790008D01*
X7048634Y-16790008D02*
X7058158Y-16799531D01*
X7058158Y-16799531D02*
X7067682Y-16818579D01*
X7067682Y-16818579D02*
X7077205Y-16856674D01*
X7077205Y-16856674D02*
X7077205Y-16904293D01*
X7077205Y-16904293D02*
X7067682Y-16942389D01*
X7067682Y-16942389D02*
X7058158Y-16961436D01*
X7058158Y-16961436D02*
X7048634Y-16970960D01*
X7048634Y-16970960D02*
X7029586Y-16980484D01*
X7029586Y-16980484D02*
X7010539Y-16980484D01*
X7010539Y-16980484D02*
X6991491Y-16970960D01*
X6991491Y-16970960D02*
X6981967Y-16961436D01*
X6981967Y-16961436D02*
X6972443Y-16942389D01*
X6972443Y-16942389D02*
X6962920Y-16904293D01*
X6962920Y-16904293D02*
X6962920Y-16856674D01*
X6962920Y-16856674D02*
X6972443Y-16818579D01*
X6972443Y-16818579D02*
X6981967Y-16799531D01*
X6981967Y-16799531D02*
X6991491Y-16790008D01*
X6991491Y-16790008D02*
X7010539Y-16780484D01*
X7162920Y-16980484D02*
X7162920Y-16847150D01*
X7162920Y-16866198D02*
X7172443Y-16856674D01*
X7172443Y-16856674D02*
X7191491Y-16847150D01*
X7191491Y-16847150D02*
X7220063Y-16847150D01*
X7220063Y-16847150D02*
X7239110Y-16856674D01*
X7239110Y-16856674D02*
X7248634Y-16875722D01*
X7248634Y-16875722D02*
X7248634Y-16980484D01*
X7248634Y-16875722D02*
X7258158Y-16856674D01*
X7258158Y-16856674D02*
X7277205Y-16847150D01*
X7277205Y-16847150D02*
X7305777Y-16847150D01*
X7305777Y-16847150D02*
X7324824Y-16856674D01*
X7324824Y-16856674D02*
X7334348Y-16875722D01*
X7334348Y-16875722D02*
X7334348Y-16980484D01*
X7429586Y-16980484D02*
X7429586Y-16847150D01*
X7429586Y-16866198D02*
X7439110Y-16856674D01*
X7439110Y-16856674D02*
X7458158Y-16847150D01*
X7458158Y-16847150D02*
X7486729Y-16847150D01*
X7486729Y-16847150D02*
X7505777Y-16856674D01*
X7505777Y-16856674D02*
X7515301Y-16875722D01*
X7515301Y-16875722D02*
X7515301Y-16980484D01*
X7515301Y-16875722D02*
X7524824Y-16856674D01*
X7524824Y-16856674D02*
X7543872Y-16847150D01*
X7543872Y-16847150D02*
X7572443Y-16847150D01*
X7572443Y-16847150D02*
X7591491Y-16856674D01*
X7591491Y-16856674D02*
X7601015Y-16875722D01*
X7601015Y-16875722D02*
X7601015Y-16980484D01*
X7991491Y-16770960D02*
X7820063Y-17028103D01*
X8248634Y-16780484D02*
X8267682Y-16780484D01*
X8267682Y-16780484D02*
X8286729Y-16790008D01*
X8286729Y-16790008D02*
X8296253Y-16799531D01*
X8296253Y-16799531D02*
X8305777Y-16818579D01*
X8305777Y-16818579D02*
X8315301Y-16856674D01*
X8315301Y-16856674D02*
X8315301Y-16904293D01*
X8315301Y-16904293D02*
X8305777Y-16942389D01*
X8305777Y-16942389D02*
X8296253Y-16961436D01*
X8296253Y-16961436D02*
X8286729Y-16970960D01*
X8286729Y-16970960D02*
X8267682Y-16980484D01*
X8267682Y-16980484D02*
X8248634Y-16980484D01*
X8248634Y-16980484D02*
X8229586Y-16970960D01*
X8229586Y-16970960D02*
X8220063Y-16961436D01*
X8220063Y-16961436D02*
X8210539Y-16942389D01*
X8210539Y-16942389D02*
X8201015Y-16904293D01*
X8201015Y-16904293D02*
X8201015Y-16856674D01*
X8201015Y-16856674D02*
X8210539Y-16818579D01*
X8210539Y-16818579D02*
X8220063Y-16799531D01*
X8220063Y-16799531D02*
X8229586Y-16790008D01*
X8229586Y-16790008D02*
X8248634Y-16780484D01*
X8401015Y-16961436D02*
X8410539Y-16970960D01*
X8410539Y-16970960D02*
X8401015Y-16980484D01*
X8401015Y-16980484D02*
X8391491Y-16970960D01*
X8391491Y-16970960D02*
X8401015Y-16961436D01*
X8401015Y-16961436D02*
X8401015Y-16980484D01*
X8601015Y-16980484D02*
X8486729Y-16980484D01*
X8543872Y-16980484D02*
X8543872Y-16780484D01*
X8543872Y-16780484D02*
X8524825Y-16809055D01*
X8524825Y-16809055D02*
X8505777Y-16828103D01*
X8505777Y-16828103D02*
X8486729Y-16837627D01*
X8667682Y-16780484D02*
X8791491Y-16780484D01*
X8791491Y-16780484D02*
X8724825Y-16856674D01*
X8724825Y-16856674D02*
X8753396Y-16856674D01*
X8753396Y-16856674D02*
X8772444Y-16866198D01*
X8772444Y-16866198D02*
X8781968Y-16875722D01*
X8781968Y-16875722D02*
X8791491Y-16894770D01*
X8791491Y-16894770D02*
X8791491Y-16942389D01*
X8791491Y-16942389D02*
X8781968Y-16961436D01*
X8781968Y-16961436D02*
X8772444Y-16970960D01*
X8772444Y-16970960D02*
X8753396Y-16980484D01*
X8753396Y-16980484D02*
X8696253Y-16980484D01*
X8696253Y-16980484D02*
X8677206Y-16970960D01*
X8677206Y-16970960D02*
X8667682Y-16961436D01*
X8972444Y-16780484D02*
X8877206Y-16780484D01*
X8877206Y-16780484D02*
X8867682Y-16875722D01*
X8867682Y-16875722D02*
X8877206Y-16866198D01*
X8877206Y-16866198D02*
X8896253Y-16856674D01*
X8896253Y-16856674D02*
X8943872Y-16856674D01*
X8943872Y-16856674D02*
X8962920Y-16866198D01*
X8962920Y-16866198D02*
X8972444Y-16875722D01*
X8972444Y-16875722D02*
X8981968Y-16894770D01*
X8981968Y-16894770D02*
X8981968Y-16942389D01*
X8981968Y-16942389D02*
X8972444Y-16961436D01*
X8972444Y-16961436D02*
X8962920Y-16970960D01*
X8962920Y-16970960D02*
X8943872Y-16980484D01*
X8943872Y-16980484D02*
X8896253Y-16980484D01*
X8896253Y-16980484D02*
X8877206Y-16970960D01*
X8877206Y-16970960D02*
X8867682Y-16961436D01*
X9096253Y-16866198D02*
X9077206Y-16856674D01*
X9077206Y-16856674D02*
X9067682Y-16847150D01*
X9067682Y-16847150D02*
X9058158Y-16828103D01*
X9058158Y-16828103D02*
X9058158Y-16818579D01*
X9058158Y-16818579D02*
X9067682Y-16799531D01*
X9067682Y-16799531D02*
X9077206Y-16790008D01*
X9077206Y-16790008D02*
X9096253Y-16780484D01*
X9096253Y-16780484D02*
X9134349Y-16780484D01*
X9134349Y-16780484D02*
X9153396Y-16790008D01*
X9153396Y-16790008D02*
X9162920Y-16799531D01*
X9162920Y-16799531D02*
X9172444Y-16818579D01*
X9172444Y-16818579D02*
X9172444Y-16828103D01*
X9172444Y-16828103D02*
X9162920Y-16847150D01*
X9162920Y-16847150D02*
X9153396Y-16856674D01*
X9153396Y-16856674D02*
X9134349Y-16866198D01*
X9134349Y-16866198D02*
X9096253Y-16866198D01*
X9096253Y-16866198D02*
X9077206Y-16875722D01*
X9077206Y-16875722D02*
X9067682Y-16885246D01*
X9067682Y-16885246D02*
X9058158Y-16904293D01*
X9058158Y-16904293D02*
X9058158Y-16942389D01*
X9058158Y-16942389D02*
X9067682Y-16961436D01*
X9067682Y-16961436D02*
X9077206Y-16970960D01*
X9077206Y-16970960D02*
X9096253Y-16980484D01*
X9096253Y-16980484D02*
X9134349Y-16980484D01*
X9134349Y-16980484D02*
X9153396Y-16970960D01*
X9153396Y-16970960D02*
X9162920Y-16961436D01*
X9162920Y-16961436D02*
X9172444Y-16942389D01*
X9172444Y-16942389D02*
X9172444Y-16904293D01*
X9172444Y-16904293D02*
X9162920Y-16885246D01*
X9162920Y-16885246D02*
X9153396Y-16875722D01*
X9153396Y-16875722D02*
X9134349Y-16866198D01*
X9248634Y-16780484D02*
X9248634Y-16818579D01*
X9324825Y-16780484D02*
X9324825Y-16818579D01*
X9620063Y-17056674D02*
X9610539Y-17047150D01*
X9610539Y-17047150D02*
X9591491Y-17018579D01*
X9591491Y-17018579D02*
X9581968Y-16999531D01*
X9581968Y-16999531D02*
X9572444Y-16970960D01*
X9572444Y-16970960D02*
X9562920Y-16923341D01*
X9562920Y-16923341D02*
X9562920Y-16885246D01*
X9562920Y-16885246D02*
X9572444Y-16837627D01*
X9572444Y-16837627D02*
X9581968Y-16809055D01*
X9581968Y-16809055D02*
X9591491Y-16790008D01*
X9591491Y-16790008D02*
X9610539Y-16761436D01*
X9610539Y-16761436D02*
X9620063Y-16751912D01*
X9686730Y-16799531D02*
X9696253Y-16790008D01*
X9696253Y-16790008D02*
X9715301Y-16780484D01*
X9715301Y-16780484D02*
X9762920Y-16780484D01*
X9762920Y-16780484D02*
X9781968Y-16790008D01*
X9781968Y-16790008D02*
X9791491Y-16799531D01*
X9791491Y-16799531D02*
X9801015Y-16818579D01*
X9801015Y-16818579D02*
X9801015Y-16837627D01*
X9801015Y-16837627D02*
X9791491Y-16866198D01*
X9791491Y-16866198D02*
X9677206Y-16980484D01*
X9677206Y-16980484D02*
X9801015Y-16980484D01*
X10039111Y-16980484D02*
X10039111Y-16780484D01*
X10124825Y-16980484D02*
X10124825Y-16875722D01*
X10124825Y-16875722D02*
X10115301Y-16856674D01*
X10115301Y-16856674D02*
X10096253Y-16847150D01*
X10096253Y-16847150D02*
X10067682Y-16847150D01*
X10067682Y-16847150D02*
X10048634Y-16856674D01*
X10048634Y-16856674D02*
X10039111Y-16866198D01*
X10248634Y-16980484D02*
X10229587Y-16970960D01*
X10229587Y-16970960D02*
X10220063Y-16961436D01*
X10220063Y-16961436D02*
X10210539Y-16942389D01*
X10210539Y-16942389D02*
X10210539Y-16885246D01*
X10210539Y-16885246D02*
X10220063Y-16866198D01*
X10220063Y-16866198D02*
X10229587Y-16856674D01*
X10229587Y-16856674D02*
X10248634Y-16847150D01*
X10248634Y-16847150D02*
X10277206Y-16847150D01*
X10277206Y-16847150D02*
X10296253Y-16856674D01*
X10296253Y-16856674D02*
X10305777Y-16866198D01*
X10305777Y-16866198D02*
X10315301Y-16885246D01*
X10315301Y-16885246D02*
X10315301Y-16942389D01*
X10315301Y-16942389D02*
X10305777Y-16961436D01*
X10305777Y-16961436D02*
X10296253Y-16970960D01*
X10296253Y-16970960D02*
X10277206Y-16980484D01*
X10277206Y-16980484D02*
X10248634Y-16980484D01*
X10429587Y-16980484D02*
X10410539Y-16970960D01*
X10410539Y-16970960D02*
X10401015Y-16951912D01*
X10401015Y-16951912D02*
X10401015Y-16780484D01*
X10581968Y-16970960D02*
X10562920Y-16980484D01*
X10562920Y-16980484D02*
X10524825Y-16980484D01*
X10524825Y-16980484D02*
X10505777Y-16970960D01*
X10505777Y-16970960D02*
X10496253Y-16951912D01*
X10496253Y-16951912D02*
X10496253Y-16875722D01*
X10496253Y-16875722D02*
X10505777Y-16856674D01*
X10505777Y-16856674D02*
X10524825Y-16847150D01*
X10524825Y-16847150D02*
X10562920Y-16847150D01*
X10562920Y-16847150D02*
X10581968Y-16856674D01*
X10581968Y-16856674D02*
X10591492Y-16875722D01*
X10591492Y-16875722D02*
X10591492Y-16894770D01*
X10591492Y-16894770D02*
X10496253Y-16913817D01*
X10667682Y-16970960D02*
X10686730Y-16980484D01*
X10686730Y-16980484D02*
X10724825Y-16980484D01*
X10724825Y-16980484D02*
X10743873Y-16970960D01*
X10743873Y-16970960D02*
X10753396Y-16951912D01*
X10753396Y-16951912D02*
X10753396Y-16942389D01*
X10753396Y-16942389D02*
X10743873Y-16923341D01*
X10743873Y-16923341D02*
X10724825Y-16913817D01*
X10724825Y-16913817D02*
X10696253Y-16913817D01*
X10696253Y-16913817D02*
X10677206Y-16904293D01*
X10677206Y-16904293D02*
X10667682Y-16885246D01*
X10667682Y-16885246D02*
X10667682Y-16875722D01*
X10667682Y-16875722D02*
X10677206Y-16856674D01*
X10677206Y-16856674D02*
X10696253Y-16847150D01*
X10696253Y-16847150D02*
X10724825Y-16847150D01*
X10724825Y-16847150D02*
X10743873Y-16856674D01*
X10820063Y-17056674D02*
X10829587Y-17047150D01*
X10829587Y-17047150D02*
X10848634Y-17018579D01*
X10848634Y-17018579D02*
X10858158Y-16999531D01*
X10858158Y-16999531D02*
X10867682Y-16970960D01*
X10867682Y-16970960D02*
X10877206Y-16923341D01*
X10877206Y-16923341D02*
X10877206Y-16885246D01*
X10877206Y-16885246D02*
X10867682Y-16837627D01*
X10867682Y-16837627D02*
X10858158Y-16809055D01*
X10858158Y-16809055D02*
X10848634Y-16790008D01*
X10848634Y-16790008D02*
X10829587Y-16761436D01*
X10829587Y-16761436D02*
X10820063Y-16751912D01*
M02*
