M48
; DRILL file {KiCad 8.0.1} date 2024-05-10T09:13:06+0200
; FORMAT={-:-/ absolute / metric / decimal}
; #@! TF.CreationDate,2024-05-10T09:13:06+02:00
; #@! TF.GenerationSoftware,Kicad,Pcbnew,8.0.1
; #@! TF.FileFunction,Plated,1,2,PTH
FMAT,2
METRIC
; #@! TA.AperFunction,Plated,PTH,ViaDrill
T1C0.300
; #@! TA.AperFunction,Plated,PTH,ViaDrill
T2C0.400
; #@! TA.AperFunction,Plated,PTH,ViaDrill
T3C0.500
; #@! TA.AperFunction,Plated,PTH,ComponentDrill
T4C0.800
; #@! TA.AperFunction,Plated,PTH,ComponentDrill
T5C1.000
; #@! TA.AperFunction,Plated,PTH,ComponentDrill
T6C1.300
; #@! TA.AperFunction,Plated,PTH,ComponentDrill
T7C1.500
; #@! TA.AperFunction,Plated,PTH,ComponentDrill
T8C1.700
; #@! TA.AperFunction,Plated,PTH,ComponentDrill
T9C3.450
%
G90
G05
T1
X122.034Y-81.153
X122.047Y-115.57
X123.005Y-81.897
X123.018Y-116.314
T2
X62.865Y-89.408
X63.5Y-72.25
X63.5Y-127.0
X64.55Y-101.55
X64.65Y-92.3
X65.95Y-105.3
X67.1Y-90.55
X68.072Y-102.616
X68.75Y-93.6
X69.0Y-67.25
X69.65Y-106.3
X70.5Y-133.5
X70.739Y-129.794
X70.75Y-63.0
X72.009Y-99.949
X72.75Y-108.5
X74.75Y-110.5
X74.75Y-128.5
X75.25Y-62.5
X75.75Y-80.25
X76.75Y-101.2
X76.75Y-103.9
X77.0Y-72.0
X77.75Y-66.0
X77.8Y-131.35
X79.375Y-67.945
X79.5Y-81.75
X81.534Y-130.05
X81.915Y-69.469
X82.55Y-65.532
X82.804Y-103.124
X82.931Y-96.393
X83.0Y-122.0
X83.312Y-73.152
X83.439Y-113.284
X83.566Y-107.696
X84.0Y-77.25
X84.582Y-116.84
X84.709Y-88.265
X85.217Y-81.323
X85.25Y-136.25
X87.122Y-99.822
X87.63Y-129.794
X87.757Y-108.331
X87.757Y-112.903
X88.138Y-120.904
X88.35Y-132.35
X88.519Y-82.423
X88.646Y-123.952
X88.9Y-116.967
X90.043Y-64.897
X90.043Y-78.486
X90.17Y-74.4
X90.17Y-120.777
X92.583Y-116.84
X93.218Y-83.185
X93.218Y-120.396
X93.472Y-100.203
X93.98Y-79.878
X93.98Y-114.173
X94.25Y-139.0
X94.488Y-92.583
X94.615Y-96.774
X94.742Y-128.143
X94.8Y-132.35
X95.377Y-75.946
X95.631Y-110.617
X95.631Y-112.522
X95.758Y-94.742
X95.758Y-106.299
X95.885Y-115.697
X96.012Y-81.407
X97.5Y-102.5
X97.65Y-68.4
X97.65Y-71.75
X97.75Y-61.75
X97.993Y-105.308
X98.679Y-82.931
X98.679Y-117.221
X98.933Y-124.968
X99.06Y-99.822
X99.187Y-90.678
X99.187Y-129.286
X101.854Y-117.983
X102.743Y-83.439
X103.7Y-84.9
X104.0Y-136.0
X104.292Y-90.627
X105.283Y-119.634
X105.41Y-118.11
X105.537Y-102.489
X105.918Y-83.312
X106.299Y-88.011
X106.553Y-64.897
X107.696Y-78.74
X108.839Y-102.743
X108.839Y-103.886
X109.22Y-87.249
X109.22Y-94.869
X109.626Y-88.951
X109.855Y-102.743
X109.855Y-103.886
X109.931Y-128.575
X110.49Y-110.109
X110.871Y-102.743
X110.871Y-103.886
X110.9Y-132.35
X111.1Y-125.07
X111.125Y-88.519
X111.3Y-72.45
X111.75Y-68.3
X111.912Y-92.913
X112.014Y-89.764
X114.5Y-138.75
X114.55Y-100.1
X114.554Y-122.428
X114.681Y-87.249
X115.0Y-89.5
X117.602Y-102.743
X117.704Y-95.25
X117.75Y-62.0
X117.754Y-97.739
X117.856Y-90.678
X119.126Y-105.725
X119.253Y-75.819
X119.253Y-122.301
X119.761Y-89.154
X120.45Y-132.35
X120.85Y-71.65
X120.904Y-100.33
X121.031Y-107.315
X122.022Y-128.575
X122.174Y-125.222
X123.05Y-77.239
X123.063Y-111.656
X123.19Y-88.265
X123.317Y-102.743
X123.825Y-122.428
X124.35Y-132.4
X124.955Y-72.771
X124.968Y-107.188
X125.25Y-135.5
X125.476Y-124.8
X125.527Y-129.235
X126.225Y-80.645
X126.238Y-115.062
X126.492Y-107.061
X126.873Y-121.793
X127.0Y-103.25
X127.762Y-99.314
X128.184Y-81.956
X128.184Y-116.373
X128.372Y-129.286
X128.397Y-86.995
X128.397Y-120.015
X128.524Y-121.793
X128.6Y-68.45
X128.7Y-90.0
X128.75Y-63.75
X129.794Y-88.9
X129.794Y-132.4
X129.845Y-125.324
X129.921Y-72.898
X130.778Y-101.455
X130.81Y-96.393
X130.937Y-93.599
X130.937Y-103.505
X131.064Y-105.537
X131.445Y-111.163
X132.207Y-116.078
X132.461Y-81.534
X136.6Y-103.75
X136.6Y-105.1
X137.0Y-139.0
X137.922Y-121.539
X138.176Y-64.516
X138.2Y-104.7
X139.85Y-104.8
X141.224Y-79.451
X141.605Y-119.761
X141.732Y-92.583
X141.732Y-117.602
X141.732Y-125.222
X142.0Y-129.4
X142.037Y-65.176
X142.113Y-89.662
X142.3Y-111.15
X142.3Y-112.55
X142.4Y-108.1
X142.494Y-85.344
X142.951Y-82.334
X143.129Y-70.104
X143.256Y-84.023
X143.4Y-121.4
X143.95Y-125.3
X144.3Y-132.45
X144.424Y-89.357
X144.45Y-91.8
X144.45Y-114.95
X144.526Y-117.348
X144.526Y-119.761
X144.8Y-93.3
X144.907Y-66.421
X144.907Y-111.252
X145.339Y-83.363
X145.796Y-129.159
X146.15Y-114.35
X146.177Y-116.078
X146.177Y-125.222
X146.431Y-80.62
X146.45Y-96.65
X146.75Y-99.6
X147.1Y-105.7
X147.35Y-107.35
X147.5Y-135.75
X149.6Y-99.35
X149.7Y-101.2
X150.241Y-67.691
X151.0Y-101.8
X151.0Y-121.5
X151.13Y-125.222
X151.333Y-78.892
X151.75Y-100.5
X153.67Y-67.437
X153.75Y-128.2
X155.6Y-112.15
X156.464Y-64.389
X156.75Y-139.0
X156.972Y-72.517
X157.15Y-116.5
X161.671Y-67.945
X163.75Y-135.75
X164.211Y-119.253
X164.4Y-91.9
X164.4Y-103.95
X164.45Y-115.75
X164.6Y-107.1
X164.65Y-110.45
X164.75Y-99.1
X165.1Y-76.073
X165.862Y-87.122
X165.989Y-81.534
X166.1Y-113.9
X166.116Y-72.39
X166.624Y-67.564
X167.95Y-81.75
X168.529Y-121.666
X168.783Y-64.389
X169.672Y-74.676
X169.799Y-91.186
X169.95Y-103.05
X170.05Y-106.9
X170.1Y-113.2
X170.434Y-69.469
X170.434Y-76.835
X172.212Y-116.078
X172.25Y-138.25
X172.3Y-110.05
X173.99Y-107.696
X174.018Y-90.681
X174.244Y-120.904
X174.625Y-118.618
X174.75Y-113.2
X175.768Y-67.945
X175.768Y-70.993
X176.149Y-102.87
X176.149Y-119.761
X177.165Y-87.503
X177.292Y-78.867
X179.451Y-84.201
X180.05Y-113.3
X180.086Y-107.823
X180.1Y-121.25
X180.467Y-91.059
X182.3Y-104.1
X182.372Y-67.818
X183.007Y-111.252
X183.45Y-115.0
X184.15Y-107.3
X184.785Y-77.851
X185.039Y-91.059
X185.166Y-64.262
X185.5Y-118.65
X185.55Y-111.7
X186.055Y-70.866
X186.055Y-102.489
X186.2Y-114.2
X187.833Y-78.232
X188.214Y-86.106
X188.595Y-75.819
X189.103Y-67.945
X189.992Y-80.264
X190.246Y-73.914
X191.584Y-76.946
X191.897Y-70.993
X192.278Y-83.058
X192.786Y-67.564
X193.929Y-80.264
X194.056Y-64.516
X194.183Y-134.493
X196.088Y-70.358
X197.104Y-131.445
X198.374Y-64.516
X198.628Y-73.279
X198.628Y-134.366
X199.136Y-76.708
X199.263Y-79.248
X199.39Y-129.286
X200.914Y-127.508
X205.232Y-128.397
X205.359Y-123.825
T3
X169.418Y-94.615
X180.467Y-94.615
X182.499Y-72.136
T4
X77.4Y-90.27
X77.4Y-95.35
X79.475Y-123.525
X79.475Y-128.605
X79.94Y-92.81
X82.015Y-126.065
X167.259Y-118.364
X170.109Y-100.584
X170.759Y-118.364
X172.24Y-82.801
X173.609Y-100.584
X175.74Y-82.801
X178.054Y-118.364
X180.721Y-100.584
X181.554Y-118.364
X183.065Y-82.804
X184.221Y-100.584
X186.565Y-82.804
X192.463Y-74.93
X195.963Y-74.93
T5
X68.41Y-126.74
X68.71Y-72.24
X133.35Y-89.662
X133.35Y-92.202
X133.35Y-94.742
X133.35Y-97.282
X133.35Y-99.822
X133.35Y-102.362
X133.35Y-104.902
X133.35Y-107.442
X159.8Y-72.39
X159.8Y-74.93
X159.8Y-80.01
X159.8Y-82.55
X159.8Y-85.09
X159.8Y-87.63
X159.8Y-90.17
X159.8Y-92.71
X159.8Y-95.25
X159.8Y-97.79
X159.8Y-100.33
X159.8Y-102.87
X159.8Y-105.41
X159.8Y-107.95
X159.8Y-110.49
X159.8Y-113.03
X159.8Y-115.57
X159.8Y-118.11
X159.8Y-120.65
X162.34Y-72.39
X162.34Y-74.93
X162.34Y-77.47
X162.34Y-80.01
X162.34Y-82.55
X162.34Y-85.09
X162.34Y-87.63
X162.34Y-90.17
X162.34Y-92.71
X162.34Y-95.25
X162.34Y-97.79
X162.34Y-100.33
X162.34Y-102.87
X162.34Y-105.41
X162.34Y-107.95
X162.34Y-110.49
X162.34Y-113.03
X162.34Y-115.57
X162.34Y-118.11
X162.34Y-120.65
X201.803Y-72.39
X201.803Y-74.93
X201.803Y-80.01
X201.803Y-82.55
X201.803Y-85.09
X201.803Y-87.63
X201.803Y-90.17
X201.803Y-92.71
X201.803Y-95.25
X201.803Y-97.79
X201.803Y-100.33
X201.803Y-102.87
X201.803Y-105.41
X201.803Y-107.95
X201.803Y-110.49
X201.803Y-113.03
X201.803Y-115.57
X201.803Y-118.11
X201.803Y-120.65
X204.343Y-72.39
X204.343Y-74.93
X204.343Y-77.47
X204.343Y-80.01
X204.343Y-82.55
X204.343Y-85.09
X204.343Y-87.63
X204.343Y-90.17
X204.343Y-92.71
X204.343Y-95.25
X204.343Y-97.79
X204.343Y-100.33
X204.343Y-102.87
X204.343Y-105.41
X204.343Y-107.95
X204.343Y-110.49
X204.343Y-113.03
X204.343Y-115.57
X204.343Y-118.11
X204.343Y-120.65
T6
X63.33Y-121.66
X63.33Y-131.82
X63.63Y-67.16
X63.63Y-77.32
X67.65Y-90.55
X67.65Y-108.55
X70.9Y-94.55
X70.9Y-112.55
X72.15Y-86.55
X72.15Y-104.55
X73.49Y-121.66
X73.49Y-131.82
X73.79Y-67.16
X73.79Y-77.32
T7
X68.41Y-126.74
X68.71Y-72.24
X124.46Y-94.234
T8
X65.87Y-124.2
X65.87Y-129.28
X66.17Y-69.7
X66.17Y-74.78
X70.95Y-124.2
X70.95Y-129.28
X71.25Y-69.7
X71.25Y-74.78
X121.92Y-91.694
X121.92Y-96.774
X127.0Y-91.694
X127.0Y-96.774
T9
X68.15Y-83.3
X68.15Y-115.8
M30
