G04 #@! TF.GenerationSoftware,KiCad,Pcbnew,8.0.1*
G04 #@! TF.CreationDate,2024-05-23T14:09:47+02:00*
G04 #@! TF.ProjectId,MISRC_v2.1,4d495352-435f-4763-922e-312e6b696361,0.3*
G04 #@! TF.SameCoordinates,Original*
G04 #@! TF.FileFunction,Paste,Bot*
G04 #@! TF.FilePolarity,Positive*
%FSLAX46Y46*%
G04 Gerber Fmt 4.6, Leading zero omitted, Abs format (unit mm)*
G04 Created by KiCad (PCBNEW 8.0.1) date 2024-05-23 14:09:47*
%MOMM*%
%LPD*%
G01*
G04 APERTURE LIST*
G04 Aperture macros list*
%AMRoundRect*
0 Rectangle with rounded corners*
0 $1 Rounding radius*
0 $2 $3 $4 $5 $6 $7 $8 $9 X,Y pos of 4 corners*
0 Add a 4 corners polygon primitive as box body*
4,1,4,$2,$3,$4,$5,$6,$7,$8,$9,$2,$3,0*
0 Add four circle primitives for the rounded corners*
1,1,$1+$1,$2,$3*
1,1,$1+$1,$4,$5*
1,1,$1+$1,$6,$7*
1,1,$1+$1,$8,$9*
0 Add four rect primitives between the rounded corners*
20,1,$1+$1,$2,$3,$4,$5,0*
20,1,$1+$1,$4,$5,$6,$7,0*
20,1,$1+$1,$6,$7,$8,$9,0*
20,1,$1+$1,$8,$9,$2,$3,0*%
G04 Aperture macros list end*
%ADD10RoundRect,0.250000X-0.250000X-0.475000X0.250000X-0.475000X0.250000X0.475000X-0.250000X0.475000X0*%
%ADD11RoundRect,0.250001X-0.924999X0.499999X-0.924999X-0.499999X0.924999X-0.499999X0.924999X0.499999X0*%
%ADD12RoundRect,0.250000X-0.475000X0.250000X-0.475000X-0.250000X0.475000X-0.250000X0.475000X0.250000X0*%
%ADD13RoundRect,0.250000X0.475000X-0.250000X0.475000X0.250000X-0.475000X0.250000X-0.475000X-0.250000X0*%
%ADD14RoundRect,0.250000X-0.262500X-0.450000X0.262500X-0.450000X0.262500X0.450000X-0.262500X0.450000X0*%
%ADD15R,1.400000X1.200000*%
%ADD16RoundRect,0.150000X0.150000X-0.587500X0.150000X0.587500X-0.150000X0.587500X-0.150000X-0.587500X0*%
%ADD17RoundRect,0.250000X-0.450000X0.262500X-0.450000X-0.262500X0.450000X-0.262500X0.450000X0.262500X0*%
%ADD18RoundRect,0.250000X0.262500X0.450000X-0.262500X0.450000X-0.262500X-0.450000X0.262500X-0.450000X0*%
%ADD19RoundRect,0.375000X0.375000X-0.625000X0.375000X0.625000X-0.375000X0.625000X-0.375000X-0.625000X0*%
%ADD20RoundRect,0.500000X1.400000X-0.500000X1.400000X0.500000X-1.400000X0.500000X-1.400000X-0.500000X0*%
%ADD21RoundRect,0.230000X0.375000X-0.230000X0.375000X0.230000X-0.375000X0.230000X-0.375000X-0.230000X0*%
%ADD22RoundRect,0.150000X0.150000X-0.825000X0.150000X0.825000X-0.150000X0.825000X-0.150000X-0.825000X0*%
%ADD23RoundRect,0.250001X0.924999X-0.499999X0.924999X0.499999X-0.924999X0.499999X-0.924999X-0.499999X0*%
%ADD24RoundRect,0.250000X0.450000X-0.262500X0.450000X0.262500X-0.450000X0.262500X-0.450000X-0.262500X0*%
%ADD25RoundRect,0.250000X0.250000X0.475000X-0.250000X0.475000X-0.250000X-0.475000X0.250000X-0.475000X0*%
%ADD26RoundRect,0.250001X-0.499999X-0.924999X0.499999X-0.924999X0.499999X0.924999X-0.499999X0.924999X0*%
%ADD27RoundRect,0.150000X0.512500X0.150000X-0.512500X0.150000X-0.512500X-0.150000X0.512500X-0.150000X0*%
%ADD28RoundRect,0.150000X0.587500X0.150000X-0.587500X0.150000X-0.587500X-0.150000X0.587500X-0.150000X0*%
%ADD29RoundRect,0.150000X-0.725000X-0.150000X0.725000X-0.150000X0.725000X0.150000X-0.725000X0.150000X0*%
%ADD30RoundRect,0.028800X0.211200X-0.921200X0.211200X0.921200X-0.211200X0.921200X-0.211200X-0.921200X0*%
%ADD31RoundRect,0.028800X-0.211200X0.921200X-0.211200X-0.921200X0.211200X-0.921200X0.211200X0.921200X0*%
G04 APERTURE END LIST*
D10*
X100015000Y-117856000D03*
X101915000Y-117856000D03*
D11*
X110363000Y-116358000D03*
X110363000Y-119608000D03*
D10*
X138350000Y-92300000D03*
X140250000Y-92300000D03*
D12*
X132207000Y-81600000D03*
X132207000Y-83500000D03*
D13*
X118097000Y-83119000D03*
X118097000Y-81219000D03*
D14*
X143207100Y-71678800D03*
X145032100Y-71678800D03*
D12*
X169418000Y-96586000D03*
X169418000Y-98486000D03*
D13*
X148590000Y-77287200D03*
X148590000Y-75387200D03*
D12*
X175831500Y-74361000D03*
X175831500Y-76261000D03*
D15*
X137140000Y-113400000D03*
X134600000Y-113400000D03*
X134600000Y-111200000D03*
X137140000Y-111200000D03*
D16*
X93279000Y-75994500D03*
X91379000Y-75994500D03*
X92329000Y-74119500D03*
D12*
X141630400Y-75387200D03*
X141630400Y-77287200D03*
D17*
X112141000Y-84154000D03*
X112141000Y-85979000D03*
D13*
X108839000Y-109789000D03*
X108839000Y-107889000D03*
D12*
X180467000Y-96586000D03*
X180467000Y-98486000D03*
D14*
X182983500Y-96393000D03*
X184808500Y-96393000D03*
D18*
X126769500Y-110871000D03*
X124944500Y-110871000D03*
D12*
X120396000Y-112080000D03*
X120396000Y-113980000D03*
D10*
X126291000Y-80645000D03*
X128191000Y-80645000D03*
D18*
X126756500Y-76454000D03*
X124931500Y-76454000D03*
D10*
X144150000Y-108600000D03*
X146050000Y-108600000D03*
D17*
X148350000Y-92925000D03*
X148350000Y-94750000D03*
D12*
X118097000Y-77663000D03*
X118097000Y-79563000D03*
X195961000Y-76647000D03*
X195961000Y-78547000D03*
D19*
X185053000Y-94082000D03*
X182753000Y-94082000D03*
D20*
X182753000Y-87782000D03*
D19*
X180453000Y-94082000D03*
D10*
X184978000Y-98425000D03*
X186878000Y-98425000D03*
D13*
X118110000Y-121092000D03*
X118110000Y-119192000D03*
D17*
X150450000Y-92925000D03*
X150450000Y-94750000D03*
D12*
X140150000Y-111350000D03*
X140150000Y-113250000D03*
D16*
X93279000Y-110290000D03*
X91379000Y-110290000D03*
X92329000Y-108415000D03*
D12*
X105537000Y-84775000D03*
X105537000Y-86675000D03*
X120383000Y-77663000D03*
X120383000Y-79563000D03*
D21*
X109093000Y-103883000D03*
X110593000Y-103883000D03*
X109093000Y-102743000D03*
X110593000Y-102743000D03*
D22*
X111748000Y-105788000D03*
X110478000Y-105788000D03*
X109208000Y-105788000D03*
X107938000Y-105788000D03*
X107938000Y-100838000D03*
X109208000Y-100838000D03*
X110478000Y-100838000D03*
X111748000Y-100838000D03*
D12*
X143916400Y-75387200D03*
X143916400Y-77287200D03*
D23*
X115049000Y-83286000D03*
X115049000Y-80036000D03*
D10*
X173802000Y-98552000D03*
X175702000Y-98552000D03*
D24*
X154000000Y-106825000D03*
X154000000Y-105000000D03*
D17*
X123063000Y-109831500D03*
X123063000Y-111656500D03*
D10*
X126304000Y-113030000D03*
X128204000Y-113030000D03*
X144150000Y-106450000D03*
X146050000Y-106450000D03*
D25*
X148050000Y-103500000D03*
X146150000Y-103500000D03*
D14*
X139447900Y-71678800D03*
X141272900Y-71678800D03*
X139447900Y-68427600D03*
X141272900Y-68427600D03*
D13*
X120396000Y-121092000D03*
X120396000Y-119192000D03*
X152196800Y-77200800D03*
X152196800Y-75300800D03*
D18*
X126756500Y-74422000D03*
X124931500Y-74422000D03*
D12*
X77350000Y-97750000D03*
X77350000Y-99650000D03*
D18*
X153325000Y-108750000D03*
X151500000Y-108750000D03*
D13*
X106172000Y-82103000D03*
X106172000Y-80203000D03*
D19*
X174004000Y-94082000D03*
X171704000Y-94082000D03*
D20*
X171704000Y-87782000D03*
D19*
X169404000Y-94082000D03*
D10*
X126304000Y-115062000D03*
X128204000Y-115062000D03*
D25*
X156900000Y-91500000D03*
X155000000Y-91500000D03*
D13*
X120383000Y-86675000D03*
X120383000Y-84775000D03*
D12*
X118110000Y-112080000D03*
X118110000Y-113980000D03*
D18*
X156919300Y-76809600D03*
X155094300Y-76809600D03*
D17*
X123050000Y-75414500D03*
X123050000Y-77239500D03*
D18*
X151525000Y-103500000D03*
X149700000Y-103500000D03*
X126769500Y-108839000D03*
X124944500Y-108839000D03*
X156919300Y-78994000D03*
X155094300Y-78994000D03*
D10*
X172659000Y-84963000D03*
X174559000Y-84963000D03*
D12*
X132207000Y-116144000D03*
X132207000Y-118044000D03*
D24*
X111760000Y-114450500D03*
X111760000Y-112625500D03*
D13*
X120383000Y-83119000D03*
X120383000Y-81219000D03*
D12*
X110490000Y-96713000D03*
X110490000Y-98613000D03*
D23*
X115062000Y-117703000D03*
X115062000Y-114453000D03*
D26*
X124867000Y-117856000D03*
X128117000Y-117856000D03*
D27*
X182430000Y-75250000D03*
X182430000Y-76200000D03*
X182430000Y-77150000D03*
X180155000Y-77150000D03*
X180155000Y-75250000D03*
D12*
X181483000Y-69850000D03*
X181483000Y-71750000D03*
D14*
X171934500Y-96393000D03*
X173759500Y-96393000D03*
D23*
X110871000Y-81990000D03*
X110871000Y-78740000D03*
D28*
X93774500Y-112334000D03*
X93774500Y-114234000D03*
X91899500Y-113284000D03*
D29*
X148350000Y-120060000D03*
X148350000Y-118790000D03*
X148350000Y-117520000D03*
X148350000Y-116250000D03*
X148350000Y-114980000D03*
X148350000Y-113710000D03*
X148350000Y-112440000D03*
X148350000Y-111170000D03*
X153500000Y-111170000D03*
X153500000Y-112440000D03*
X153500000Y-113710000D03*
X153500000Y-114980000D03*
X153500000Y-116250000D03*
X153500000Y-117520000D03*
X153500000Y-118790000D03*
X153500000Y-120060000D03*
D25*
X142400000Y-106100000D03*
X140500000Y-106100000D03*
D13*
X105410000Y-116647000D03*
X105410000Y-114747000D03*
X146405600Y-77287200D03*
X146405600Y-75387200D03*
D24*
X146304000Y-88085300D03*
X146304000Y-86260300D03*
D25*
X148050000Y-101350000D03*
X146150000Y-101350000D03*
D24*
X146200000Y-94775000D03*
X146200000Y-92950000D03*
X145900000Y-120612500D03*
X145900000Y-118787500D03*
X109982000Y-86002500D03*
X109982000Y-84177500D03*
D14*
X143207100Y-68427600D03*
X145032100Y-68427600D03*
D12*
X183642000Y-69850000D03*
X183642000Y-71750000D03*
D25*
X115550000Y-101750000D03*
X113650000Y-101750000D03*
D30*
X143875000Y-102870000D03*
X143225000Y-102870000D03*
X142575000Y-102870000D03*
X141925000Y-102870000D03*
X141275000Y-102870000D03*
X140625000Y-102870000D03*
X139975000Y-102870000D03*
X139325000Y-102870000D03*
X138675000Y-102870000D03*
X138025000Y-102870000D03*
X138025000Y-95860000D03*
X138675000Y-95860000D03*
X139325000Y-95860000D03*
X139975000Y-95860000D03*
X140625000Y-95860000D03*
X141275000Y-95860000D03*
X141925000Y-95860000D03*
X142575000Y-95860000D03*
X143225000Y-95860000D03*
X143875000Y-95860000D03*
D28*
X93780000Y-77978000D03*
X93780000Y-79878000D03*
X91905000Y-78928000D03*
D13*
X118097000Y-86675000D03*
X118097000Y-84775000D03*
D18*
X151175000Y-106700000D03*
X149350000Y-106700000D03*
D13*
X156100000Y-120100000D03*
X156100000Y-118200000D03*
X120396000Y-117536000D03*
X120396000Y-115636000D03*
X108204000Y-82103000D03*
X108204000Y-80203000D03*
D10*
X183581000Y-84836000D03*
X185481000Y-84836000D03*
D13*
X107442000Y-116647000D03*
X107442000Y-114747000D03*
D10*
X126291000Y-78613000D03*
X128191000Y-78613000D03*
D12*
X105664000Y-121732000D03*
X105664000Y-123632000D03*
D31*
X150317200Y-81788400D03*
X150967200Y-81788400D03*
X151617200Y-81788400D03*
X152267200Y-81788400D03*
X152917200Y-81788400D03*
X153567200Y-81788400D03*
X154217200Y-81788400D03*
X154867200Y-81788400D03*
X155517200Y-81788400D03*
X156167200Y-81788400D03*
X156167200Y-88798400D03*
X155517200Y-88798400D03*
X154867200Y-88798400D03*
X154217200Y-88798400D03*
X153567200Y-88798400D03*
X152917200Y-88798400D03*
X152267200Y-88798400D03*
X151617200Y-88798400D03*
X150967200Y-88798400D03*
X150317200Y-88798400D03*
D10*
X100142000Y-83439000D03*
X102042000Y-83439000D03*
D13*
X118110000Y-117536000D03*
X118110000Y-115636000D03*
D26*
X124854000Y-83439000D03*
X128104000Y-83439000D03*
D13*
X116078000Y-105725000D03*
X116078000Y-103825000D03*
D10*
X83350000Y-124100000D03*
X85250000Y-124100000D03*
D17*
X109601000Y-112625500D03*
X109601000Y-114450500D03*
D12*
X177990500Y-74361000D03*
X177990500Y-76261000D03*
D13*
X113792000Y-105725000D03*
X113792000Y-103825000D03*
X108331000Y-98613000D03*
X108331000Y-96713000D03*
M02*
