%TF.GenerationSoftware,KiCad,Pcbnew,8.0.1*%
%TF.CreationDate,2024-05-10T09:13:11+02:00*%
%TF.ProjectId,MISRC_v2,4d495352-435f-4763-922e-6b696361645f,0.3*%
%TF.SameCoordinates,Original*%
%TF.FileFunction,Drillmap*%
%TF.FilePolarity,Positive*%
%FSLAX45Y45*%
G04 Gerber Fmt 4.5, Leading zero omitted, Abs format (unit mm)*
G04 Created by KiCad (PCBNEW 8.0.1) date 2024-05-10 09:13:11*
%MOMM*%
%LPD*%
G01*
G04 APERTURE LIST*
%ADD10C,0.100000*%
%ADD11C,0.200000*%
%ADD12C,0.320000*%
G04 APERTURE END LIST*
D10*
X20675000Y-14100000D02*
X20675000Y-5800000D01*
X6050000Y-14100000D02*
X20675000Y-14100000D01*
X20675000Y-5800000D02*
X6050000Y-5800000D01*
X6050000Y-5800000D02*
X6050000Y-14100000D01*
D11*
D12*
X6265000Y-5990000D02*
X6585000Y-6310000D01*
X6585000Y-5990000D02*
X6265000Y-6310000D01*
X6265000Y-13590000D02*
X6585000Y-13910000D01*
X6585000Y-13590000D02*
X6265000Y-13910000D01*
X20147300Y-5990000D02*
X20467300Y-6310000D01*
X20467300Y-5990000D02*
X20147300Y-6310000D01*
X20147300Y-13590000D02*
X20467300Y-13910000D01*
X20467300Y-13590000D02*
X20147300Y-13910000D01*
D11*
X6305777Y-14416484D02*
X6305777Y-14216484D01*
X6305777Y-14216484D02*
X6353396Y-14216484D01*
X6353396Y-14216484D02*
X6381967Y-14226008D01*
X6381967Y-14226008D02*
X6401015Y-14245055D01*
X6401015Y-14245055D02*
X6410539Y-14264103D01*
X6410539Y-14264103D02*
X6420062Y-14302198D01*
X6420062Y-14302198D02*
X6420062Y-14330769D01*
X6420062Y-14330769D02*
X6410539Y-14368865D01*
X6410539Y-14368865D02*
X6401015Y-14387912D01*
X6401015Y-14387912D02*
X6381967Y-14406960D01*
X6381967Y-14406960D02*
X6353396Y-14416484D01*
X6353396Y-14416484D02*
X6305777Y-14416484D01*
X6505777Y-14416484D02*
X6505777Y-14283150D01*
X6505777Y-14321246D02*
X6515301Y-14302198D01*
X6515301Y-14302198D02*
X6524824Y-14292674D01*
X6524824Y-14292674D02*
X6543872Y-14283150D01*
X6543872Y-14283150D02*
X6562920Y-14283150D01*
X6629586Y-14416484D02*
X6629586Y-14283150D01*
X6629586Y-14216484D02*
X6620062Y-14226008D01*
X6620062Y-14226008D02*
X6629586Y-14235531D01*
X6629586Y-14235531D02*
X6639110Y-14226008D01*
X6639110Y-14226008D02*
X6629586Y-14216484D01*
X6629586Y-14216484D02*
X6629586Y-14235531D01*
X6753396Y-14416484D02*
X6734348Y-14406960D01*
X6734348Y-14406960D02*
X6724824Y-14387912D01*
X6724824Y-14387912D02*
X6724824Y-14216484D01*
X6858158Y-14416484D02*
X6839110Y-14406960D01*
X6839110Y-14406960D02*
X6829586Y-14387912D01*
X6829586Y-14387912D02*
X6829586Y-14216484D01*
X7086729Y-14416484D02*
X7086729Y-14216484D01*
X7086729Y-14216484D02*
X7153396Y-14359341D01*
X7153396Y-14359341D02*
X7220062Y-14216484D01*
X7220062Y-14216484D02*
X7220062Y-14416484D01*
X7401015Y-14416484D02*
X7401015Y-14311722D01*
X7401015Y-14311722D02*
X7391491Y-14292674D01*
X7391491Y-14292674D02*
X7372443Y-14283150D01*
X7372443Y-14283150D02*
X7334348Y-14283150D01*
X7334348Y-14283150D02*
X7315301Y-14292674D01*
X7401015Y-14406960D02*
X7381967Y-14416484D01*
X7381967Y-14416484D02*
X7334348Y-14416484D01*
X7334348Y-14416484D02*
X7315301Y-14406960D01*
X7315301Y-14406960D02*
X7305777Y-14387912D01*
X7305777Y-14387912D02*
X7305777Y-14368865D01*
X7305777Y-14368865D02*
X7315301Y-14349817D01*
X7315301Y-14349817D02*
X7334348Y-14340293D01*
X7334348Y-14340293D02*
X7381967Y-14340293D01*
X7381967Y-14340293D02*
X7401015Y-14330769D01*
X7496253Y-14283150D02*
X7496253Y-14483150D01*
X7496253Y-14292674D02*
X7515301Y-14283150D01*
X7515301Y-14283150D02*
X7553396Y-14283150D01*
X7553396Y-14283150D02*
X7572443Y-14292674D01*
X7572443Y-14292674D02*
X7581967Y-14302198D01*
X7581967Y-14302198D02*
X7591491Y-14321246D01*
X7591491Y-14321246D02*
X7591491Y-14378388D01*
X7591491Y-14378388D02*
X7581967Y-14397436D01*
X7581967Y-14397436D02*
X7572443Y-14406960D01*
X7572443Y-14406960D02*
X7553396Y-14416484D01*
X7553396Y-14416484D02*
X7515301Y-14416484D01*
X7515301Y-14416484D02*
X7496253Y-14406960D01*
X7677205Y-14397436D02*
X7686729Y-14406960D01*
X7686729Y-14406960D02*
X7677205Y-14416484D01*
X7677205Y-14416484D02*
X7667682Y-14406960D01*
X7667682Y-14406960D02*
X7677205Y-14397436D01*
X7677205Y-14397436D02*
X7677205Y-14416484D01*
X7677205Y-14292674D02*
X7686729Y-14302198D01*
X7686729Y-14302198D02*
X7677205Y-14311722D01*
X7677205Y-14311722D02*
X7667682Y-14302198D01*
X7667682Y-14302198D02*
X7677205Y-14292674D01*
X7677205Y-14292674D02*
X7677205Y-14311722D01*
X5845000Y-14645000D02*
X6045000Y-14845000D01*
X6045000Y-14645000D02*
X5845000Y-14845000D01*
X6286729Y-14636484D02*
X6410539Y-14636484D01*
X6410539Y-14636484D02*
X6343872Y-14712674D01*
X6343872Y-14712674D02*
X6372443Y-14712674D01*
X6372443Y-14712674D02*
X6391491Y-14722198D01*
X6391491Y-14722198D02*
X6401015Y-14731722D01*
X6401015Y-14731722D02*
X6410539Y-14750769D01*
X6410539Y-14750769D02*
X6410539Y-14798388D01*
X6410539Y-14798388D02*
X6401015Y-14817436D01*
X6401015Y-14817436D02*
X6391491Y-14826960D01*
X6391491Y-14826960D02*
X6372443Y-14836484D01*
X6372443Y-14836484D02*
X6315301Y-14836484D01*
X6315301Y-14836484D02*
X6296253Y-14826960D01*
X6296253Y-14826960D02*
X6286729Y-14817436D01*
X6496253Y-14817436D02*
X6505777Y-14826960D01*
X6505777Y-14826960D02*
X6496253Y-14836484D01*
X6496253Y-14836484D02*
X6486729Y-14826960D01*
X6486729Y-14826960D02*
X6496253Y-14817436D01*
X6496253Y-14817436D02*
X6496253Y-14836484D01*
X6581967Y-14655531D02*
X6591491Y-14646008D01*
X6591491Y-14646008D02*
X6610539Y-14636484D01*
X6610539Y-14636484D02*
X6658158Y-14636484D01*
X6658158Y-14636484D02*
X6677205Y-14646008D01*
X6677205Y-14646008D02*
X6686729Y-14655531D01*
X6686729Y-14655531D02*
X6696253Y-14674579D01*
X6696253Y-14674579D02*
X6696253Y-14693627D01*
X6696253Y-14693627D02*
X6686729Y-14722198D01*
X6686729Y-14722198D02*
X6572443Y-14836484D01*
X6572443Y-14836484D02*
X6696253Y-14836484D01*
X6820062Y-14636484D02*
X6839110Y-14636484D01*
X6839110Y-14636484D02*
X6858158Y-14646008D01*
X6858158Y-14646008D02*
X6867682Y-14655531D01*
X6867682Y-14655531D02*
X6877205Y-14674579D01*
X6877205Y-14674579D02*
X6886729Y-14712674D01*
X6886729Y-14712674D02*
X6886729Y-14760293D01*
X6886729Y-14760293D02*
X6877205Y-14798388D01*
X6877205Y-14798388D02*
X6867682Y-14817436D01*
X6867682Y-14817436D02*
X6858158Y-14826960D01*
X6858158Y-14826960D02*
X6839110Y-14836484D01*
X6839110Y-14836484D02*
X6820062Y-14836484D01*
X6820062Y-14836484D02*
X6801015Y-14826960D01*
X6801015Y-14826960D02*
X6791491Y-14817436D01*
X6791491Y-14817436D02*
X6781967Y-14798388D01*
X6781967Y-14798388D02*
X6772443Y-14760293D01*
X6772443Y-14760293D02*
X6772443Y-14712674D01*
X6772443Y-14712674D02*
X6781967Y-14674579D01*
X6781967Y-14674579D02*
X6791491Y-14655531D01*
X6791491Y-14655531D02*
X6801015Y-14646008D01*
X6801015Y-14646008D02*
X6820062Y-14636484D01*
X7010539Y-14636484D02*
X7029586Y-14636484D01*
X7029586Y-14636484D02*
X7048634Y-14646008D01*
X7048634Y-14646008D02*
X7058158Y-14655531D01*
X7058158Y-14655531D02*
X7067682Y-14674579D01*
X7067682Y-14674579D02*
X7077205Y-14712674D01*
X7077205Y-14712674D02*
X7077205Y-14760293D01*
X7077205Y-14760293D02*
X7067682Y-14798388D01*
X7067682Y-14798388D02*
X7058158Y-14817436D01*
X7058158Y-14817436D02*
X7048634Y-14826960D01*
X7048634Y-14826960D02*
X7029586Y-14836484D01*
X7029586Y-14836484D02*
X7010539Y-14836484D01*
X7010539Y-14836484D02*
X6991491Y-14826960D01*
X6991491Y-14826960D02*
X6981967Y-14817436D01*
X6981967Y-14817436D02*
X6972443Y-14798388D01*
X6972443Y-14798388D02*
X6962920Y-14760293D01*
X6962920Y-14760293D02*
X6962920Y-14712674D01*
X6962920Y-14712674D02*
X6972443Y-14674579D01*
X6972443Y-14674579D02*
X6981967Y-14655531D01*
X6981967Y-14655531D02*
X6991491Y-14646008D01*
X6991491Y-14646008D02*
X7010539Y-14636484D01*
X7162920Y-14836484D02*
X7162920Y-14703150D01*
X7162920Y-14722198D02*
X7172443Y-14712674D01*
X7172443Y-14712674D02*
X7191491Y-14703150D01*
X7191491Y-14703150D02*
X7220063Y-14703150D01*
X7220063Y-14703150D02*
X7239110Y-14712674D01*
X7239110Y-14712674D02*
X7248634Y-14731722D01*
X7248634Y-14731722D02*
X7248634Y-14836484D01*
X7248634Y-14731722D02*
X7258158Y-14712674D01*
X7258158Y-14712674D02*
X7277205Y-14703150D01*
X7277205Y-14703150D02*
X7305777Y-14703150D01*
X7305777Y-14703150D02*
X7324824Y-14712674D01*
X7324824Y-14712674D02*
X7334348Y-14731722D01*
X7334348Y-14731722D02*
X7334348Y-14836484D01*
X7429586Y-14836484D02*
X7429586Y-14703150D01*
X7429586Y-14722198D02*
X7439110Y-14712674D01*
X7439110Y-14712674D02*
X7458158Y-14703150D01*
X7458158Y-14703150D02*
X7486729Y-14703150D01*
X7486729Y-14703150D02*
X7505777Y-14712674D01*
X7505777Y-14712674D02*
X7515301Y-14731722D01*
X7515301Y-14731722D02*
X7515301Y-14836484D01*
X7515301Y-14731722D02*
X7524824Y-14712674D01*
X7524824Y-14712674D02*
X7543872Y-14703150D01*
X7543872Y-14703150D02*
X7572443Y-14703150D01*
X7572443Y-14703150D02*
X7591491Y-14712674D01*
X7591491Y-14712674D02*
X7601015Y-14731722D01*
X7601015Y-14731722D02*
X7601015Y-14836484D01*
X7991491Y-14626960D02*
X7820063Y-14884103D01*
X8248634Y-14636484D02*
X8267682Y-14636484D01*
X8267682Y-14636484D02*
X8286729Y-14646008D01*
X8286729Y-14646008D02*
X8296253Y-14655531D01*
X8296253Y-14655531D02*
X8305777Y-14674579D01*
X8305777Y-14674579D02*
X8315301Y-14712674D01*
X8315301Y-14712674D02*
X8315301Y-14760293D01*
X8315301Y-14760293D02*
X8305777Y-14798388D01*
X8305777Y-14798388D02*
X8296253Y-14817436D01*
X8296253Y-14817436D02*
X8286729Y-14826960D01*
X8286729Y-14826960D02*
X8267682Y-14836484D01*
X8267682Y-14836484D02*
X8248634Y-14836484D01*
X8248634Y-14836484D02*
X8229586Y-14826960D01*
X8229586Y-14826960D02*
X8220063Y-14817436D01*
X8220063Y-14817436D02*
X8210539Y-14798388D01*
X8210539Y-14798388D02*
X8201015Y-14760293D01*
X8201015Y-14760293D02*
X8201015Y-14712674D01*
X8201015Y-14712674D02*
X8210539Y-14674579D01*
X8210539Y-14674579D02*
X8220063Y-14655531D01*
X8220063Y-14655531D02*
X8229586Y-14646008D01*
X8229586Y-14646008D02*
X8248634Y-14636484D01*
X8401015Y-14817436D02*
X8410539Y-14826960D01*
X8410539Y-14826960D02*
X8401015Y-14836484D01*
X8401015Y-14836484D02*
X8391491Y-14826960D01*
X8391491Y-14826960D02*
X8401015Y-14817436D01*
X8401015Y-14817436D02*
X8401015Y-14836484D01*
X8601015Y-14836484D02*
X8486729Y-14836484D01*
X8543872Y-14836484D02*
X8543872Y-14636484D01*
X8543872Y-14636484D02*
X8524825Y-14665055D01*
X8524825Y-14665055D02*
X8505777Y-14684103D01*
X8505777Y-14684103D02*
X8486729Y-14693627D01*
X8677206Y-14655531D02*
X8686729Y-14646008D01*
X8686729Y-14646008D02*
X8705777Y-14636484D01*
X8705777Y-14636484D02*
X8753396Y-14636484D01*
X8753396Y-14636484D02*
X8772444Y-14646008D01*
X8772444Y-14646008D02*
X8781968Y-14655531D01*
X8781968Y-14655531D02*
X8791491Y-14674579D01*
X8791491Y-14674579D02*
X8791491Y-14693627D01*
X8791491Y-14693627D02*
X8781968Y-14722198D01*
X8781968Y-14722198D02*
X8667682Y-14836484D01*
X8667682Y-14836484D02*
X8791491Y-14836484D01*
X8962920Y-14636484D02*
X8924825Y-14636484D01*
X8924825Y-14636484D02*
X8905777Y-14646008D01*
X8905777Y-14646008D02*
X8896253Y-14655531D01*
X8896253Y-14655531D02*
X8877206Y-14684103D01*
X8877206Y-14684103D02*
X8867682Y-14722198D01*
X8867682Y-14722198D02*
X8867682Y-14798388D01*
X8867682Y-14798388D02*
X8877206Y-14817436D01*
X8877206Y-14817436D02*
X8886729Y-14826960D01*
X8886729Y-14826960D02*
X8905777Y-14836484D01*
X8905777Y-14836484D02*
X8943872Y-14836484D01*
X8943872Y-14836484D02*
X8962920Y-14826960D01*
X8962920Y-14826960D02*
X8972444Y-14817436D01*
X8972444Y-14817436D02*
X8981968Y-14798388D01*
X8981968Y-14798388D02*
X8981968Y-14750769D01*
X8981968Y-14750769D02*
X8972444Y-14731722D01*
X8972444Y-14731722D02*
X8962920Y-14722198D01*
X8962920Y-14722198D02*
X8943872Y-14712674D01*
X8943872Y-14712674D02*
X8905777Y-14712674D01*
X8905777Y-14712674D02*
X8886729Y-14722198D01*
X8886729Y-14722198D02*
X8877206Y-14731722D01*
X8877206Y-14731722D02*
X8867682Y-14750769D01*
X9105777Y-14636484D02*
X9124825Y-14636484D01*
X9124825Y-14636484D02*
X9143872Y-14646008D01*
X9143872Y-14646008D02*
X9153396Y-14655531D01*
X9153396Y-14655531D02*
X9162920Y-14674579D01*
X9162920Y-14674579D02*
X9172444Y-14712674D01*
X9172444Y-14712674D02*
X9172444Y-14760293D01*
X9172444Y-14760293D02*
X9162920Y-14798388D01*
X9162920Y-14798388D02*
X9153396Y-14817436D01*
X9153396Y-14817436D02*
X9143872Y-14826960D01*
X9143872Y-14826960D02*
X9124825Y-14836484D01*
X9124825Y-14836484D02*
X9105777Y-14836484D01*
X9105777Y-14836484D02*
X9086729Y-14826960D01*
X9086729Y-14826960D02*
X9077206Y-14817436D01*
X9077206Y-14817436D02*
X9067682Y-14798388D01*
X9067682Y-14798388D02*
X9058158Y-14760293D01*
X9058158Y-14760293D02*
X9058158Y-14712674D01*
X9058158Y-14712674D02*
X9067682Y-14674579D01*
X9067682Y-14674579D02*
X9077206Y-14655531D01*
X9077206Y-14655531D02*
X9086729Y-14646008D01*
X9086729Y-14646008D02*
X9105777Y-14636484D01*
X9248634Y-14636484D02*
X9248634Y-14674579D01*
X9324825Y-14636484D02*
X9324825Y-14674579D01*
X9620063Y-14912674D02*
X9610539Y-14903150D01*
X9610539Y-14903150D02*
X9591491Y-14874579D01*
X9591491Y-14874579D02*
X9581968Y-14855531D01*
X9581968Y-14855531D02*
X9572444Y-14826960D01*
X9572444Y-14826960D02*
X9562920Y-14779341D01*
X9562920Y-14779341D02*
X9562920Y-14741246D01*
X9562920Y-14741246D02*
X9572444Y-14693627D01*
X9572444Y-14693627D02*
X9581968Y-14665055D01*
X9581968Y-14665055D02*
X9591491Y-14646008D01*
X9591491Y-14646008D02*
X9610539Y-14617436D01*
X9610539Y-14617436D02*
X9620063Y-14607912D01*
X9781968Y-14703150D02*
X9781968Y-14836484D01*
X9734349Y-14626960D02*
X9686730Y-14769817D01*
X9686730Y-14769817D02*
X9810539Y-14769817D01*
X10039111Y-14836484D02*
X10039111Y-14636484D01*
X10124825Y-14836484D02*
X10124825Y-14731722D01*
X10124825Y-14731722D02*
X10115301Y-14712674D01*
X10115301Y-14712674D02*
X10096253Y-14703150D01*
X10096253Y-14703150D02*
X10067682Y-14703150D01*
X10067682Y-14703150D02*
X10048634Y-14712674D01*
X10048634Y-14712674D02*
X10039111Y-14722198D01*
X10248634Y-14836484D02*
X10229587Y-14826960D01*
X10229587Y-14826960D02*
X10220063Y-14817436D01*
X10220063Y-14817436D02*
X10210539Y-14798388D01*
X10210539Y-14798388D02*
X10210539Y-14741246D01*
X10210539Y-14741246D02*
X10220063Y-14722198D01*
X10220063Y-14722198D02*
X10229587Y-14712674D01*
X10229587Y-14712674D02*
X10248634Y-14703150D01*
X10248634Y-14703150D02*
X10277206Y-14703150D01*
X10277206Y-14703150D02*
X10296253Y-14712674D01*
X10296253Y-14712674D02*
X10305777Y-14722198D01*
X10305777Y-14722198D02*
X10315301Y-14741246D01*
X10315301Y-14741246D02*
X10315301Y-14798388D01*
X10315301Y-14798388D02*
X10305777Y-14817436D01*
X10305777Y-14817436D02*
X10296253Y-14826960D01*
X10296253Y-14826960D02*
X10277206Y-14836484D01*
X10277206Y-14836484D02*
X10248634Y-14836484D01*
X10429587Y-14836484D02*
X10410539Y-14826960D01*
X10410539Y-14826960D02*
X10401015Y-14807912D01*
X10401015Y-14807912D02*
X10401015Y-14636484D01*
X10581968Y-14826960D02*
X10562920Y-14836484D01*
X10562920Y-14836484D02*
X10524825Y-14836484D01*
X10524825Y-14836484D02*
X10505777Y-14826960D01*
X10505777Y-14826960D02*
X10496253Y-14807912D01*
X10496253Y-14807912D02*
X10496253Y-14731722D01*
X10496253Y-14731722D02*
X10505777Y-14712674D01*
X10505777Y-14712674D02*
X10524825Y-14703150D01*
X10524825Y-14703150D02*
X10562920Y-14703150D01*
X10562920Y-14703150D02*
X10581968Y-14712674D01*
X10581968Y-14712674D02*
X10591492Y-14731722D01*
X10591492Y-14731722D02*
X10591492Y-14750769D01*
X10591492Y-14750769D02*
X10496253Y-14769817D01*
X10667682Y-14826960D02*
X10686730Y-14836484D01*
X10686730Y-14836484D02*
X10724825Y-14836484D01*
X10724825Y-14836484D02*
X10743873Y-14826960D01*
X10743873Y-14826960D02*
X10753396Y-14807912D01*
X10753396Y-14807912D02*
X10753396Y-14798388D01*
X10753396Y-14798388D02*
X10743873Y-14779341D01*
X10743873Y-14779341D02*
X10724825Y-14769817D01*
X10724825Y-14769817D02*
X10696253Y-14769817D01*
X10696253Y-14769817D02*
X10677206Y-14760293D01*
X10677206Y-14760293D02*
X10667682Y-14741246D01*
X10667682Y-14741246D02*
X10667682Y-14731722D01*
X10667682Y-14731722D02*
X10677206Y-14712674D01*
X10677206Y-14712674D02*
X10696253Y-14703150D01*
X10696253Y-14703150D02*
X10724825Y-14703150D01*
X10724825Y-14703150D02*
X10743873Y-14712674D01*
X10820063Y-14912674D02*
X10829587Y-14903150D01*
X10829587Y-14903150D02*
X10848634Y-14874579D01*
X10848634Y-14874579D02*
X10858158Y-14855531D01*
X10858158Y-14855531D02*
X10867682Y-14826960D01*
X10867682Y-14826960D02*
X10877206Y-14779341D01*
X10877206Y-14779341D02*
X10877206Y-14741246D01*
X10877206Y-14741246D02*
X10867682Y-14693627D01*
X10867682Y-14693627D02*
X10858158Y-14665055D01*
X10858158Y-14665055D02*
X10848634Y-14646008D01*
X10848634Y-14646008D02*
X10829587Y-14617436D01*
X10829587Y-14617436D02*
X10820063Y-14607912D01*
X11181968Y-14912674D02*
X11172444Y-14903150D01*
X11172444Y-14903150D02*
X11153396Y-14874579D01*
X11153396Y-14874579D02*
X11143873Y-14855531D01*
X11143873Y-14855531D02*
X11134349Y-14826960D01*
X11134349Y-14826960D02*
X11124825Y-14779341D01*
X11124825Y-14779341D02*
X11124825Y-14741246D01*
X11124825Y-14741246D02*
X11134349Y-14693627D01*
X11134349Y-14693627D02*
X11143873Y-14665055D01*
X11143873Y-14665055D02*
X11153396Y-14646008D01*
X11153396Y-14646008D02*
X11172444Y-14617436D01*
X11172444Y-14617436D02*
X11181968Y-14607912D01*
X11258158Y-14703150D02*
X11258158Y-14836484D01*
X11258158Y-14722198D02*
X11267682Y-14712674D01*
X11267682Y-14712674D02*
X11286730Y-14703150D01*
X11286730Y-14703150D02*
X11315301Y-14703150D01*
X11315301Y-14703150D02*
X11334349Y-14712674D01*
X11334349Y-14712674D02*
X11343872Y-14731722D01*
X11343872Y-14731722D02*
X11343872Y-14836484D01*
X11467682Y-14836484D02*
X11448634Y-14826960D01*
X11448634Y-14826960D02*
X11439111Y-14817436D01*
X11439111Y-14817436D02*
X11429587Y-14798388D01*
X11429587Y-14798388D02*
X11429587Y-14741246D01*
X11429587Y-14741246D02*
X11439111Y-14722198D01*
X11439111Y-14722198D02*
X11448634Y-14712674D01*
X11448634Y-14712674D02*
X11467682Y-14703150D01*
X11467682Y-14703150D02*
X11496253Y-14703150D01*
X11496253Y-14703150D02*
X11515301Y-14712674D01*
X11515301Y-14712674D02*
X11524825Y-14722198D01*
X11524825Y-14722198D02*
X11534349Y-14741246D01*
X11534349Y-14741246D02*
X11534349Y-14798388D01*
X11534349Y-14798388D02*
X11524825Y-14817436D01*
X11524825Y-14817436D02*
X11515301Y-14826960D01*
X11515301Y-14826960D02*
X11496253Y-14836484D01*
X11496253Y-14836484D02*
X11467682Y-14836484D01*
X11591492Y-14703150D02*
X11667682Y-14703150D01*
X11620063Y-14636484D02*
X11620063Y-14807912D01*
X11620063Y-14807912D02*
X11629587Y-14826960D01*
X11629587Y-14826960D02*
X11648634Y-14836484D01*
X11648634Y-14836484D02*
X11667682Y-14836484D01*
X11886730Y-14703150D02*
X11886730Y-14903150D01*
X11886730Y-14712674D02*
X11905777Y-14703150D01*
X11905777Y-14703150D02*
X11943873Y-14703150D01*
X11943873Y-14703150D02*
X11962920Y-14712674D01*
X11962920Y-14712674D02*
X11972444Y-14722198D01*
X11972444Y-14722198D02*
X11981968Y-14741246D01*
X11981968Y-14741246D02*
X11981968Y-14798388D01*
X11981968Y-14798388D02*
X11972444Y-14817436D01*
X11972444Y-14817436D02*
X11962920Y-14826960D01*
X11962920Y-14826960D02*
X11943873Y-14836484D01*
X11943873Y-14836484D02*
X11905777Y-14836484D01*
X11905777Y-14836484D02*
X11886730Y-14826960D01*
X12096253Y-14836484D02*
X12077206Y-14826960D01*
X12077206Y-14826960D02*
X12067682Y-14807912D01*
X12067682Y-14807912D02*
X12067682Y-14636484D01*
X12258158Y-14836484D02*
X12258158Y-14731722D01*
X12258158Y-14731722D02*
X12248634Y-14712674D01*
X12248634Y-14712674D02*
X12229587Y-14703150D01*
X12229587Y-14703150D02*
X12191492Y-14703150D01*
X12191492Y-14703150D02*
X12172444Y-14712674D01*
X12258158Y-14826960D02*
X12239111Y-14836484D01*
X12239111Y-14836484D02*
X12191492Y-14836484D01*
X12191492Y-14836484D02*
X12172444Y-14826960D01*
X12172444Y-14826960D02*
X12162920Y-14807912D01*
X12162920Y-14807912D02*
X12162920Y-14788865D01*
X12162920Y-14788865D02*
X12172444Y-14769817D01*
X12172444Y-14769817D02*
X12191492Y-14760293D01*
X12191492Y-14760293D02*
X12239111Y-14760293D01*
X12239111Y-14760293D02*
X12258158Y-14750769D01*
X12324825Y-14703150D02*
X12401015Y-14703150D01*
X12353396Y-14636484D02*
X12353396Y-14807912D01*
X12353396Y-14807912D02*
X12362920Y-14826960D01*
X12362920Y-14826960D02*
X12381968Y-14836484D01*
X12381968Y-14836484D02*
X12401015Y-14836484D01*
X12543873Y-14826960D02*
X12524825Y-14836484D01*
X12524825Y-14836484D02*
X12486730Y-14836484D01*
X12486730Y-14836484D02*
X12467682Y-14826960D01*
X12467682Y-14826960D02*
X12458158Y-14807912D01*
X12458158Y-14807912D02*
X12458158Y-14731722D01*
X12458158Y-14731722D02*
X12467682Y-14712674D01*
X12467682Y-14712674D02*
X12486730Y-14703150D01*
X12486730Y-14703150D02*
X12524825Y-14703150D01*
X12524825Y-14703150D02*
X12543873Y-14712674D01*
X12543873Y-14712674D02*
X12553396Y-14731722D01*
X12553396Y-14731722D02*
X12553396Y-14750769D01*
X12553396Y-14750769D02*
X12458158Y-14769817D01*
X12724825Y-14836484D02*
X12724825Y-14636484D01*
X12724825Y-14826960D02*
X12705777Y-14836484D01*
X12705777Y-14836484D02*
X12667682Y-14836484D01*
X12667682Y-14836484D02*
X12648634Y-14826960D01*
X12648634Y-14826960D02*
X12639111Y-14817436D01*
X12639111Y-14817436D02*
X12629587Y-14798388D01*
X12629587Y-14798388D02*
X12629587Y-14741246D01*
X12629587Y-14741246D02*
X12639111Y-14722198D01*
X12639111Y-14722198D02*
X12648634Y-14712674D01*
X12648634Y-14712674D02*
X12667682Y-14703150D01*
X12667682Y-14703150D02*
X12705777Y-14703150D01*
X12705777Y-14703150D02*
X12724825Y-14712674D01*
X12801015Y-14912674D02*
X12810539Y-14903150D01*
X12810539Y-14903150D02*
X12829587Y-14874579D01*
X12829587Y-14874579D02*
X12839111Y-14855531D01*
X12839111Y-14855531D02*
X12848634Y-14826960D01*
X12848634Y-14826960D02*
X12858158Y-14779341D01*
X12858158Y-14779341D02*
X12858158Y-14741246D01*
X12858158Y-14741246D02*
X12848634Y-14693627D01*
X12848634Y-14693627D02*
X12839111Y-14665055D01*
X12839111Y-14665055D02*
X12829587Y-14646008D01*
X12829587Y-14646008D02*
X12810539Y-14617436D01*
X12810539Y-14617436D02*
X12801015Y-14607912D01*
M02*
